G04 #@! TF.GenerationSoftware,KiCad,Pcbnew,7.0.5*
G04 #@! TF.CreationDate,2024-01-12T07:53:18+09:00*
G04 #@! TF.ProjectId,uglyEncoder,75676c79-456e-4636-9f64-65722e6b6963,rev?*
G04 #@! TF.SameCoordinates,Original*
G04 #@! TF.FileFunction,Copper,L2,Bot*
G04 #@! TF.FilePolarity,Positive*
%FSLAX46Y46*%
G04 Gerber Fmt 4.6, Leading zero omitted, Abs format (unit mm)*
G04 Created by KiCad (PCBNEW 7.0.5) date 2024-01-12 07:53:18*
%MOMM*%
%LPD*%
G01*
G04 APERTURE LIST*
G04 #@! TA.AperFunction,ViaPad*
%ADD10C,0.600000*%
G04 #@! TD*
G04 APERTURE END LIST*
D10*
X98400000Y-92750000D03*
X100950000Y-95800000D03*
X100000000Y-95800000D03*
X98900000Y-95800000D03*
X97900000Y-98550000D03*
G04 #@! TA.AperFunction,Conductor*
G36*
X102642539Y-90770185D02*
G01*
X102688294Y-90822989D01*
X102699500Y-90874500D01*
X102699500Y-99075500D01*
X102679815Y-99142539D01*
X102627011Y-99188294D01*
X102575500Y-99199500D01*
X102524760Y-99199500D01*
X102524554Y-99199459D01*
X102499998Y-99199459D01*
X102499909Y-99199496D01*
X102499619Y-99199615D01*
X102499615Y-99199618D01*
X102499459Y-99199999D01*
X102499476Y-99224616D01*
X102499471Y-99224616D01*
X102499500Y-99224759D01*
X102499500Y-99875500D01*
X102479815Y-99942539D01*
X102427011Y-99988294D01*
X102375500Y-99999500D01*
X97624500Y-99999500D01*
X97557461Y-99979815D01*
X97511706Y-99927011D01*
X97500500Y-99875500D01*
X97500500Y-99224759D01*
X97500528Y-99224616D01*
X97500524Y-99224616D01*
X97500539Y-99200002D01*
X97500541Y-99200000D01*
X97500462Y-99199808D01*
X97500384Y-99199618D01*
X97500383Y-99199617D01*
X97500381Y-99199616D01*
X97500090Y-99199496D01*
X97500001Y-99199459D01*
X97475446Y-99199459D01*
X97475240Y-99199500D01*
X97424500Y-99199500D01*
X97357461Y-99179815D01*
X97311706Y-99127011D01*
X97300500Y-99075500D01*
X97300500Y-90874500D01*
X97320185Y-90807461D01*
X97372989Y-90761706D01*
X97424500Y-90750500D01*
X102575500Y-90750500D01*
X102642539Y-90770185D01*
G37*
G04 #@! TD.AperFunction*
M02*
