%TF.GenerationSoftware,KiCad,Pcbnew,7.0.5*%
%TF.CreationDate,2024-01-12T06:43:09+09:00*%
%TF.ProjectId,uglyBob,75676c79-426f-4622-9e6b-696361645f70,rev?*%
%TF.SameCoordinates,Original*%
%TF.FileFunction,Drillmap*%
%TF.FilePolarity,Positive*%
%FSLAX45Y45*%
G04 Gerber Fmt 4.5, Leading zero omitted, Abs format (unit mm)*
G04 Created by KiCad (PCBNEW 7.0.5) date 2024-01-12 06:43:09*
%MOMM*%
%LPD*%
G01*
G04 APERTURE LIST*
%ADD10C,0.250000*%
%ADD11C,0.200000*%
%ADD12C,0.030000*%
%ADD13C,0.090000*%
%ADD14C,0.100000*%
G04 APERTURE END LIST*
D10*
X13100000Y-10900000D02*
X13100000Y-9100000D01*
X11300000Y-8590000D02*
X11165000Y-8590000D01*
X7000000Y-11900000D02*
X7200000Y-11900000D01*
X7400000Y-7700000D02*
X7400000Y-7900000D01*
X11165000Y-8590000D02*
X11165000Y-8750000D01*
X10455000Y-9015000D02*
X10455000Y-9100000D01*
X6200000Y-8900000D02*
X6200000Y-9100000D01*
X7228909Y-9622151D02*
X7471091Y-9377849D01*
X7200000Y-11900000D02*
X7200000Y-12100000D01*
X8227148Y-11700983D02*
X8275878Y-12041514D01*
X9295000Y-8500000D02*
X9295000Y-8750000D01*
X10955000Y-9100000D02*
X10955000Y-9015000D01*
X10705000Y-8750000D02*
X10705000Y-8500000D01*
X7623674Y-11205110D02*
X7680439Y-11544394D01*
X6000000Y-10900000D02*
X6200000Y-10900000D01*
X9295000Y-8750000D02*
X8835000Y-8750000D01*
X13100000Y-11300000D02*
X13300000Y-11300000D01*
X7471091Y-9377849D02*
X7364564Y-9272246D01*
X7828383Y-8480358D02*
X7680439Y-8455606D01*
X6622445Y-10138257D02*
X6521818Y-10249497D01*
X12900000Y-11700000D02*
X12900000Y-11500000D01*
X10455000Y-9100000D02*
X10955000Y-9100000D01*
X12900000Y-11500000D02*
X13100000Y-11500000D01*
X11700000Y-11900000D02*
X12700000Y-11900000D01*
X8835000Y-8590000D02*
X8700000Y-8590000D01*
X11165000Y-11410000D02*
X11300000Y-11410000D01*
X7828383Y-11519642D02*
X7771617Y-11180358D01*
X11500000Y-12300000D02*
X11500000Y-12100000D01*
X8700000Y-11410000D02*
X8835000Y-11410000D01*
X11500000Y-7900000D02*
X11500000Y-7700000D01*
X8835000Y-11250000D02*
X9295000Y-11250000D01*
X10705000Y-8500000D02*
X9295000Y-8500000D01*
X11165000Y-8750000D02*
X10705000Y-8750000D01*
X13300000Y-8700000D02*
X13100000Y-8700000D01*
X11165000Y-11250000D02*
X11165000Y-11410000D01*
X8375635Y-8320265D02*
X8424365Y-7979734D01*
X7771617Y-8819642D02*
X7828383Y-8480358D01*
X6877555Y-9630973D02*
X6776928Y-9519733D01*
X12900000Y-8500000D02*
X12900000Y-8300000D01*
X12700000Y-8100000D02*
X11700000Y-8100000D01*
X6000000Y-9100000D02*
X6000000Y-10900000D01*
X8700000Y-7700000D02*
X7400000Y-7700000D01*
X6600000Y-11300000D02*
X6600000Y-11500000D01*
X7200000Y-7900000D02*
X7200000Y-8100000D01*
X9295000Y-11250000D02*
X9295000Y-11500000D01*
X6521818Y-9750504D02*
X6622445Y-9861743D01*
X6800000Y-11500000D02*
X6800000Y-11700000D01*
X8424365Y-12020265D02*
X8375635Y-11679734D01*
X11300000Y-7700000D02*
X11300000Y-8590000D01*
X12700000Y-11900000D02*
X12700000Y-11700000D01*
X6400000Y-11300000D02*
X6600000Y-11300000D01*
X7771617Y-11180358D02*
X7623674Y-11205110D01*
X7228909Y-10377849D02*
X7122382Y-10483452D01*
X7680439Y-8455606D02*
X7623674Y-8794890D01*
X6400000Y-8700000D02*
X6400000Y-8900000D01*
X13300000Y-11300000D02*
X13300000Y-10900000D01*
X7000000Y-8100000D02*
X7000000Y-8300000D01*
X8700000Y-12300000D02*
X8700000Y-11410000D01*
X6200000Y-9100000D02*
X6000000Y-9100000D01*
X6776928Y-9519733D02*
X6521818Y-9750504D01*
X10705000Y-11250000D02*
X11165000Y-11250000D01*
X7400000Y-7900000D02*
X7200000Y-7900000D01*
X11300000Y-11410000D02*
X11300000Y-12300000D01*
X13100000Y-8500000D02*
X12900000Y-8500000D01*
X7122382Y-10483452D02*
X7364564Y-10727754D01*
X10455000Y-10985000D02*
X10955000Y-10985000D01*
X6800000Y-8500000D02*
X6600000Y-8500000D01*
X8375635Y-11679734D02*
X8227148Y-11700983D01*
X7200000Y-8100000D02*
X7000000Y-8100000D01*
X6600000Y-8500000D02*
X6600000Y-8700000D01*
X10705000Y-11500000D02*
X10705000Y-11250000D01*
X6800000Y-11700000D02*
X7000000Y-11700000D01*
X8275878Y-12041514D02*
X8424365Y-12020265D01*
X6400000Y-8900000D02*
X6200000Y-8900000D01*
X8275878Y-7958486D02*
X8227148Y-8299017D01*
X10955000Y-9015000D02*
X10455000Y-9015000D01*
X6877555Y-10369028D02*
X6622445Y-10138257D01*
X9100000Y-10000000D02*
G75*
G03*
X9100000Y-10000000I-500000J0D01*
G01*
X8835000Y-8750000D02*
X8835000Y-8590000D01*
X7471091Y-10622151D02*
X7228909Y-10377849D01*
X8700000Y-8590000D02*
X8700000Y-7700000D01*
X7400000Y-12100000D02*
X7400000Y-12300000D01*
X7364564Y-9272246D02*
X7122382Y-9516548D01*
X13100000Y-9100000D02*
X13300000Y-9100000D01*
X6622445Y-9861743D02*
X6877555Y-9630973D01*
X13100000Y-11500000D02*
X13100000Y-11300000D01*
X10955000Y-10900000D02*
X10455000Y-10900000D01*
X9295000Y-11500000D02*
X10705000Y-11500000D01*
X8227148Y-8299017D02*
X8375635Y-8320265D01*
X8424365Y-7979734D02*
X8275878Y-7958486D01*
X7122382Y-9516548D02*
X7228909Y-9622151D01*
X7364564Y-10727754D02*
X7471091Y-10622151D01*
X6200000Y-11100000D02*
X6400000Y-11100000D01*
X11700000Y-7900000D02*
X11500000Y-7900000D01*
X11500000Y-12100000D02*
X11700000Y-12100000D01*
X11300000Y-12300000D02*
X11500000Y-12300000D01*
X6776928Y-10480267D02*
X6877555Y-10369028D01*
X7623674Y-8794890D02*
X7771617Y-8819642D01*
X6200000Y-10900000D02*
X6200000Y-11100000D01*
X6521818Y-10249497D02*
X6776928Y-10480267D01*
X13100000Y-8700000D02*
X13100000Y-8500000D01*
X7000000Y-11700000D02*
X7000000Y-11900000D01*
X7200000Y-12100000D02*
X7400000Y-12100000D01*
X12700000Y-8300000D02*
X12700000Y-8100000D01*
X11500000Y-7700000D02*
X11300000Y-7700000D01*
X10955000Y-10985000D02*
X10955000Y-10900000D01*
X12700000Y-11700000D02*
X12900000Y-11700000D01*
X10455000Y-10900000D02*
X10455000Y-10985000D01*
X6400000Y-11100000D02*
X6400000Y-11300000D01*
X7400000Y-12300000D02*
X8700000Y-12300000D01*
X11700000Y-12100000D02*
X11700000Y-11900000D01*
X13300000Y-9100000D02*
X13300000Y-8700000D01*
X6800000Y-8300000D02*
X6800000Y-8500000D01*
X8835000Y-11410000D02*
X8835000Y-11250000D01*
X6600000Y-11500000D02*
X6800000Y-11500000D01*
X7680439Y-11544394D02*
X7828383Y-11519642D01*
X13300000Y-10900000D02*
X13100000Y-10900000D01*
X11700000Y-8100000D02*
X11700000Y-7900000D01*
X12900000Y-8300000D02*
X12700000Y-8300000D01*
X6600000Y-8700000D02*
X6400000Y-8700000D01*
X7000000Y-8300000D02*
X6800000Y-8300000D01*
D11*
D12*
X6055000Y-9825000D02*
X6085000Y-9855000D01*
X6085000Y-9825000D02*
X6055000Y-9855000D01*
X6055000Y-10145000D02*
X6085000Y-10175000D01*
X6085000Y-10145000D02*
X6055000Y-10175000D01*
X6075000Y-10235000D02*
X6105000Y-10265000D01*
X6105000Y-10235000D02*
X6075000Y-10265000D01*
X6215000Y-9645000D02*
X6245000Y-9675000D01*
X6245000Y-9645000D02*
X6215000Y-9675000D01*
X6275000Y-10025000D02*
X6305000Y-10055000D01*
X6305000Y-10025000D02*
X6275000Y-10055000D01*
X6315000Y-9635000D02*
X6345000Y-9665000D01*
X6345000Y-9635000D02*
X6315000Y-9665000D01*
X6395000Y-10235000D02*
X6425000Y-10265000D01*
X6425000Y-10235000D02*
X6395000Y-10265000D01*
X7445000Y-8985000D02*
X7475000Y-9015000D01*
X7475000Y-8985000D02*
X7445000Y-9015000D01*
X7445000Y-10985000D02*
X7475000Y-11015000D01*
X7475000Y-10985000D02*
X7445000Y-11015000D01*
X7480000Y-10065000D02*
X7510000Y-10095000D01*
X7510000Y-10065000D02*
X7480000Y-10095000D01*
X7485000Y-9755000D02*
X7515000Y-9785000D01*
X7515000Y-9755000D02*
X7485000Y-9785000D01*
X7575000Y-10065000D02*
X7605000Y-10095000D01*
X7605000Y-10065000D02*
X7575000Y-10095000D01*
X7580000Y-9755000D02*
X7610000Y-9785000D01*
X7610000Y-9755000D02*
X7580000Y-9785000D01*
X8185000Y-11535000D02*
X8215000Y-11565000D01*
X8215000Y-11535000D02*
X8185000Y-11565000D01*
X8295000Y-7760000D02*
X8325000Y-7790000D01*
X8325000Y-7760000D02*
X8295000Y-7790000D01*
X8295000Y-12210000D02*
X8325000Y-12240000D01*
X8325000Y-12210000D02*
X8295000Y-12240000D01*
X8385000Y-11430000D02*
X8415000Y-11460000D01*
X8415000Y-11430000D02*
X8385000Y-11460000D01*
X8390000Y-8540000D02*
X8420000Y-8570000D01*
X8420000Y-8540000D02*
X8390000Y-8570000D01*
X8480000Y-11430000D02*
X8510000Y-11460000D01*
X8510000Y-11430000D02*
X8480000Y-11460000D01*
X8485000Y-8540000D02*
X8515000Y-8570000D01*
X8515000Y-8540000D02*
X8485000Y-8570000D01*
X8615000Y-7760000D02*
X8645000Y-7790000D01*
X8645000Y-7760000D02*
X8615000Y-7790000D01*
X8615000Y-12210000D02*
X8645000Y-12240000D01*
X8645000Y-12210000D02*
X8615000Y-12240000D01*
X9185000Y-9685000D02*
X9215000Y-9715000D01*
X9215000Y-9685000D02*
X9185000Y-9715000D01*
X9185000Y-9785000D02*
X9215000Y-9815000D01*
X9215000Y-9785000D02*
X9185000Y-9815000D01*
X9185000Y-9885000D02*
X9215000Y-9915000D01*
X9215000Y-9885000D02*
X9185000Y-9915000D01*
X9185000Y-9985000D02*
X9215000Y-10015000D01*
X9215000Y-9985000D02*
X9185000Y-10015000D01*
X9185000Y-10085000D02*
X9215000Y-10115000D01*
X9215000Y-10085000D02*
X9185000Y-10115000D01*
X9285000Y-9685000D02*
X9315000Y-9715000D01*
X9315000Y-9685000D02*
X9285000Y-9715000D01*
X9285000Y-9785000D02*
X9315000Y-9815000D01*
X9315000Y-9785000D02*
X9285000Y-9815000D01*
X9285000Y-9885000D02*
X9315000Y-9915000D01*
X9315000Y-9885000D02*
X9285000Y-9915000D01*
X9285000Y-9985000D02*
X9315000Y-10015000D01*
X9315000Y-9985000D02*
X9285000Y-10015000D01*
X9285000Y-10085000D02*
X9315000Y-10115000D01*
X9315000Y-10085000D02*
X9285000Y-10115000D01*
X9385000Y-8585000D02*
X9415000Y-8615000D01*
X9415000Y-8585000D02*
X9385000Y-8615000D01*
X9385000Y-8685000D02*
X9415000Y-8715000D01*
X9415000Y-8685000D02*
X9385000Y-8715000D01*
X9385000Y-8785000D02*
X9415000Y-8815000D01*
X9415000Y-8785000D02*
X9385000Y-8815000D01*
X9385000Y-8885000D02*
X9415000Y-8915000D01*
X9415000Y-8885000D02*
X9385000Y-8915000D01*
X9385000Y-9685000D02*
X9415000Y-9715000D01*
X9415000Y-9685000D02*
X9385000Y-9715000D01*
X9385000Y-9785000D02*
X9415000Y-9815000D01*
X9415000Y-9785000D02*
X9385000Y-9815000D01*
X9385000Y-9885000D02*
X9415000Y-9915000D01*
X9415000Y-9885000D02*
X9385000Y-9915000D01*
X9385000Y-9985000D02*
X9415000Y-10015000D01*
X9415000Y-9985000D02*
X9385000Y-10015000D01*
X9385000Y-10085000D02*
X9415000Y-10115000D01*
X9415000Y-10085000D02*
X9385000Y-10115000D01*
X9385000Y-11085000D02*
X9415000Y-11115000D01*
X9415000Y-11085000D02*
X9385000Y-11115000D01*
X9385000Y-11185000D02*
X9415000Y-11215000D01*
X9415000Y-11185000D02*
X9385000Y-11215000D01*
X9385000Y-11285000D02*
X9415000Y-11315000D01*
X9415000Y-11285000D02*
X9385000Y-11315000D01*
X9385000Y-11385000D02*
X9415000Y-11415000D01*
X9415000Y-11385000D02*
X9385000Y-11415000D01*
X9485000Y-8585000D02*
X9515000Y-8615000D01*
X9515000Y-8585000D02*
X9485000Y-8615000D01*
X9485000Y-8685000D02*
X9515000Y-8715000D01*
X9515000Y-8685000D02*
X9485000Y-8715000D01*
X9485000Y-8785000D02*
X9515000Y-8815000D01*
X9515000Y-8785000D02*
X9485000Y-8815000D01*
X9485000Y-8885000D02*
X9515000Y-8915000D01*
X9515000Y-8885000D02*
X9485000Y-8915000D01*
X9485000Y-9685000D02*
X9515000Y-9715000D01*
X9515000Y-9685000D02*
X9485000Y-9715000D01*
X9485000Y-9785000D02*
X9515000Y-9815000D01*
X9515000Y-9785000D02*
X9485000Y-9815000D01*
X9485000Y-9885000D02*
X9515000Y-9915000D01*
X9515000Y-9885000D02*
X9485000Y-9915000D01*
X9485000Y-9985000D02*
X9515000Y-10015000D01*
X9515000Y-9985000D02*
X9485000Y-10015000D01*
X9485000Y-10085000D02*
X9515000Y-10115000D01*
X9515000Y-10085000D02*
X9485000Y-10115000D01*
X9485000Y-11085000D02*
X9515000Y-11115000D01*
X9515000Y-11085000D02*
X9485000Y-11115000D01*
X9485000Y-11185000D02*
X9515000Y-11215000D01*
X9515000Y-11185000D02*
X9485000Y-11215000D01*
X9485000Y-11285000D02*
X9515000Y-11315000D01*
X9515000Y-11285000D02*
X9485000Y-11315000D01*
X9485000Y-11385000D02*
X9515000Y-11415000D01*
X9515000Y-11385000D02*
X9485000Y-11415000D01*
X9585000Y-8585000D02*
X9615000Y-8615000D01*
X9615000Y-8585000D02*
X9585000Y-8615000D01*
X9585000Y-8685000D02*
X9615000Y-8715000D01*
X9615000Y-8685000D02*
X9585000Y-8715000D01*
X9585000Y-8785000D02*
X9615000Y-8815000D01*
X9615000Y-8785000D02*
X9585000Y-8815000D01*
X9585000Y-8885000D02*
X9615000Y-8915000D01*
X9615000Y-8885000D02*
X9585000Y-8915000D01*
X9585000Y-9685000D02*
X9615000Y-9715000D01*
X9615000Y-9685000D02*
X9585000Y-9715000D01*
X9585000Y-9785000D02*
X9615000Y-9815000D01*
X9615000Y-9785000D02*
X9585000Y-9815000D01*
X9585000Y-9885000D02*
X9615000Y-9915000D01*
X9615000Y-9885000D02*
X9585000Y-9915000D01*
X9585000Y-9985000D02*
X9615000Y-10015000D01*
X9615000Y-9985000D02*
X9585000Y-10015000D01*
X9585000Y-10085000D02*
X9615000Y-10115000D01*
X9615000Y-10085000D02*
X9585000Y-10115000D01*
X9585000Y-11085000D02*
X9615000Y-11115000D01*
X9615000Y-11085000D02*
X9585000Y-11115000D01*
X9585000Y-11185000D02*
X9615000Y-11215000D01*
X9615000Y-11185000D02*
X9585000Y-11215000D01*
X9585000Y-11285000D02*
X9615000Y-11315000D01*
X9615000Y-11285000D02*
X9585000Y-11315000D01*
X9585000Y-11385000D02*
X9615000Y-11415000D01*
X9615000Y-11385000D02*
X9585000Y-11415000D01*
X9675000Y-9025000D02*
X9705000Y-9055000D01*
X9705000Y-9025000D02*
X9675000Y-9055000D01*
X9685000Y-8585000D02*
X9715000Y-8615000D01*
X9715000Y-8585000D02*
X9685000Y-8615000D01*
X9685000Y-8685000D02*
X9715000Y-8715000D01*
X9715000Y-8685000D02*
X9685000Y-8715000D01*
X9685000Y-8785000D02*
X9715000Y-8815000D01*
X9715000Y-8785000D02*
X9685000Y-8815000D01*
X9685000Y-8885000D02*
X9715000Y-8915000D01*
X9715000Y-8885000D02*
X9685000Y-8915000D01*
X9685000Y-9685000D02*
X9715000Y-9715000D01*
X9715000Y-9685000D02*
X9685000Y-9715000D01*
X9685000Y-9785000D02*
X9715000Y-9815000D01*
X9715000Y-9785000D02*
X9685000Y-9815000D01*
X9685000Y-9885000D02*
X9715000Y-9915000D01*
X9715000Y-9885000D02*
X9685000Y-9915000D01*
X9685000Y-9985000D02*
X9715000Y-10015000D01*
X9715000Y-9985000D02*
X9685000Y-10015000D01*
X9685000Y-10085000D02*
X9715000Y-10115000D01*
X9715000Y-10085000D02*
X9685000Y-10115000D01*
X9685000Y-11085000D02*
X9715000Y-11115000D01*
X9715000Y-11085000D02*
X9685000Y-11115000D01*
X9685000Y-11185000D02*
X9715000Y-11215000D01*
X9715000Y-11185000D02*
X9685000Y-11215000D01*
X9685000Y-11285000D02*
X9715000Y-11315000D01*
X9715000Y-11285000D02*
X9685000Y-11315000D01*
X9685000Y-11385000D02*
X9715000Y-11415000D01*
X9715000Y-11385000D02*
X9685000Y-11415000D01*
X9695000Y-9415000D02*
X9725000Y-9445000D01*
X9725000Y-9415000D02*
X9695000Y-9445000D01*
X9785000Y-8585000D02*
X9815000Y-8615000D01*
X9815000Y-8585000D02*
X9785000Y-8615000D01*
X9785000Y-8685000D02*
X9815000Y-8715000D01*
X9815000Y-8685000D02*
X9785000Y-8715000D01*
X9785000Y-8785000D02*
X9815000Y-8815000D01*
X9815000Y-8785000D02*
X9785000Y-8815000D01*
X9785000Y-8885000D02*
X9815000Y-8915000D01*
X9815000Y-8885000D02*
X9785000Y-8915000D01*
X9785000Y-9685000D02*
X9815000Y-9715000D01*
X9815000Y-9685000D02*
X9785000Y-9715000D01*
X9785000Y-9785000D02*
X9815000Y-9815000D01*
X9815000Y-9785000D02*
X9785000Y-9815000D01*
X9785000Y-9885000D02*
X9815000Y-9915000D01*
X9815000Y-9885000D02*
X9785000Y-9915000D01*
X9785000Y-9985000D02*
X9815000Y-10015000D01*
X9815000Y-9985000D02*
X9785000Y-10015000D01*
X9785000Y-10085000D02*
X9815000Y-10115000D01*
X9815000Y-10085000D02*
X9785000Y-10115000D01*
X9785000Y-11085000D02*
X9815000Y-11115000D01*
X9815000Y-11085000D02*
X9785000Y-11115000D01*
X9785000Y-11185000D02*
X9815000Y-11215000D01*
X9815000Y-11185000D02*
X9785000Y-11215000D01*
X9785000Y-11285000D02*
X9815000Y-11315000D01*
X9815000Y-11285000D02*
X9785000Y-11315000D01*
X9785000Y-11385000D02*
X9815000Y-11415000D01*
X9815000Y-11385000D02*
X9785000Y-11415000D01*
X9885000Y-8585000D02*
X9915000Y-8615000D01*
X9915000Y-8585000D02*
X9885000Y-8615000D01*
X9885000Y-8685000D02*
X9915000Y-8715000D01*
X9915000Y-8685000D02*
X9885000Y-8715000D01*
X9885000Y-8785000D02*
X9915000Y-8815000D01*
X9915000Y-8785000D02*
X9885000Y-8815000D01*
X9885000Y-8885000D02*
X9915000Y-8915000D01*
X9915000Y-8885000D02*
X9885000Y-8915000D01*
X9885000Y-9685000D02*
X9915000Y-9715000D01*
X9915000Y-9685000D02*
X9885000Y-9715000D01*
X9885000Y-9785000D02*
X9915000Y-9815000D01*
X9915000Y-9785000D02*
X9885000Y-9815000D01*
X9885000Y-9885000D02*
X9915000Y-9915000D01*
X9915000Y-9885000D02*
X9885000Y-9915000D01*
X9885000Y-9985000D02*
X9915000Y-10015000D01*
X9915000Y-9985000D02*
X9885000Y-10015000D01*
X9885000Y-10085000D02*
X9915000Y-10115000D01*
X9915000Y-10085000D02*
X9885000Y-10115000D01*
X9885000Y-11085000D02*
X9915000Y-11115000D01*
X9915000Y-11085000D02*
X9885000Y-11115000D01*
X9885000Y-11185000D02*
X9915000Y-11215000D01*
X9915000Y-11185000D02*
X9885000Y-11215000D01*
X9885000Y-11285000D02*
X9915000Y-11315000D01*
X9915000Y-11285000D02*
X9885000Y-11315000D01*
X9885000Y-11385000D02*
X9915000Y-11415000D01*
X9915000Y-11385000D02*
X9885000Y-11415000D01*
X9985000Y-8585000D02*
X10015000Y-8615000D01*
X10015000Y-8585000D02*
X9985000Y-8615000D01*
X9985000Y-9685000D02*
X10015000Y-9715000D01*
X10015000Y-9685000D02*
X9985000Y-9715000D01*
X9985000Y-9785000D02*
X10015000Y-9815000D01*
X10015000Y-9785000D02*
X9985000Y-9815000D01*
X9985000Y-9885000D02*
X10015000Y-9915000D01*
X10015000Y-9885000D02*
X9985000Y-9915000D01*
X9985000Y-9985000D02*
X10015000Y-10015000D01*
X10015000Y-9985000D02*
X9985000Y-10015000D01*
X9985000Y-10085000D02*
X10015000Y-10115000D01*
X10015000Y-10085000D02*
X9985000Y-10115000D01*
X9985000Y-11385000D02*
X10015000Y-11415000D01*
X10015000Y-11385000D02*
X9985000Y-11415000D01*
X10015000Y-8860000D02*
X10045000Y-8890000D01*
X10045000Y-8860000D02*
X10015000Y-8890000D01*
X10015000Y-8955000D02*
X10045000Y-8985000D01*
X10045000Y-8955000D02*
X10015000Y-8985000D01*
X10050000Y-10930000D02*
X10080000Y-10960000D01*
X10080000Y-10930000D02*
X10050000Y-10960000D01*
X10050000Y-11025000D02*
X10080000Y-11055000D01*
X10080000Y-11025000D02*
X10050000Y-11055000D01*
X10085000Y-8585000D02*
X10115000Y-8615000D01*
X10115000Y-8585000D02*
X10085000Y-8615000D01*
X10085000Y-9685000D02*
X10115000Y-9715000D01*
X10115000Y-9685000D02*
X10085000Y-9715000D01*
X10085000Y-9785000D02*
X10115000Y-9815000D01*
X10115000Y-9785000D02*
X10085000Y-9815000D01*
X10085000Y-9885000D02*
X10115000Y-9915000D01*
X10115000Y-9885000D02*
X10085000Y-9915000D01*
X10085000Y-9985000D02*
X10115000Y-10015000D01*
X10115000Y-9985000D02*
X10085000Y-10015000D01*
X10085000Y-10085000D02*
X10115000Y-10115000D01*
X10115000Y-10085000D02*
X10085000Y-10115000D01*
X10085000Y-11385000D02*
X10115000Y-11415000D01*
X10115000Y-11385000D02*
X10085000Y-11415000D01*
X10110000Y-8860000D02*
X10140000Y-8890000D01*
X10140000Y-8860000D02*
X10110000Y-8890000D01*
X10110000Y-8955000D02*
X10140000Y-8985000D01*
X10140000Y-8955000D02*
X10110000Y-8985000D01*
X10145000Y-10930000D02*
X10175000Y-10960000D01*
X10175000Y-10930000D02*
X10145000Y-10960000D01*
X10145000Y-11025000D02*
X10175000Y-11055000D01*
X10175000Y-11025000D02*
X10145000Y-11055000D01*
X10185000Y-8585000D02*
X10215000Y-8615000D01*
X10215000Y-8585000D02*
X10185000Y-8615000D01*
X10185000Y-11385000D02*
X10215000Y-11415000D01*
X10215000Y-11385000D02*
X10185000Y-11415000D01*
X10285000Y-8585000D02*
X10315000Y-8615000D01*
X10315000Y-8585000D02*
X10285000Y-8615000D01*
X10285000Y-11385000D02*
X10315000Y-11415000D01*
X10315000Y-11385000D02*
X10285000Y-11415000D01*
X10975000Y-10225000D02*
X11005000Y-10255000D01*
X11005000Y-10225000D02*
X10975000Y-10255000D01*
X10995000Y-9015000D02*
X11025000Y-9045000D01*
X11025000Y-9015000D02*
X10995000Y-9045000D01*
X11015000Y-10345000D02*
X11045000Y-10375000D01*
X11045000Y-10345000D02*
X11015000Y-10375000D01*
X11015000Y-10975000D02*
X11045000Y-11005000D01*
X11045000Y-10975000D02*
X11015000Y-11005000D01*
X11090000Y-10260000D02*
X11120000Y-10290000D01*
X11120000Y-10260000D02*
X11090000Y-10290000D01*
X11135000Y-8915000D02*
X11165000Y-8945000D01*
X11165000Y-8915000D02*
X11135000Y-8945000D01*
X11145000Y-9005000D02*
X11175000Y-9035000D01*
X11175000Y-9005000D02*
X11145000Y-9035000D01*
X11335000Y-10415000D02*
X11365000Y-10445000D01*
X11365000Y-10415000D02*
X11335000Y-10445000D01*
X11385000Y-8650000D02*
X11415000Y-8680000D01*
X11415000Y-8650000D02*
X11385000Y-8680000D01*
X11385000Y-8745000D02*
X11415000Y-8775000D01*
X11415000Y-8745000D02*
X11385000Y-8775000D01*
X11385000Y-10985000D02*
X11415000Y-11015000D01*
X11415000Y-10985000D02*
X11385000Y-11015000D01*
X11480000Y-8650000D02*
X11510000Y-8680000D01*
X11510000Y-8650000D02*
X11480000Y-8680000D01*
X11480000Y-8745000D02*
X11510000Y-8775000D01*
X11510000Y-8745000D02*
X11480000Y-8775000D01*
X11490000Y-11110000D02*
X11520000Y-11140000D01*
X11520000Y-11110000D02*
X11490000Y-11140000D01*
X11495000Y-10565000D02*
X11525000Y-10595000D01*
X11525000Y-10565000D02*
X11495000Y-10595000D01*
X11515000Y-10125000D02*
X11545000Y-10155000D01*
X11545000Y-10125000D02*
X11515000Y-10155000D01*
X11525000Y-9455000D02*
X11555000Y-9485000D01*
X11555000Y-9455000D02*
X11525000Y-9485000D01*
X11525000Y-9755000D02*
X11555000Y-9785000D01*
X11555000Y-9755000D02*
X11525000Y-9785000D01*
X11610000Y-11110000D02*
X11640000Y-11140000D01*
X11640000Y-11110000D02*
X11610000Y-11140000D01*
X11635000Y-8995000D02*
X11665000Y-9025000D01*
X11665000Y-8995000D02*
X11635000Y-9025000D01*
X11635000Y-9090000D02*
X11665000Y-9120000D01*
X11665000Y-9090000D02*
X11635000Y-9120000D01*
X11635000Y-9455000D02*
X11665000Y-9485000D01*
X11665000Y-9455000D02*
X11635000Y-9485000D01*
X11635000Y-9755000D02*
X11665000Y-9785000D01*
X11665000Y-9755000D02*
X11635000Y-9785000D01*
X11655000Y-9920000D02*
X11685000Y-9950000D01*
X11685000Y-9920000D02*
X11655000Y-9950000D01*
X11655000Y-10080000D02*
X11685000Y-10110000D01*
X11685000Y-10080000D02*
X11655000Y-10110000D01*
X11725000Y-11215000D02*
X11755000Y-11245000D01*
X11755000Y-11215000D02*
X11725000Y-11245000D01*
X11725000Y-11375000D02*
X11755000Y-11405000D01*
X11755000Y-11375000D02*
X11725000Y-11405000D01*
X11730000Y-8995000D02*
X11760000Y-9025000D01*
X11760000Y-8995000D02*
X11730000Y-9025000D01*
X11730000Y-9090000D02*
X11760000Y-9120000D01*
X11760000Y-9090000D02*
X11730000Y-9120000D01*
X11790000Y-9725000D02*
X11820000Y-9755000D01*
X11820000Y-9725000D02*
X11790000Y-9755000D01*
X11905000Y-9610000D02*
X11935000Y-9640000D01*
X11935000Y-9610000D02*
X11905000Y-9640000D01*
X11965000Y-10985000D02*
X11995000Y-11015000D01*
X11995000Y-10985000D02*
X11965000Y-11015000D01*
X11990000Y-8995000D02*
X12020000Y-9025000D01*
X12020000Y-8995000D02*
X11990000Y-9025000D01*
X11990000Y-9090000D02*
X12020000Y-9120000D01*
X12020000Y-9090000D02*
X11990000Y-9120000D01*
X11995000Y-9305000D02*
X12025000Y-9335000D01*
X12025000Y-9305000D02*
X11995000Y-9335000D01*
X12025000Y-10815000D02*
X12055000Y-10845000D01*
X12055000Y-10815000D02*
X12025000Y-10845000D01*
X12085000Y-8995000D02*
X12115000Y-9025000D01*
X12115000Y-8995000D02*
X12085000Y-9025000D01*
X12085000Y-9090000D02*
X12115000Y-9120000D01*
X12115000Y-9090000D02*
X12085000Y-9120000D01*
X12110000Y-9335000D02*
X12140000Y-9365000D01*
X12140000Y-9335000D02*
X12110000Y-9365000D01*
X12135000Y-10925000D02*
X12165000Y-10955000D01*
X12165000Y-10925000D02*
X12135000Y-10955000D01*
X12205000Y-10395000D02*
X12235000Y-10425000D01*
X12235000Y-10395000D02*
X12205000Y-10425000D01*
X12210000Y-9335000D02*
X12240000Y-9365000D01*
X12240000Y-9335000D02*
X12210000Y-9365000D01*
X12250000Y-11610000D02*
X12280000Y-11640000D01*
X12280000Y-11610000D02*
X12250000Y-11640000D01*
X12310000Y-10410000D02*
X12340000Y-10440000D01*
X12340000Y-10410000D02*
X12310000Y-10440000D01*
X12375000Y-11610000D02*
X12405000Y-11640000D01*
X12405000Y-11610000D02*
X12375000Y-11640000D01*
X12395000Y-9410000D02*
X12425000Y-9440000D01*
X12425000Y-9410000D02*
X12395000Y-9440000D01*
X12405000Y-8760000D02*
X12435000Y-8790000D01*
X12435000Y-8760000D02*
X12405000Y-8790000D01*
X12405000Y-8855000D02*
X12435000Y-8885000D01*
X12435000Y-8855000D02*
X12405000Y-8885000D01*
X12455000Y-10225000D02*
X12485000Y-10255000D01*
X12485000Y-10225000D02*
X12455000Y-10255000D01*
X12520000Y-10915000D02*
X12550000Y-10945000D01*
X12550000Y-10915000D02*
X12520000Y-10945000D01*
X12534850Y-10425000D02*
X12564850Y-10455000D01*
X12564850Y-10425000D02*
X12534850Y-10455000D01*
X12545000Y-10095000D02*
X12575000Y-10125000D01*
X12575000Y-10095000D02*
X12545000Y-10125000D01*
X12565000Y-9485000D02*
X12595000Y-9515000D01*
X12595000Y-9485000D02*
X12565000Y-9515000D01*
X12615000Y-10160000D02*
X12645000Y-10190000D01*
X12645000Y-10160000D02*
X12615000Y-10190000D01*
X12635000Y-10010000D02*
X12665000Y-10040000D01*
X12665000Y-10010000D02*
X12635000Y-10040000D01*
X12685000Y-10235000D02*
X12715000Y-10265000D01*
X12715000Y-10235000D02*
X12685000Y-10265000D01*
X12770000Y-11370000D02*
X12800000Y-11400000D01*
X12800000Y-11370000D02*
X12770000Y-11400000D01*
X12780000Y-9200000D02*
X12810000Y-9230000D01*
X12810000Y-9200000D02*
X12780000Y-9230000D01*
X12780000Y-9295000D02*
X12810000Y-9325000D01*
X12810000Y-9295000D02*
X12780000Y-9325000D01*
X12785000Y-10135000D02*
X12815000Y-10165000D01*
X12815000Y-10135000D02*
X12785000Y-10165000D01*
X12785000Y-10235000D02*
X12815000Y-10265000D01*
X12815000Y-10235000D02*
X12785000Y-10265000D01*
X12810000Y-10690000D02*
X12840000Y-10720000D01*
X12840000Y-10690000D02*
X12810000Y-10720000D01*
X12860000Y-9785000D02*
X12890000Y-9815000D01*
X12890000Y-9785000D02*
X12860000Y-9815000D01*
X12870000Y-9575000D02*
X12900000Y-9605000D01*
X12900000Y-9575000D02*
X12870000Y-9605000D01*
X12870000Y-9670000D02*
X12900000Y-9700000D01*
X12900000Y-9670000D02*
X12870000Y-9700000D01*
X12875000Y-9200000D02*
X12905000Y-9230000D01*
X12905000Y-9200000D02*
X12875000Y-9230000D01*
X12875000Y-9295000D02*
X12905000Y-9325000D01*
X12905000Y-9295000D02*
X12875000Y-9325000D01*
X12935000Y-9860000D02*
X12965000Y-9890000D01*
X12965000Y-9860000D02*
X12935000Y-9890000D01*
X12935000Y-10405000D02*
X12965000Y-10435000D01*
X12965000Y-10405000D02*
X12935000Y-10435000D01*
X12965000Y-9575000D02*
X12995000Y-9605000D01*
X12995000Y-9575000D02*
X12965000Y-9605000D01*
X12965000Y-9670000D02*
X12995000Y-9700000D01*
X12995000Y-9670000D02*
X12965000Y-9700000D01*
X13140000Y-8940000D02*
X13170000Y-8970000D01*
X13170000Y-8940000D02*
X13140000Y-8970000D01*
X13140000Y-9035000D02*
X13170000Y-9065000D01*
X13170000Y-9035000D02*
X13140000Y-9065000D01*
X13235000Y-8940000D02*
X13265000Y-8970000D01*
X13265000Y-8940000D02*
X13235000Y-8970000D01*
X13235000Y-9035000D02*
X13265000Y-9065000D01*
X13265000Y-9035000D02*
X13235000Y-9065000D01*
X10510000Y-8945000D02*
G75*
G03*
X10510000Y-8945000I-15000J0D01*
G01*
X10520000Y-11055000D02*
G75*
G03*
X10520000Y-11055000I-15000J0D01*
G01*
X10630000Y-8945000D02*
G75*
G03*
X10630000Y-8945000I-15000J0D01*
G01*
X10670000Y-11055000D02*
G75*
G03*
X10670000Y-11055000I-15000J0D01*
G01*
X10770000Y-8945000D02*
G75*
G03*
X10770000Y-8945000I-15000J0D01*
G01*
X10810000Y-11055000D02*
G75*
G03*
X10810000Y-11055000I-15000J0D01*
G01*
X10920000Y-8945000D02*
G75*
G03*
X10920000Y-8945000I-15000J0D01*
G01*
X10930000Y-11055000D02*
G75*
G03*
X10930000Y-11055000I-15000J0D01*
G01*
X12165000Y-8810000D02*
G75*
G03*
X12165000Y-8810000I-15000J0D01*
G01*
X12265000Y-8810000D02*
G75*
G03*
X12265000Y-8810000I-15000J0D01*
G01*
X12565000Y-8810000D02*
G75*
G03*
X12565000Y-8810000I-15000J0D01*
G01*
X12665000Y-8810000D02*
G75*
G03*
X12665000Y-8810000I-15000J0D01*
G01*
D13*
X6706130Y-9842175D02*
X6706130Y-9932175D01*
X6661130Y-9887175D02*
X6751130Y-9887175D01*
X6706130Y-10067825D02*
X6706130Y-10157825D01*
X6661130Y-10112825D02*
X6751130Y-10112825D01*
X6894496Y-9671780D02*
X6894496Y-9761780D01*
X6849496Y-9716780D02*
X6939496Y-9716780D01*
X6894496Y-10238220D02*
X6894496Y-10328220D01*
X6849496Y-10283220D02*
X6939496Y-10283220D01*
X7313853Y-9597994D02*
X7313853Y-9687994D01*
X7268853Y-9642994D02*
X7358853Y-9642994D01*
X7313853Y-10312006D02*
X7313853Y-10402006D01*
X7268853Y-10357006D02*
X7358853Y-10357006D01*
X7492674Y-9417608D02*
X7492674Y-9507608D01*
X7447674Y-9462608D02*
X7537674Y-9462608D01*
X7492674Y-10492392D02*
X7492674Y-10582392D01*
X7447674Y-10537392D02*
X7537674Y-10537392D01*
X7853015Y-8742635D02*
X7853015Y-8832635D01*
X7808015Y-8787635D02*
X7898015Y-8787635D01*
X7853015Y-11167365D02*
X7853015Y-11257365D01*
X7808015Y-11212365D02*
X7898015Y-11212365D01*
X7894929Y-8492117D02*
X7894929Y-8582117D01*
X7849929Y-8537117D02*
X7939929Y-8537117D01*
X7894929Y-11417883D02*
X7894929Y-11507883D01*
X7849929Y-11462883D02*
X7939929Y-11462883D01*
X8456253Y-8241344D02*
X8456253Y-8331344D01*
X8411253Y-8286344D02*
X8501253Y-8286344D01*
X8456253Y-11668656D02*
X8456253Y-11758656D01*
X8411253Y-11713656D02*
X8501253Y-11713656D01*
X8492234Y-7989905D02*
X8492234Y-8079905D01*
X8447234Y-8034905D02*
X8537234Y-8034905D01*
X8492234Y-11920095D02*
X8492234Y-12010095D01*
X8447234Y-11965095D02*
X8537234Y-11965095D01*
D14*
X10504356Y-9400356D02*
X10504356Y-9329644D01*
X10433644Y-9329644D01*
X10433644Y-9400356D01*
X10504356Y-9400356D01*
X10504356Y-9908356D02*
X10504356Y-9837644D01*
X10433644Y-9837644D01*
X10433644Y-9908356D01*
X10504356Y-9908356D01*
X10504356Y-10162356D02*
X10504356Y-10091644D01*
X10433644Y-10091644D01*
X10433644Y-10162356D01*
X10504356Y-10162356D01*
X10504356Y-10416356D02*
X10504356Y-10345644D01*
X10433644Y-10345644D01*
X10433644Y-10416356D01*
X10504356Y-10416356D01*
X10504356Y-10670356D02*
X10504356Y-10599644D01*
X10433644Y-10599644D01*
X10433644Y-10670356D01*
X10504356Y-10670356D01*
X11266356Y-9400356D02*
X11266356Y-9329644D01*
X11195644Y-9329644D01*
X11195644Y-9400356D01*
X11266356Y-9400356D01*
X11266356Y-9654356D02*
X11266356Y-9583644D01*
X11195644Y-9583644D01*
X11195644Y-9654356D01*
X11266356Y-9654356D01*
X11266356Y-9908356D02*
X11266356Y-9837644D01*
X11195644Y-9837644D01*
X11195644Y-9908356D01*
X11266356Y-9908356D01*
X11266356Y-10162356D02*
X11266356Y-10091644D01*
X11195644Y-10091644D01*
X11195644Y-10162356D01*
X11266356Y-10162356D01*
X11695356Y-8410356D02*
X11695356Y-8339644D01*
X11624644Y-8339644D01*
X11624644Y-8410356D01*
X11695356Y-8410356D01*
X11695356Y-8660356D02*
X11695356Y-8589644D01*
X11624644Y-8589644D01*
X11624644Y-8660356D01*
X11695356Y-8660356D01*
D11*
X6248277Y-12623984D02*
X6248277Y-12423984D01*
X6248277Y-12423984D02*
X6295896Y-12423984D01*
X6295896Y-12423984D02*
X6324467Y-12433508D01*
X6324467Y-12433508D02*
X6343515Y-12452555D01*
X6343515Y-12452555D02*
X6353039Y-12471603D01*
X6353039Y-12471603D02*
X6362562Y-12509698D01*
X6362562Y-12509698D02*
X6362562Y-12538269D01*
X6362562Y-12538269D02*
X6353039Y-12576365D01*
X6353039Y-12576365D02*
X6343515Y-12595412D01*
X6343515Y-12595412D02*
X6324467Y-12614460D01*
X6324467Y-12614460D02*
X6295896Y-12623984D01*
X6295896Y-12623984D02*
X6248277Y-12623984D01*
X6448277Y-12623984D02*
X6448277Y-12490650D01*
X6448277Y-12528746D02*
X6457801Y-12509698D01*
X6457801Y-12509698D02*
X6467324Y-12500174D01*
X6467324Y-12500174D02*
X6486372Y-12490650D01*
X6486372Y-12490650D02*
X6505420Y-12490650D01*
X6572086Y-12623984D02*
X6572086Y-12490650D01*
X6572086Y-12423984D02*
X6562562Y-12433508D01*
X6562562Y-12433508D02*
X6572086Y-12443031D01*
X6572086Y-12443031D02*
X6581610Y-12433508D01*
X6581610Y-12433508D02*
X6572086Y-12423984D01*
X6572086Y-12423984D02*
X6572086Y-12443031D01*
X6695896Y-12623984D02*
X6676848Y-12614460D01*
X6676848Y-12614460D02*
X6667324Y-12595412D01*
X6667324Y-12595412D02*
X6667324Y-12423984D01*
X6800658Y-12623984D02*
X6781610Y-12614460D01*
X6781610Y-12614460D02*
X6772086Y-12595412D01*
X6772086Y-12595412D02*
X6772086Y-12423984D01*
X7029229Y-12623984D02*
X7029229Y-12423984D01*
X7029229Y-12423984D02*
X7095896Y-12566841D01*
X7095896Y-12566841D02*
X7162562Y-12423984D01*
X7162562Y-12423984D02*
X7162562Y-12623984D01*
X7343515Y-12623984D02*
X7343515Y-12519222D01*
X7343515Y-12519222D02*
X7333991Y-12500174D01*
X7333991Y-12500174D02*
X7314943Y-12490650D01*
X7314943Y-12490650D02*
X7276848Y-12490650D01*
X7276848Y-12490650D02*
X7257801Y-12500174D01*
X7343515Y-12614460D02*
X7324467Y-12623984D01*
X7324467Y-12623984D02*
X7276848Y-12623984D01*
X7276848Y-12623984D02*
X7257801Y-12614460D01*
X7257801Y-12614460D02*
X7248277Y-12595412D01*
X7248277Y-12595412D02*
X7248277Y-12576365D01*
X7248277Y-12576365D02*
X7257801Y-12557317D01*
X7257801Y-12557317D02*
X7276848Y-12547793D01*
X7276848Y-12547793D02*
X7324467Y-12547793D01*
X7324467Y-12547793D02*
X7343515Y-12538269D01*
X7438753Y-12490650D02*
X7438753Y-12690650D01*
X7438753Y-12500174D02*
X7457801Y-12490650D01*
X7457801Y-12490650D02*
X7495896Y-12490650D01*
X7495896Y-12490650D02*
X7514943Y-12500174D01*
X7514943Y-12500174D02*
X7524467Y-12509698D01*
X7524467Y-12509698D02*
X7533991Y-12528746D01*
X7533991Y-12528746D02*
X7533991Y-12585888D01*
X7533991Y-12585888D02*
X7524467Y-12604936D01*
X7524467Y-12604936D02*
X7514943Y-12614460D01*
X7514943Y-12614460D02*
X7495896Y-12623984D01*
X7495896Y-12623984D02*
X7457801Y-12623984D01*
X7457801Y-12623984D02*
X7438753Y-12614460D01*
X7619705Y-12604936D02*
X7629229Y-12614460D01*
X7629229Y-12614460D02*
X7619705Y-12623984D01*
X7619705Y-12623984D02*
X7610182Y-12614460D01*
X7610182Y-12614460D02*
X7619705Y-12604936D01*
X7619705Y-12604936D02*
X7619705Y-12623984D01*
X7619705Y-12500174D02*
X7629229Y-12509698D01*
X7629229Y-12509698D02*
X7619705Y-12519222D01*
X7619705Y-12519222D02*
X7610182Y-12509698D01*
X7610182Y-12509698D02*
X7619705Y-12500174D01*
X7619705Y-12500174D02*
X7619705Y-12519222D01*
D12*
X5957500Y-12937500D02*
X5987500Y-12967500D01*
X5987500Y-12937500D02*
X5957500Y-12967500D01*
D11*
X6286372Y-12843984D02*
X6305420Y-12843984D01*
X6305420Y-12843984D02*
X6324467Y-12853508D01*
X6324467Y-12853508D02*
X6333991Y-12863031D01*
X6333991Y-12863031D02*
X6343515Y-12882079D01*
X6343515Y-12882079D02*
X6353039Y-12920174D01*
X6353039Y-12920174D02*
X6353039Y-12967793D01*
X6353039Y-12967793D02*
X6343515Y-13005888D01*
X6343515Y-13005888D02*
X6333991Y-13024936D01*
X6333991Y-13024936D02*
X6324467Y-13034460D01*
X6324467Y-13034460D02*
X6305420Y-13043984D01*
X6305420Y-13043984D02*
X6286372Y-13043984D01*
X6286372Y-13043984D02*
X6267324Y-13034460D01*
X6267324Y-13034460D02*
X6257801Y-13024936D01*
X6257801Y-13024936D02*
X6248277Y-13005888D01*
X6248277Y-13005888D02*
X6238753Y-12967793D01*
X6238753Y-12967793D02*
X6238753Y-12920174D01*
X6238753Y-12920174D02*
X6248277Y-12882079D01*
X6248277Y-12882079D02*
X6257801Y-12863031D01*
X6257801Y-12863031D02*
X6267324Y-12853508D01*
X6267324Y-12853508D02*
X6286372Y-12843984D01*
X6438753Y-13024936D02*
X6448277Y-13034460D01*
X6448277Y-13034460D02*
X6438753Y-13043984D01*
X6438753Y-13043984D02*
X6429229Y-13034460D01*
X6429229Y-13034460D02*
X6438753Y-13024936D01*
X6438753Y-13024936D02*
X6438753Y-13043984D01*
X6514943Y-12843984D02*
X6638753Y-12843984D01*
X6638753Y-12843984D02*
X6572086Y-12920174D01*
X6572086Y-12920174D02*
X6600658Y-12920174D01*
X6600658Y-12920174D02*
X6619705Y-12929698D01*
X6619705Y-12929698D02*
X6629229Y-12939222D01*
X6629229Y-12939222D02*
X6638753Y-12958269D01*
X6638753Y-12958269D02*
X6638753Y-13005888D01*
X6638753Y-13005888D02*
X6629229Y-13024936D01*
X6629229Y-13024936D02*
X6619705Y-13034460D01*
X6619705Y-13034460D02*
X6600658Y-13043984D01*
X6600658Y-13043984D02*
X6543515Y-13043984D01*
X6543515Y-13043984D02*
X6524467Y-13034460D01*
X6524467Y-13034460D02*
X6514943Y-13024936D01*
X6762562Y-12843984D02*
X6781610Y-12843984D01*
X6781610Y-12843984D02*
X6800658Y-12853508D01*
X6800658Y-12853508D02*
X6810182Y-12863031D01*
X6810182Y-12863031D02*
X6819705Y-12882079D01*
X6819705Y-12882079D02*
X6829229Y-12920174D01*
X6829229Y-12920174D02*
X6829229Y-12967793D01*
X6829229Y-12967793D02*
X6819705Y-13005888D01*
X6819705Y-13005888D02*
X6810182Y-13024936D01*
X6810182Y-13024936D02*
X6800658Y-13034460D01*
X6800658Y-13034460D02*
X6781610Y-13043984D01*
X6781610Y-13043984D02*
X6762562Y-13043984D01*
X6762562Y-13043984D02*
X6743515Y-13034460D01*
X6743515Y-13034460D02*
X6733991Y-13024936D01*
X6733991Y-13024936D02*
X6724467Y-13005888D01*
X6724467Y-13005888D02*
X6714943Y-12967793D01*
X6714943Y-12967793D02*
X6714943Y-12920174D01*
X6714943Y-12920174D02*
X6724467Y-12882079D01*
X6724467Y-12882079D02*
X6733991Y-12863031D01*
X6733991Y-12863031D02*
X6743515Y-12853508D01*
X6743515Y-12853508D02*
X6762562Y-12843984D01*
X6953039Y-12843984D02*
X6972086Y-12843984D01*
X6972086Y-12843984D02*
X6991134Y-12853508D01*
X6991134Y-12853508D02*
X7000658Y-12863031D01*
X7000658Y-12863031D02*
X7010182Y-12882079D01*
X7010182Y-12882079D02*
X7019705Y-12920174D01*
X7019705Y-12920174D02*
X7019705Y-12967793D01*
X7019705Y-12967793D02*
X7010182Y-13005888D01*
X7010182Y-13005888D02*
X7000658Y-13024936D01*
X7000658Y-13024936D02*
X6991134Y-13034460D01*
X6991134Y-13034460D02*
X6972086Y-13043984D01*
X6972086Y-13043984D02*
X6953039Y-13043984D01*
X6953039Y-13043984D02*
X6933991Y-13034460D01*
X6933991Y-13034460D02*
X6924467Y-13024936D01*
X6924467Y-13024936D02*
X6914943Y-13005888D01*
X6914943Y-13005888D02*
X6905420Y-12967793D01*
X6905420Y-12967793D02*
X6905420Y-12920174D01*
X6905420Y-12920174D02*
X6914943Y-12882079D01*
X6914943Y-12882079D02*
X6924467Y-12863031D01*
X6924467Y-12863031D02*
X6933991Y-12853508D01*
X6933991Y-12853508D02*
X6953039Y-12843984D01*
X7105420Y-13043984D02*
X7105420Y-12910650D01*
X7105420Y-12929698D02*
X7114943Y-12920174D01*
X7114943Y-12920174D02*
X7133991Y-12910650D01*
X7133991Y-12910650D02*
X7162563Y-12910650D01*
X7162563Y-12910650D02*
X7181610Y-12920174D01*
X7181610Y-12920174D02*
X7191134Y-12939222D01*
X7191134Y-12939222D02*
X7191134Y-13043984D01*
X7191134Y-12939222D02*
X7200658Y-12920174D01*
X7200658Y-12920174D02*
X7219705Y-12910650D01*
X7219705Y-12910650D02*
X7248277Y-12910650D01*
X7248277Y-12910650D02*
X7267324Y-12920174D01*
X7267324Y-12920174D02*
X7276848Y-12939222D01*
X7276848Y-12939222D02*
X7276848Y-13043984D01*
X7372086Y-13043984D02*
X7372086Y-12910650D01*
X7372086Y-12929698D02*
X7381610Y-12920174D01*
X7381610Y-12920174D02*
X7400658Y-12910650D01*
X7400658Y-12910650D02*
X7429229Y-12910650D01*
X7429229Y-12910650D02*
X7448277Y-12920174D01*
X7448277Y-12920174D02*
X7457801Y-12939222D01*
X7457801Y-12939222D02*
X7457801Y-13043984D01*
X7457801Y-12939222D02*
X7467324Y-12920174D01*
X7467324Y-12920174D02*
X7486372Y-12910650D01*
X7486372Y-12910650D02*
X7514943Y-12910650D01*
X7514943Y-12910650D02*
X7533991Y-12920174D01*
X7533991Y-12920174D02*
X7543515Y-12939222D01*
X7543515Y-12939222D02*
X7543515Y-13043984D01*
X7933991Y-12834460D02*
X7762563Y-13091603D01*
X8191134Y-12843984D02*
X8210182Y-12843984D01*
X8210182Y-12843984D02*
X8229229Y-12853508D01*
X8229229Y-12853508D02*
X8238753Y-12863031D01*
X8238753Y-12863031D02*
X8248277Y-12882079D01*
X8248277Y-12882079D02*
X8257801Y-12920174D01*
X8257801Y-12920174D02*
X8257801Y-12967793D01*
X8257801Y-12967793D02*
X8248277Y-13005888D01*
X8248277Y-13005888D02*
X8238753Y-13024936D01*
X8238753Y-13024936D02*
X8229229Y-13034460D01*
X8229229Y-13034460D02*
X8210182Y-13043984D01*
X8210182Y-13043984D02*
X8191134Y-13043984D01*
X8191134Y-13043984D02*
X8172086Y-13034460D01*
X8172086Y-13034460D02*
X8162563Y-13024936D01*
X8162563Y-13024936D02*
X8153039Y-13005888D01*
X8153039Y-13005888D02*
X8143515Y-12967793D01*
X8143515Y-12967793D02*
X8143515Y-12920174D01*
X8143515Y-12920174D02*
X8153039Y-12882079D01*
X8153039Y-12882079D02*
X8162563Y-12863031D01*
X8162563Y-12863031D02*
X8172086Y-12853508D01*
X8172086Y-12853508D02*
X8191134Y-12843984D01*
X8343515Y-13024936D02*
X8353039Y-13034460D01*
X8353039Y-13034460D02*
X8343515Y-13043984D01*
X8343515Y-13043984D02*
X8333991Y-13034460D01*
X8333991Y-13034460D02*
X8343515Y-13024936D01*
X8343515Y-13024936D02*
X8343515Y-13043984D01*
X8476848Y-12843984D02*
X8495896Y-12843984D01*
X8495896Y-12843984D02*
X8514944Y-12853508D01*
X8514944Y-12853508D02*
X8524468Y-12863031D01*
X8524468Y-12863031D02*
X8533991Y-12882079D01*
X8533991Y-12882079D02*
X8543515Y-12920174D01*
X8543515Y-12920174D02*
X8543515Y-12967793D01*
X8543515Y-12967793D02*
X8533991Y-13005888D01*
X8533991Y-13005888D02*
X8524468Y-13024936D01*
X8524468Y-13024936D02*
X8514944Y-13034460D01*
X8514944Y-13034460D02*
X8495896Y-13043984D01*
X8495896Y-13043984D02*
X8476848Y-13043984D01*
X8476848Y-13043984D02*
X8457801Y-13034460D01*
X8457801Y-13034460D02*
X8448277Y-13024936D01*
X8448277Y-13024936D02*
X8438753Y-13005888D01*
X8438753Y-13005888D02*
X8429229Y-12967793D01*
X8429229Y-12967793D02*
X8429229Y-12920174D01*
X8429229Y-12920174D02*
X8438753Y-12882079D01*
X8438753Y-12882079D02*
X8448277Y-12863031D01*
X8448277Y-12863031D02*
X8457801Y-12853508D01*
X8457801Y-12853508D02*
X8476848Y-12843984D01*
X8733991Y-13043984D02*
X8619706Y-13043984D01*
X8676848Y-13043984D02*
X8676848Y-12843984D01*
X8676848Y-12843984D02*
X8657801Y-12872555D01*
X8657801Y-12872555D02*
X8638753Y-12891603D01*
X8638753Y-12891603D02*
X8619706Y-12901127D01*
X8924468Y-13043984D02*
X8810182Y-13043984D01*
X8867325Y-13043984D02*
X8867325Y-12843984D01*
X8867325Y-12843984D02*
X8848277Y-12872555D01*
X8848277Y-12872555D02*
X8829229Y-12891603D01*
X8829229Y-12891603D02*
X8810182Y-12901127D01*
X9038753Y-12929698D02*
X9019706Y-12920174D01*
X9019706Y-12920174D02*
X9010182Y-12910650D01*
X9010182Y-12910650D02*
X9000658Y-12891603D01*
X9000658Y-12891603D02*
X9000658Y-12882079D01*
X9000658Y-12882079D02*
X9010182Y-12863031D01*
X9010182Y-12863031D02*
X9019706Y-12853508D01*
X9019706Y-12853508D02*
X9038753Y-12843984D01*
X9038753Y-12843984D02*
X9076849Y-12843984D01*
X9076849Y-12843984D02*
X9095896Y-12853508D01*
X9095896Y-12853508D02*
X9105420Y-12863031D01*
X9105420Y-12863031D02*
X9114944Y-12882079D01*
X9114944Y-12882079D02*
X9114944Y-12891603D01*
X9114944Y-12891603D02*
X9105420Y-12910650D01*
X9105420Y-12910650D02*
X9095896Y-12920174D01*
X9095896Y-12920174D02*
X9076849Y-12929698D01*
X9076849Y-12929698D02*
X9038753Y-12929698D01*
X9038753Y-12929698D02*
X9019706Y-12939222D01*
X9019706Y-12939222D02*
X9010182Y-12948746D01*
X9010182Y-12948746D02*
X9000658Y-12967793D01*
X9000658Y-12967793D02*
X9000658Y-13005888D01*
X9000658Y-13005888D02*
X9010182Y-13024936D01*
X9010182Y-13024936D02*
X9019706Y-13034460D01*
X9019706Y-13034460D02*
X9038753Y-13043984D01*
X9038753Y-13043984D02*
X9076849Y-13043984D01*
X9076849Y-13043984D02*
X9095896Y-13034460D01*
X9095896Y-13034460D02*
X9105420Y-13024936D01*
X9105420Y-13024936D02*
X9114944Y-13005888D01*
X9114944Y-13005888D02*
X9114944Y-12967793D01*
X9114944Y-12967793D02*
X9105420Y-12948746D01*
X9105420Y-12948746D02*
X9095896Y-12939222D01*
X9095896Y-12939222D02*
X9076849Y-12929698D01*
X9191134Y-12843984D02*
X9191134Y-12882079D01*
X9267325Y-12843984D02*
X9267325Y-12882079D01*
X9562563Y-13120174D02*
X9553039Y-13110650D01*
X9553039Y-13110650D02*
X9533991Y-13082079D01*
X9533991Y-13082079D02*
X9524468Y-13063031D01*
X9524468Y-13063031D02*
X9514944Y-13034460D01*
X9514944Y-13034460D02*
X9505420Y-12986841D01*
X9505420Y-12986841D02*
X9505420Y-12948746D01*
X9505420Y-12948746D02*
X9514944Y-12901127D01*
X9514944Y-12901127D02*
X9524468Y-12872555D01*
X9524468Y-12872555D02*
X9533991Y-12853508D01*
X9533991Y-12853508D02*
X9553039Y-12824936D01*
X9553039Y-12824936D02*
X9562563Y-12815412D01*
X9629230Y-12863031D02*
X9638753Y-12853508D01*
X9638753Y-12853508D02*
X9657801Y-12843984D01*
X9657801Y-12843984D02*
X9705420Y-12843984D01*
X9705420Y-12843984D02*
X9724468Y-12853508D01*
X9724468Y-12853508D02*
X9733991Y-12863031D01*
X9733991Y-12863031D02*
X9743515Y-12882079D01*
X9743515Y-12882079D02*
X9743515Y-12901127D01*
X9743515Y-12901127D02*
X9733991Y-12929698D01*
X9733991Y-12929698D02*
X9619706Y-13043984D01*
X9619706Y-13043984D02*
X9743515Y-13043984D01*
X9933991Y-13043984D02*
X9819706Y-13043984D01*
X9876849Y-13043984D02*
X9876849Y-12843984D01*
X9876849Y-12843984D02*
X9857801Y-12872555D01*
X9857801Y-12872555D02*
X9838753Y-12891603D01*
X9838753Y-12891603D02*
X9819706Y-12901127D01*
X10000658Y-12843984D02*
X10124468Y-12843984D01*
X10124468Y-12843984D02*
X10057801Y-12920174D01*
X10057801Y-12920174D02*
X10086372Y-12920174D01*
X10086372Y-12920174D02*
X10105420Y-12929698D01*
X10105420Y-12929698D02*
X10114944Y-12939222D01*
X10114944Y-12939222D02*
X10124468Y-12958269D01*
X10124468Y-12958269D02*
X10124468Y-13005888D01*
X10124468Y-13005888D02*
X10114944Y-13024936D01*
X10114944Y-13024936D02*
X10105420Y-13034460D01*
X10105420Y-13034460D02*
X10086372Y-13043984D01*
X10086372Y-13043984D02*
X10029230Y-13043984D01*
X10029230Y-13043984D02*
X10010182Y-13034460D01*
X10010182Y-13034460D02*
X10000658Y-13024936D01*
X10362563Y-13043984D02*
X10362563Y-12843984D01*
X10448277Y-13043984D02*
X10448277Y-12939222D01*
X10448277Y-12939222D02*
X10438753Y-12920174D01*
X10438753Y-12920174D02*
X10419706Y-12910650D01*
X10419706Y-12910650D02*
X10391134Y-12910650D01*
X10391134Y-12910650D02*
X10372087Y-12920174D01*
X10372087Y-12920174D02*
X10362563Y-12929698D01*
X10572087Y-13043984D02*
X10553039Y-13034460D01*
X10553039Y-13034460D02*
X10543515Y-13024936D01*
X10543515Y-13024936D02*
X10533992Y-13005888D01*
X10533992Y-13005888D02*
X10533992Y-12948746D01*
X10533992Y-12948746D02*
X10543515Y-12929698D01*
X10543515Y-12929698D02*
X10553039Y-12920174D01*
X10553039Y-12920174D02*
X10572087Y-12910650D01*
X10572087Y-12910650D02*
X10600658Y-12910650D01*
X10600658Y-12910650D02*
X10619706Y-12920174D01*
X10619706Y-12920174D02*
X10629230Y-12929698D01*
X10629230Y-12929698D02*
X10638753Y-12948746D01*
X10638753Y-12948746D02*
X10638753Y-13005888D01*
X10638753Y-13005888D02*
X10629230Y-13024936D01*
X10629230Y-13024936D02*
X10619706Y-13034460D01*
X10619706Y-13034460D02*
X10600658Y-13043984D01*
X10600658Y-13043984D02*
X10572087Y-13043984D01*
X10753039Y-13043984D02*
X10733992Y-13034460D01*
X10733992Y-13034460D02*
X10724468Y-13015412D01*
X10724468Y-13015412D02*
X10724468Y-12843984D01*
X10905420Y-13034460D02*
X10886373Y-13043984D01*
X10886373Y-13043984D02*
X10848277Y-13043984D01*
X10848277Y-13043984D02*
X10829230Y-13034460D01*
X10829230Y-13034460D02*
X10819706Y-13015412D01*
X10819706Y-13015412D02*
X10819706Y-12939222D01*
X10819706Y-12939222D02*
X10829230Y-12920174D01*
X10829230Y-12920174D02*
X10848277Y-12910650D01*
X10848277Y-12910650D02*
X10886373Y-12910650D01*
X10886373Y-12910650D02*
X10905420Y-12920174D01*
X10905420Y-12920174D02*
X10914944Y-12939222D01*
X10914944Y-12939222D02*
X10914944Y-12958269D01*
X10914944Y-12958269D02*
X10819706Y-12977317D01*
X10991134Y-13034460D02*
X11010182Y-13043984D01*
X11010182Y-13043984D02*
X11048277Y-13043984D01*
X11048277Y-13043984D02*
X11067325Y-13034460D01*
X11067325Y-13034460D02*
X11076849Y-13015412D01*
X11076849Y-13015412D02*
X11076849Y-13005888D01*
X11076849Y-13005888D02*
X11067325Y-12986841D01*
X11067325Y-12986841D02*
X11048277Y-12977317D01*
X11048277Y-12977317D02*
X11019706Y-12977317D01*
X11019706Y-12977317D02*
X11000658Y-12967793D01*
X11000658Y-12967793D02*
X10991134Y-12948746D01*
X10991134Y-12948746D02*
X10991134Y-12939222D01*
X10991134Y-12939222D02*
X11000658Y-12920174D01*
X11000658Y-12920174D02*
X11019706Y-12910650D01*
X11019706Y-12910650D02*
X11048277Y-12910650D01*
X11048277Y-12910650D02*
X11067325Y-12920174D01*
X11143515Y-13120174D02*
X11153039Y-13110650D01*
X11153039Y-13110650D02*
X11172087Y-13082079D01*
X11172087Y-13082079D02*
X11181611Y-13063031D01*
X11181611Y-13063031D02*
X11191134Y-13034460D01*
X11191134Y-13034460D02*
X11200658Y-12986841D01*
X11200658Y-12986841D02*
X11200658Y-12948746D01*
X11200658Y-12948746D02*
X11191134Y-12901127D01*
X11191134Y-12901127D02*
X11181611Y-12872555D01*
X11181611Y-12872555D02*
X11172087Y-12853508D01*
X11172087Y-12853508D02*
X11153039Y-12824936D01*
X11153039Y-12824936D02*
X11143515Y-12815412D01*
D12*
X5987500Y-13216500D02*
G75*
G03*
X5987500Y-13216500I-15000J0D01*
G01*
D11*
X6286372Y-13107984D02*
X6305420Y-13107984D01*
X6305420Y-13107984D02*
X6324467Y-13117508D01*
X6324467Y-13117508D02*
X6333991Y-13127031D01*
X6333991Y-13127031D02*
X6343515Y-13146079D01*
X6343515Y-13146079D02*
X6353039Y-13184174D01*
X6353039Y-13184174D02*
X6353039Y-13231793D01*
X6353039Y-13231793D02*
X6343515Y-13269888D01*
X6343515Y-13269888D02*
X6333991Y-13288936D01*
X6333991Y-13288936D02*
X6324467Y-13298460D01*
X6324467Y-13298460D02*
X6305420Y-13307984D01*
X6305420Y-13307984D02*
X6286372Y-13307984D01*
X6286372Y-13307984D02*
X6267324Y-13298460D01*
X6267324Y-13298460D02*
X6257801Y-13288936D01*
X6257801Y-13288936D02*
X6248277Y-13269888D01*
X6248277Y-13269888D02*
X6238753Y-13231793D01*
X6238753Y-13231793D02*
X6238753Y-13184174D01*
X6238753Y-13184174D02*
X6248277Y-13146079D01*
X6248277Y-13146079D02*
X6257801Y-13127031D01*
X6257801Y-13127031D02*
X6267324Y-13117508D01*
X6267324Y-13117508D02*
X6286372Y-13107984D01*
X6438753Y-13288936D02*
X6448277Y-13298460D01*
X6448277Y-13298460D02*
X6438753Y-13307984D01*
X6438753Y-13307984D02*
X6429229Y-13298460D01*
X6429229Y-13298460D02*
X6438753Y-13288936D01*
X6438753Y-13288936D02*
X6438753Y-13307984D01*
X6514943Y-13107984D02*
X6638753Y-13107984D01*
X6638753Y-13107984D02*
X6572086Y-13184174D01*
X6572086Y-13184174D02*
X6600658Y-13184174D01*
X6600658Y-13184174D02*
X6619705Y-13193698D01*
X6619705Y-13193698D02*
X6629229Y-13203222D01*
X6629229Y-13203222D02*
X6638753Y-13222269D01*
X6638753Y-13222269D02*
X6638753Y-13269888D01*
X6638753Y-13269888D02*
X6629229Y-13288936D01*
X6629229Y-13288936D02*
X6619705Y-13298460D01*
X6619705Y-13298460D02*
X6600658Y-13307984D01*
X6600658Y-13307984D02*
X6543515Y-13307984D01*
X6543515Y-13307984D02*
X6524467Y-13298460D01*
X6524467Y-13298460D02*
X6514943Y-13288936D01*
X6762562Y-13107984D02*
X6781610Y-13107984D01*
X6781610Y-13107984D02*
X6800658Y-13117508D01*
X6800658Y-13117508D02*
X6810182Y-13127031D01*
X6810182Y-13127031D02*
X6819705Y-13146079D01*
X6819705Y-13146079D02*
X6829229Y-13184174D01*
X6829229Y-13184174D02*
X6829229Y-13231793D01*
X6829229Y-13231793D02*
X6819705Y-13269888D01*
X6819705Y-13269888D02*
X6810182Y-13288936D01*
X6810182Y-13288936D02*
X6800658Y-13298460D01*
X6800658Y-13298460D02*
X6781610Y-13307984D01*
X6781610Y-13307984D02*
X6762562Y-13307984D01*
X6762562Y-13307984D02*
X6743515Y-13298460D01*
X6743515Y-13298460D02*
X6733991Y-13288936D01*
X6733991Y-13288936D02*
X6724467Y-13269888D01*
X6724467Y-13269888D02*
X6714943Y-13231793D01*
X6714943Y-13231793D02*
X6714943Y-13184174D01*
X6714943Y-13184174D02*
X6724467Y-13146079D01*
X6724467Y-13146079D02*
X6733991Y-13127031D01*
X6733991Y-13127031D02*
X6743515Y-13117508D01*
X6743515Y-13117508D02*
X6762562Y-13107984D01*
X6953039Y-13107984D02*
X6972086Y-13107984D01*
X6972086Y-13107984D02*
X6991134Y-13117508D01*
X6991134Y-13117508D02*
X7000658Y-13127031D01*
X7000658Y-13127031D02*
X7010182Y-13146079D01*
X7010182Y-13146079D02*
X7019705Y-13184174D01*
X7019705Y-13184174D02*
X7019705Y-13231793D01*
X7019705Y-13231793D02*
X7010182Y-13269888D01*
X7010182Y-13269888D02*
X7000658Y-13288936D01*
X7000658Y-13288936D02*
X6991134Y-13298460D01*
X6991134Y-13298460D02*
X6972086Y-13307984D01*
X6972086Y-13307984D02*
X6953039Y-13307984D01*
X6953039Y-13307984D02*
X6933991Y-13298460D01*
X6933991Y-13298460D02*
X6924467Y-13288936D01*
X6924467Y-13288936D02*
X6914943Y-13269888D01*
X6914943Y-13269888D02*
X6905420Y-13231793D01*
X6905420Y-13231793D02*
X6905420Y-13184174D01*
X6905420Y-13184174D02*
X6914943Y-13146079D01*
X6914943Y-13146079D02*
X6924467Y-13127031D01*
X6924467Y-13127031D02*
X6933991Y-13117508D01*
X6933991Y-13117508D02*
X6953039Y-13107984D01*
X7105420Y-13307984D02*
X7105420Y-13174650D01*
X7105420Y-13193698D02*
X7114943Y-13184174D01*
X7114943Y-13184174D02*
X7133991Y-13174650D01*
X7133991Y-13174650D02*
X7162563Y-13174650D01*
X7162563Y-13174650D02*
X7181610Y-13184174D01*
X7181610Y-13184174D02*
X7191134Y-13203222D01*
X7191134Y-13203222D02*
X7191134Y-13307984D01*
X7191134Y-13203222D02*
X7200658Y-13184174D01*
X7200658Y-13184174D02*
X7219705Y-13174650D01*
X7219705Y-13174650D02*
X7248277Y-13174650D01*
X7248277Y-13174650D02*
X7267324Y-13184174D01*
X7267324Y-13184174D02*
X7276848Y-13203222D01*
X7276848Y-13203222D02*
X7276848Y-13307984D01*
X7372086Y-13307984D02*
X7372086Y-13174650D01*
X7372086Y-13193698D02*
X7381610Y-13184174D01*
X7381610Y-13184174D02*
X7400658Y-13174650D01*
X7400658Y-13174650D02*
X7429229Y-13174650D01*
X7429229Y-13174650D02*
X7448277Y-13184174D01*
X7448277Y-13184174D02*
X7457801Y-13203222D01*
X7457801Y-13203222D02*
X7457801Y-13307984D01*
X7457801Y-13203222D02*
X7467324Y-13184174D01*
X7467324Y-13184174D02*
X7486372Y-13174650D01*
X7486372Y-13174650D02*
X7514943Y-13174650D01*
X7514943Y-13174650D02*
X7533991Y-13184174D01*
X7533991Y-13184174D02*
X7543515Y-13203222D01*
X7543515Y-13203222D02*
X7543515Y-13307984D01*
X7933991Y-13098460D02*
X7762563Y-13355603D01*
X8191134Y-13107984D02*
X8210182Y-13107984D01*
X8210182Y-13107984D02*
X8229229Y-13117508D01*
X8229229Y-13117508D02*
X8238753Y-13127031D01*
X8238753Y-13127031D02*
X8248277Y-13146079D01*
X8248277Y-13146079D02*
X8257801Y-13184174D01*
X8257801Y-13184174D02*
X8257801Y-13231793D01*
X8257801Y-13231793D02*
X8248277Y-13269888D01*
X8248277Y-13269888D02*
X8238753Y-13288936D01*
X8238753Y-13288936D02*
X8229229Y-13298460D01*
X8229229Y-13298460D02*
X8210182Y-13307984D01*
X8210182Y-13307984D02*
X8191134Y-13307984D01*
X8191134Y-13307984D02*
X8172086Y-13298460D01*
X8172086Y-13298460D02*
X8162563Y-13288936D01*
X8162563Y-13288936D02*
X8153039Y-13269888D01*
X8153039Y-13269888D02*
X8143515Y-13231793D01*
X8143515Y-13231793D02*
X8143515Y-13184174D01*
X8143515Y-13184174D02*
X8153039Y-13146079D01*
X8153039Y-13146079D02*
X8162563Y-13127031D01*
X8162563Y-13127031D02*
X8172086Y-13117508D01*
X8172086Y-13117508D02*
X8191134Y-13107984D01*
X8343515Y-13288936D02*
X8353039Y-13298460D01*
X8353039Y-13298460D02*
X8343515Y-13307984D01*
X8343515Y-13307984D02*
X8333991Y-13298460D01*
X8333991Y-13298460D02*
X8343515Y-13288936D01*
X8343515Y-13288936D02*
X8343515Y-13307984D01*
X8476848Y-13107984D02*
X8495896Y-13107984D01*
X8495896Y-13107984D02*
X8514944Y-13117508D01*
X8514944Y-13117508D02*
X8524468Y-13127031D01*
X8524468Y-13127031D02*
X8533991Y-13146079D01*
X8533991Y-13146079D02*
X8543515Y-13184174D01*
X8543515Y-13184174D02*
X8543515Y-13231793D01*
X8543515Y-13231793D02*
X8533991Y-13269888D01*
X8533991Y-13269888D02*
X8524468Y-13288936D01*
X8524468Y-13288936D02*
X8514944Y-13298460D01*
X8514944Y-13298460D02*
X8495896Y-13307984D01*
X8495896Y-13307984D02*
X8476848Y-13307984D01*
X8476848Y-13307984D02*
X8457801Y-13298460D01*
X8457801Y-13298460D02*
X8448277Y-13288936D01*
X8448277Y-13288936D02*
X8438753Y-13269888D01*
X8438753Y-13269888D02*
X8429229Y-13231793D01*
X8429229Y-13231793D02*
X8429229Y-13184174D01*
X8429229Y-13184174D02*
X8438753Y-13146079D01*
X8438753Y-13146079D02*
X8448277Y-13127031D01*
X8448277Y-13127031D02*
X8457801Y-13117508D01*
X8457801Y-13117508D02*
X8476848Y-13107984D01*
X8733991Y-13307984D02*
X8619706Y-13307984D01*
X8676848Y-13307984D02*
X8676848Y-13107984D01*
X8676848Y-13107984D02*
X8657801Y-13136555D01*
X8657801Y-13136555D02*
X8638753Y-13155603D01*
X8638753Y-13155603D02*
X8619706Y-13165127D01*
X8924468Y-13307984D02*
X8810182Y-13307984D01*
X8867325Y-13307984D02*
X8867325Y-13107984D01*
X8867325Y-13107984D02*
X8848277Y-13136555D01*
X8848277Y-13136555D02*
X8829229Y-13155603D01*
X8829229Y-13155603D02*
X8810182Y-13165127D01*
X9038753Y-13193698D02*
X9019706Y-13184174D01*
X9019706Y-13184174D02*
X9010182Y-13174650D01*
X9010182Y-13174650D02*
X9000658Y-13155603D01*
X9000658Y-13155603D02*
X9000658Y-13146079D01*
X9000658Y-13146079D02*
X9010182Y-13127031D01*
X9010182Y-13127031D02*
X9019706Y-13117508D01*
X9019706Y-13117508D02*
X9038753Y-13107984D01*
X9038753Y-13107984D02*
X9076849Y-13107984D01*
X9076849Y-13107984D02*
X9095896Y-13117508D01*
X9095896Y-13117508D02*
X9105420Y-13127031D01*
X9105420Y-13127031D02*
X9114944Y-13146079D01*
X9114944Y-13146079D02*
X9114944Y-13155603D01*
X9114944Y-13155603D02*
X9105420Y-13174650D01*
X9105420Y-13174650D02*
X9095896Y-13184174D01*
X9095896Y-13184174D02*
X9076849Y-13193698D01*
X9076849Y-13193698D02*
X9038753Y-13193698D01*
X9038753Y-13193698D02*
X9019706Y-13203222D01*
X9019706Y-13203222D02*
X9010182Y-13212746D01*
X9010182Y-13212746D02*
X9000658Y-13231793D01*
X9000658Y-13231793D02*
X9000658Y-13269888D01*
X9000658Y-13269888D02*
X9010182Y-13288936D01*
X9010182Y-13288936D02*
X9019706Y-13298460D01*
X9019706Y-13298460D02*
X9038753Y-13307984D01*
X9038753Y-13307984D02*
X9076849Y-13307984D01*
X9076849Y-13307984D02*
X9095896Y-13298460D01*
X9095896Y-13298460D02*
X9105420Y-13288936D01*
X9105420Y-13288936D02*
X9114944Y-13269888D01*
X9114944Y-13269888D02*
X9114944Y-13231793D01*
X9114944Y-13231793D02*
X9105420Y-13212746D01*
X9105420Y-13212746D02*
X9095896Y-13203222D01*
X9095896Y-13203222D02*
X9076849Y-13193698D01*
X9191134Y-13107984D02*
X9191134Y-13146079D01*
X9267325Y-13107984D02*
X9267325Y-13146079D01*
X9562563Y-13384174D02*
X9553039Y-13374650D01*
X9553039Y-13374650D02*
X9533991Y-13346079D01*
X9533991Y-13346079D02*
X9524468Y-13327031D01*
X9524468Y-13327031D02*
X9514944Y-13298460D01*
X9514944Y-13298460D02*
X9505420Y-13250841D01*
X9505420Y-13250841D02*
X9505420Y-13212746D01*
X9505420Y-13212746D02*
X9514944Y-13165127D01*
X9514944Y-13165127D02*
X9524468Y-13136555D01*
X9524468Y-13136555D02*
X9533991Y-13117508D01*
X9533991Y-13117508D02*
X9553039Y-13088936D01*
X9553039Y-13088936D02*
X9562563Y-13079412D01*
X9743515Y-13307984D02*
X9629230Y-13307984D01*
X9686372Y-13307984D02*
X9686372Y-13107984D01*
X9686372Y-13107984D02*
X9667325Y-13136555D01*
X9667325Y-13136555D02*
X9648277Y-13155603D01*
X9648277Y-13155603D02*
X9629230Y-13165127D01*
X9819706Y-13127031D02*
X9829230Y-13117508D01*
X9829230Y-13117508D02*
X9848277Y-13107984D01*
X9848277Y-13107984D02*
X9895896Y-13107984D01*
X9895896Y-13107984D02*
X9914944Y-13117508D01*
X9914944Y-13117508D02*
X9924468Y-13127031D01*
X9924468Y-13127031D02*
X9933991Y-13146079D01*
X9933991Y-13146079D02*
X9933991Y-13165127D01*
X9933991Y-13165127D02*
X9924468Y-13193698D01*
X9924468Y-13193698D02*
X9810182Y-13307984D01*
X9810182Y-13307984D02*
X9933991Y-13307984D01*
X10172087Y-13307984D02*
X10172087Y-13107984D01*
X10257801Y-13307984D02*
X10257801Y-13203222D01*
X10257801Y-13203222D02*
X10248277Y-13184174D01*
X10248277Y-13184174D02*
X10229230Y-13174650D01*
X10229230Y-13174650D02*
X10200658Y-13174650D01*
X10200658Y-13174650D02*
X10181611Y-13184174D01*
X10181611Y-13184174D02*
X10172087Y-13193698D01*
X10381611Y-13307984D02*
X10362563Y-13298460D01*
X10362563Y-13298460D02*
X10353039Y-13288936D01*
X10353039Y-13288936D02*
X10343515Y-13269888D01*
X10343515Y-13269888D02*
X10343515Y-13212746D01*
X10343515Y-13212746D02*
X10353039Y-13193698D01*
X10353039Y-13193698D02*
X10362563Y-13184174D01*
X10362563Y-13184174D02*
X10381611Y-13174650D01*
X10381611Y-13174650D02*
X10410182Y-13174650D01*
X10410182Y-13174650D02*
X10429230Y-13184174D01*
X10429230Y-13184174D02*
X10438753Y-13193698D01*
X10438753Y-13193698D02*
X10448277Y-13212746D01*
X10448277Y-13212746D02*
X10448277Y-13269888D01*
X10448277Y-13269888D02*
X10438753Y-13288936D01*
X10438753Y-13288936D02*
X10429230Y-13298460D01*
X10429230Y-13298460D02*
X10410182Y-13307984D01*
X10410182Y-13307984D02*
X10381611Y-13307984D01*
X10562563Y-13307984D02*
X10543515Y-13298460D01*
X10543515Y-13298460D02*
X10533992Y-13279412D01*
X10533992Y-13279412D02*
X10533992Y-13107984D01*
X10714944Y-13298460D02*
X10695896Y-13307984D01*
X10695896Y-13307984D02*
X10657801Y-13307984D01*
X10657801Y-13307984D02*
X10638753Y-13298460D01*
X10638753Y-13298460D02*
X10629230Y-13279412D01*
X10629230Y-13279412D02*
X10629230Y-13203222D01*
X10629230Y-13203222D02*
X10638753Y-13184174D01*
X10638753Y-13184174D02*
X10657801Y-13174650D01*
X10657801Y-13174650D02*
X10695896Y-13174650D01*
X10695896Y-13174650D02*
X10714944Y-13184174D01*
X10714944Y-13184174D02*
X10724468Y-13203222D01*
X10724468Y-13203222D02*
X10724468Y-13222269D01*
X10724468Y-13222269D02*
X10629230Y-13241317D01*
X10800658Y-13298460D02*
X10819706Y-13307984D01*
X10819706Y-13307984D02*
X10857801Y-13307984D01*
X10857801Y-13307984D02*
X10876849Y-13298460D01*
X10876849Y-13298460D02*
X10886373Y-13279412D01*
X10886373Y-13279412D02*
X10886373Y-13269888D01*
X10886373Y-13269888D02*
X10876849Y-13250841D01*
X10876849Y-13250841D02*
X10857801Y-13241317D01*
X10857801Y-13241317D02*
X10829230Y-13241317D01*
X10829230Y-13241317D02*
X10810182Y-13231793D01*
X10810182Y-13231793D02*
X10800658Y-13212746D01*
X10800658Y-13212746D02*
X10800658Y-13203222D01*
X10800658Y-13203222D02*
X10810182Y-13184174D01*
X10810182Y-13184174D02*
X10829230Y-13174650D01*
X10829230Y-13174650D02*
X10857801Y-13174650D01*
X10857801Y-13174650D02*
X10876849Y-13184174D01*
X10953039Y-13384174D02*
X10962563Y-13374650D01*
X10962563Y-13374650D02*
X10981611Y-13346079D01*
X10981611Y-13346079D02*
X10991134Y-13327031D01*
X10991134Y-13327031D02*
X11000658Y-13298460D01*
X11000658Y-13298460D02*
X11010182Y-13250841D01*
X11010182Y-13250841D02*
X11010182Y-13212746D01*
X11010182Y-13212746D02*
X11000658Y-13165127D01*
X11000658Y-13165127D02*
X10991134Y-13136555D01*
X10991134Y-13136555D02*
X10981611Y-13117508D01*
X10981611Y-13117508D02*
X10962563Y-13088936D01*
X10962563Y-13088936D02*
X10953039Y-13079412D01*
D13*
X5942500Y-13435500D02*
X5942500Y-13525500D01*
X5897500Y-13480500D02*
X5987500Y-13480500D01*
D11*
X6286372Y-13371984D02*
X6305420Y-13371984D01*
X6305420Y-13371984D02*
X6324467Y-13381508D01*
X6324467Y-13381508D02*
X6333991Y-13391031D01*
X6333991Y-13391031D02*
X6343515Y-13410079D01*
X6343515Y-13410079D02*
X6353039Y-13448174D01*
X6353039Y-13448174D02*
X6353039Y-13495793D01*
X6353039Y-13495793D02*
X6343515Y-13533888D01*
X6343515Y-13533888D02*
X6333991Y-13552936D01*
X6333991Y-13552936D02*
X6324467Y-13562460D01*
X6324467Y-13562460D02*
X6305420Y-13571984D01*
X6305420Y-13571984D02*
X6286372Y-13571984D01*
X6286372Y-13571984D02*
X6267324Y-13562460D01*
X6267324Y-13562460D02*
X6257801Y-13552936D01*
X6257801Y-13552936D02*
X6248277Y-13533888D01*
X6248277Y-13533888D02*
X6238753Y-13495793D01*
X6238753Y-13495793D02*
X6238753Y-13448174D01*
X6238753Y-13448174D02*
X6248277Y-13410079D01*
X6248277Y-13410079D02*
X6257801Y-13391031D01*
X6257801Y-13391031D02*
X6267324Y-13381508D01*
X6267324Y-13381508D02*
X6286372Y-13371984D01*
X6438753Y-13552936D02*
X6448277Y-13562460D01*
X6448277Y-13562460D02*
X6438753Y-13571984D01*
X6438753Y-13571984D02*
X6429229Y-13562460D01*
X6429229Y-13562460D02*
X6438753Y-13552936D01*
X6438753Y-13552936D02*
X6438753Y-13571984D01*
X6543515Y-13571984D02*
X6581610Y-13571984D01*
X6581610Y-13571984D02*
X6600658Y-13562460D01*
X6600658Y-13562460D02*
X6610182Y-13552936D01*
X6610182Y-13552936D02*
X6629229Y-13524365D01*
X6629229Y-13524365D02*
X6638753Y-13486269D01*
X6638753Y-13486269D02*
X6638753Y-13410079D01*
X6638753Y-13410079D02*
X6629229Y-13391031D01*
X6629229Y-13391031D02*
X6619705Y-13381508D01*
X6619705Y-13381508D02*
X6600658Y-13371984D01*
X6600658Y-13371984D02*
X6562562Y-13371984D01*
X6562562Y-13371984D02*
X6543515Y-13381508D01*
X6543515Y-13381508D02*
X6533991Y-13391031D01*
X6533991Y-13391031D02*
X6524467Y-13410079D01*
X6524467Y-13410079D02*
X6524467Y-13457698D01*
X6524467Y-13457698D02*
X6533991Y-13476746D01*
X6533991Y-13476746D02*
X6543515Y-13486269D01*
X6543515Y-13486269D02*
X6562562Y-13495793D01*
X6562562Y-13495793D02*
X6600658Y-13495793D01*
X6600658Y-13495793D02*
X6619705Y-13486269D01*
X6619705Y-13486269D02*
X6629229Y-13476746D01*
X6629229Y-13476746D02*
X6638753Y-13457698D01*
X6762562Y-13371984D02*
X6781610Y-13371984D01*
X6781610Y-13371984D02*
X6800658Y-13381508D01*
X6800658Y-13381508D02*
X6810182Y-13391031D01*
X6810182Y-13391031D02*
X6819705Y-13410079D01*
X6819705Y-13410079D02*
X6829229Y-13448174D01*
X6829229Y-13448174D02*
X6829229Y-13495793D01*
X6829229Y-13495793D02*
X6819705Y-13533888D01*
X6819705Y-13533888D02*
X6810182Y-13552936D01*
X6810182Y-13552936D02*
X6800658Y-13562460D01*
X6800658Y-13562460D02*
X6781610Y-13571984D01*
X6781610Y-13571984D02*
X6762562Y-13571984D01*
X6762562Y-13571984D02*
X6743515Y-13562460D01*
X6743515Y-13562460D02*
X6733991Y-13552936D01*
X6733991Y-13552936D02*
X6724467Y-13533888D01*
X6724467Y-13533888D02*
X6714943Y-13495793D01*
X6714943Y-13495793D02*
X6714943Y-13448174D01*
X6714943Y-13448174D02*
X6724467Y-13410079D01*
X6724467Y-13410079D02*
X6733991Y-13391031D01*
X6733991Y-13391031D02*
X6743515Y-13381508D01*
X6743515Y-13381508D02*
X6762562Y-13371984D01*
X6953039Y-13371984D02*
X6972086Y-13371984D01*
X6972086Y-13371984D02*
X6991134Y-13381508D01*
X6991134Y-13381508D02*
X7000658Y-13391031D01*
X7000658Y-13391031D02*
X7010182Y-13410079D01*
X7010182Y-13410079D02*
X7019705Y-13448174D01*
X7019705Y-13448174D02*
X7019705Y-13495793D01*
X7019705Y-13495793D02*
X7010182Y-13533888D01*
X7010182Y-13533888D02*
X7000658Y-13552936D01*
X7000658Y-13552936D02*
X6991134Y-13562460D01*
X6991134Y-13562460D02*
X6972086Y-13571984D01*
X6972086Y-13571984D02*
X6953039Y-13571984D01*
X6953039Y-13571984D02*
X6933991Y-13562460D01*
X6933991Y-13562460D02*
X6924467Y-13552936D01*
X6924467Y-13552936D02*
X6914943Y-13533888D01*
X6914943Y-13533888D02*
X6905420Y-13495793D01*
X6905420Y-13495793D02*
X6905420Y-13448174D01*
X6905420Y-13448174D02*
X6914943Y-13410079D01*
X6914943Y-13410079D02*
X6924467Y-13391031D01*
X6924467Y-13391031D02*
X6933991Y-13381508D01*
X6933991Y-13381508D02*
X6953039Y-13371984D01*
X7105420Y-13571984D02*
X7105420Y-13438650D01*
X7105420Y-13457698D02*
X7114943Y-13448174D01*
X7114943Y-13448174D02*
X7133991Y-13438650D01*
X7133991Y-13438650D02*
X7162563Y-13438650D01*
X7162563Y-13438650D02*
X7181610Y-13448174D01*
X7181610Y-13448174D02*
X7191134Y-13467222D01*
X7191134Y-13467222D02*
X7191134Y-13571984D01*
X7191134Y-13467222D02*
X7200658Y-13448174D01*
X7200658Y-13448174D02*
X7219705Y-13438650D01*
X7219705Y-13438650D02*
X7248277Y-13438650D01*
X7248277Y-13438650D02*
X7267324Y-13448174D01*
X7267324Y-13448174D02*
X7276848Y-13467222D01*
X7276848Y-13467222D02*
X7276848Y-13571984D01*
X7372086Y-13571984D02*
X7372086Y-13438650D01*
X7372086Y-13457698D02*
X7381610Y-13448174D01*
X7381610Y-13448174D02*
X7400658Y-13438650D01*
X7400658Y-13438650D02*
X7429229Y-13438650D01*
X7429229Y-13438650D02*
X7448277Y-13448174D01*
X7448277Y-13448174D02*
X7457801Y-13467222D01*
X7457801Y-13467222D02*
X7457801Y-13571984D01*
X7457801Y-13467222D02*
X7467324Y-13448174D01*
X7467324Y-13448174D02*
X7486372Y-13438650D01*
X7486372Y-13438650D02*
X7514943Y-13438650D01*
X7514943Y-13438650D02*
X7533991Y-13448174D01*
X7533991Y-13448174D02*
X7543515Y-13467222D01*
X7543515Y-13467222D02*
X7543515Y-13571984D01*
X7933991Y-13362460D02*
X7762563Y-13619603D01*
X8191134Y-13371984D02*
X8210182Y-13371984D01*
X8210182Y-13371984D02*
X8229229Y-13381508D01*
X8229229Y-13381508D02*
X8238753Y-13391031D01*
X8238753Y-13391031D02*
X8248277Y-13410079D01*
X8248277Y-13410079D02*
X8257801Y-13448174D01*
X8257801Y-13448174D02*
X8257801Y-13495793D01*
X8257801Y-13495793D02*
X8248277Y-13533888D01*
X8248277Y-13533888D02*
X8238753Y-13552936D01*
X8238753Y-13552936D02*
X8229229Y-13562460D01*
X8229229Y-13562460D02*
X8210182Y-13571984D01*
X8210182Y-13571984D02*
X8191134Y-13571984D01*
X8191134Y-13571984D02*
X8172086Y-13562460D01*
X8172086Y-13562460D02*
X8162563Y-13552936D01*
X8162563Y-13552936D02*
X8153039Y-13533888D01*
X8153039Y-13533888D02*
X8143515Y-13495793D01*
X8143515Y-13495793D02*
X8143515Y-13448174D01*
X8143515Y-13448174D02*
X8153039Y-13410079D01*
X8153039Y-13410079D02*
X8162563Y-13391031D01*
X8162563Y-13391031D02*
X8172086Y-13381508D01*
X8172086Y-13381508D02*
X8191134Y-13371984D01*
X8343515Y-13552936D02*
X8353039Y-13562460D01*
X8353039Y-13562460D02*
X8343515Y-13571984D01*
X8343515Y-13571984D02*
X8333991Y-13562460D01*
X8333991Y-13562460D02*
X8343515Y-13552936D01*
X8343515Y-13552936D02*
X8343515Y-13571984D01*
X8476848Y-13371984D02*
X8495896Y-13371984D01*
X8495896Y-13371984D02*
X8514944Y-13381508D01*
X8514944Y-13381508D02*
X8524468Y-13391031D01*
X8524468Y-13391031D02*
X8533991Y-13410079D01*
X8533991Y-13410079D02*
X8543515Y-13448174D01*
X8543515Y-13448174D02*
X8543515Y-13495793D01*
X8543515Y-13495793D02*
X8533991Y-13533888D01*
X8533991Y-13533888D02*
X8524468Y-13552936D01*
X8524468Y-13552936D02*
X8514944Y-13562460D01*
X8514944Y-13562460D02*
X8495896Y-13571984D01*
X8495896Y-13571984D02*
X8476848Y-13571984D01*
X8476848Y-13571984D02*
X8457801Y-13562460D01*
X8457801Y-13562460D02*
X8448277Y-13552936D01*
X8448277Y-13552936D02*
X8438753Y-13533888D01*
X8438753Y-13533888D02*
X8429229Y-13495793D01*
X8429229Y-13495793D02*
X8429229Y-13448174D01*
X8429229Y-13448174D02*
X8438753Y-13410079D01*
X8438753Y-13410079D02*
X8448277Y-13391031D01*
X8448277Y-13391031D02*
X8457801Y-13381508D01*
X8457801Y-13381508D02*
X8476848Y-13371984D01*
X8610182Y-13371984D02*
X8733991Y-13371984D01*
X8733991Y-13371984D02*
X8667325Y-13448174D01*
X8667325Y-13448174D02*
X8695896Y-13448174D01*
X8695896Y-13448174D02*
X8714944Y-13457698D01*
X8714944Y-13457698D02*
X8724468Y-13467222D01*
X8724468Y-13467222D02*
X8733991Y-13486269D01*
X8733991Y-13486269D02*
X8733991Y-13533888D01*
X8733991Y-13533888D02*
X8724468Y-13552936D01*
X8724468Y-13552936D02*
X8714944Y-13562460D01*
X8714944Y-13562460D02*
X8695896Y-13571984D01*
X8695896Y-13571984D02*
X8638753Y-13571984D01*
X8638753Y-13571984D02*
X8619706Y-13562460D01*
X8619706Y-13562460D02*
X8610182Y-13552936D01*
X8914944Y-13371984D02*
X8819706Y-13371984D01*
X8819706Y-13371984D02*
X8810182Y-13467222D01*
X8810182Y-13467222D02*
X8819706Y-13457698D01*
X8819706Y-13457698D02*
X8838753Y-13448174D01*
X8838753Y-13448174D02*
X8886372Y-13448174D01*
X8886372Y-13448174D02*
X8905420Y-13457698D01*
X8905420Y-13457698D02*
X8914944Y-13467222D01*
X8914944Y-13467222D02*
X8924468Y-13486269D01*
X8924468Y-13486269D02*
X8924468Y-13533888D01*
X8924468Y-13533888D02*
X8914944Y-13552936D01*
X8914944Y-13552936D02*
X8905420Y-13562460D01*
X8905420Y-13562460D02*
X8886372Y-13571984D01*
X8886372Y-13571984D02*
X8838753Y-13571984D01*
X8838753Y-13571984D02*
X8819706Y-13562460D01*
X8819706Y-13562460D02*
X8810182Y-13552936D01*
X9095896Y-13438650D02*
X9095896Y-13571984D01*
X9048277Y-13362460D02*
X9000658Y-13505317D01*
X9000658Y-13505317D02*
X9124468Y-13505317D01*
X9191134Y-13371984D02*
X9191134Y-13410079D01*
X9267325Y-13371984D02*
X9267325Y-13410079D01*
X9562563Y-13648174D02*
X9553039Y-13638650D01*
X9553039Y-13638650D02*
X9533991Y-13610079D01*
X9533991Y-13610079D02*
X9524468Y-13591031D01*
X9524468Y-13591031D02*
X9514944Y-13562460D01*
X9514944Y-13562460D02*
X9505420Y-13514841D01*
X9505420Y-13514841D02*
X9505420Y-13476746D01*
X9505420Y-13476746D02*
X9514944Y-13429127D01*
X9514944Y-13429127D02*
X9524468Y-13400555D01*
X9524468Y-13400555D02*
X9533991Y-13381508D01*
X9533991Y-13381508D02*
X9553039Y-13352936D01*
X9553039Y-13352936D02*
X9562563Y-13343412D01*
X9743515Y-13571984D02*
X9629230Y-13571984D01*
X9686372Y-13571984D02*
X9686372Y-13371984D01*
X9686372Y-13371984D02*
X9667325Y-13400555D01*
X9667325Y-13400555D02*
X9648277Y-13419603D01*
X9648277Y-13419603D02*
X9629230Y-13429127D01*
X9914944Y-13371984D02*
X9876849Y-13371984D01*
X9876849Y-13371984D02*
X9857801Y-13381508D01*
X9857801Y-13381508D02*
X9848277Y-13391031D01*
X9848277Y-13391031D02*
X9829230Y-13419603D01*
X9829230Y-13419603D02*
X9819706Y-13457698D01*
X9819706Y-13457698D02*
X9819706Y-13533888D01*
X9819706Y-13533888D02*
X9829230Y-13552936D01*
X9829230Y-13552936D02*
X9838753Y-13562460D01*
X9838753Y-13562460D02*
X9857801Y-13571984D01*
X9857801Y-13571984D02*
X9895896Y-13571984D01*
X9895896Y-13571984D02*
X9914944Y-13562460D01*
X9914944Y-13562460D02*
X9924468Y-13552936D01*
X9924468Y-13552936D02*
X9933991Y-13533888D01*
X9933991Y-13533888D02*
X9933991Y-13486269D01*
X9933991Y-13486269D02*
X9924468Y-13467222D01*
X9924468Y-13467222D02*
X9914944Y-13457698D01*
X9914944Y-13457698D02*
X9895896Y-13448174D01*
X9895896Y-13448174D02*
X9857801Y-13448174D01*
X9857801Y-13448174D02*
X9838753Y-13457698D01*
X9838753Y-13457698D02*
X9829230Y-13467222D01*
X9829230Y-13467222D02*
X9819706Y-13486269D01*
X10172087Y-13571984D02*
X10172087Y-13371984D01*
X10257801Y-13571984D02*
X10257801Y-13467222D01*
X10257801Y-13467222D02*
X10248277Y-13448174D01*
X10248277Y-13448174D02*
X10229230Y-13438650D01*
X10229230Y-13438650D02*
X10200658Y-13438650D01*
X10200658Y-13438650D02*
X10181611Y-13448174D01*
X10181611Y-13448174D02*
X10172087Y-13457698D01*
X10381611Y-13571984D02*
X10362563Y-13562460D01*
X10362563Y-13562460D02*
X10353039Y-13552936D01*
X10353039Y-13552936D02*
X10343515Y-13533888D01*
X10343515Y-13533888D02*
X10343515Y-13476746D01*
X10343515Y-13476746D02*
X10353039Y-13457698D01*
X10353039Y-13457698D02*
X10362563Y-13448174D01*
X10362563Y-13448174D02*
X10381611Y-13438650D01*
X10381611Y-13438650D02*
X10410182Y-13438650D01*
X10410182Y-13438650D02*
X10429230Y-13448174D01*
X10429230Y-13448174D02*
X10438753Y-13457698D01*
X10438753Y-13457698D02*
X10448277Y-13476746D01*
X10448277Y-13476746D02*
X10448277Y-13533888D01*
X10448277Y-13533888D02*
X10438753Y-13552936D01*
X10438753Y-13552936D02*
X10429230Y-13562460D01*
X10429230Y-13562460D02*
X10410182Y-13571984D01*
X10410182Y-13571984D02*
X10381611Y-13571984D01*
X10562563Y-13571984D02*
X10543515Y-13562460D01*
X10543515Y-13562460D02*
X10533992Y-13543412D01*
X10533992Y-13543412D02*
X10533992Y-13371984D01*
X10714944Y-13562460D02*
X10695896Y-13571984D01*
X10695896Y-13571984D02*
X10657801Y-13571984D01*
X10657801Y-13571984D02*
X10638753Y-13562460D01*
X10638753Y-13562460D02*
X10629230Y-13543412D01*
X10629230Y-13543412D02*
X10629230Y-13467222D01*
X10629230Y-13467222D02*
X10638753Y-13448174D01*
X10638753Y-13448174D02*
X10657801Y-13438650D01*
X10657801Y-13438650D02*
X10695896Y-13438650D01*
X10695896Y-13438650D02*
X10714944Y-13448174D01*
X10714944Y-13448174D02*
X10724468Y-13467222D01*
X10724468Y-13467222D02*
X10724468Y-13486269D01*
X10724468Y-13486269D02*
X10629230Y-13505317D01*
X10800658Y-13562460D02*
X10819706Y-13571984D01*
X10819706Y-13571984D02*
X10857801Y-13571984D01*
X10857801Y-13571984D02*
X10876849Y-13562460D01*
X10876849Y-13562460D02*
X10886373Y-13543412D01*
X10886373Y-13543412D02*
X10886373Y-13533888D01*
X10886373Y-13533888D02*
X10876849Y-13514841D01*
X10876849Y-13514841D02*
X10857801Y-13505317D01*
X10857801Y-13505317D02*
X10829230Y-13505317D01*
X10829230Y-13505317D02*
X10810182Y-13495793D01*
X10810182Y-13495793D02*
X10800658Y-13476746D01*
X10800658Y-13476746D02*
X10800658Y-13467222D01*
X10800658Y-13467222D02*
X10810182Y-13448174D01*
X10810182Y-13448174D02*
X10829230Y-13438650D01*
X10829230Y-13438650D02*
X10857801Y-13438650D01*
X10857801Y-13438650D02*
X10876849Y-13448174D01*
X10953039Y-13648174D02*
X10962563Y-13638650D01*
X10962563Y-13638650D02*
X10981611Y-13610079D01*
X10981611Y-13610079D02*
X10991134Y-13591031D01*
X10991134Y-13591031D02*
X11000658Y-13562460D01*
X11000658Y-13562460D02*
X11010182Y-13514841D01*
X11010182Y-13514841D02*
X11010182Y-13476746D01*
X11010182Y-13476746D02*
X11000658Y-13429127D01*
X11000658Y-13429127D02*
X10991134Y-13400555D01*
X10991134Y-13400555D02*
X10981611Y-13381508D01*
X10981611Y-13381508D02*
X10962563Y-13352936D01*
X10962563Y-13352936D02*
X10953039Y-13343412D01*
D14*
X5972856Y-13779856D02*
X5972856Y-13709144D01*
X5902144Y-13709144D01*
X5902144Y-13779856D01*
X5972856Y-13779856D01*
D11*
X6353039Y-13835984D02*
X6238753Y-13835984D01*
X6295896Y-13835984D02*
X6295896Y-13635984D01*
X6295896Y-13635984D02*
X6276848Y-13664555D01*
X6276848Y-13664555D02*
X6257801Y-13683603D01*
X6257801Y-13683603D02*
X6238753Y-13693127D01*
X6438753Y-13816936D02*
X6448277Y-13826460D01*
X6448277Y-13826460D02*
X6438753Y-13835984D01*
X6438753Y-13835984D02*
X6429229Y-13826460D01*
X6429229Y-13826460D02*
X6438753Y-13816936D01*
X6438753Y-13816936D02*
X6438753Y-13835984D01*
X6572086Y-13635984D02*
X6591134Y-13635984D01*
X6591134Y-13635984D02*
X6610182Y-13645508D01*
X6610182Y-13645508D02*
X6619705Y-13655031D01*
X6619705Y-13655031D02*
X6629229Y-13674079D01*
X6629229Y-13674079D02*
X6638753Y-13712174D01*
X6638753Y-13712174D02*
X6638753Y-13759793D01*
X6638753Y-13759793D02*
X6629229Y-13797888D01*
X6629229Y-13797888D02*
X6619705Y-13816936D01*
X6619705Y-13816936D02*
X6610182Y-13826460D01*
X6610182Y-13826460D02*
X6591134Y-13835984D01*
X6591134Y-13835984D02*
X6572086Y-13835984D01*
X6572086Y-13835984D02*
X6553039Y-13826460D01*
X6553039Y-13826460D02*
X6543515Y-13816936D01*
X6543515Y-13816936D02*
X6533991Y-13797888D01*
X6533991Y-13797888D02*
X6524467Y-13759793D01*
X6524467Y-13759793D02*
X6524467Y-13712174D01*
X6524467Y-13712174D02*
X6533991Y-13674079D01*
X6533991Y-13674079D02*
X6543515Y-13655031D01*
X6543515Y-13655031D02*
X6553039Y-13645508D01*
X6553039Y-13645508D02*
X6572086Y-13635984D01*
X6762562Y-13635984D02*
X6781610Y-13635984D01*
X6781610Y-13635984D02*
X6800658Y-13645508D01*
X6800658Y-13645508D02*
X6810182Y-13655031D01*
X6810182Y-13655031D02*
X6819705Y-13674079D01*
X6819705Y-13674079D02*
X6829229Y-13712174D01*
X6829229Y-13712174D02*
X6829229Y-13759793D01*
X6829229Y-13759793D02*
X6819705Y-13797888D01*
X6819705Y-13797888D02*
X6810182Y-13816936D01*
X6810182Y-13816936D02*
X6800658Y-13826460D01*
X6800658Y-13826460D02*
X6781610Y-13835984D01*
X6781610Y-13835984D02*
X6762562Y-13835984D01*
X6762562Y-13835984D02*
X6743515Y-13826460D01*
X6743515Y-13826460D02*
X6733991Y-13816936D01*
X6733991Y-13816936D02*
X6724467Y-13797888D01*
X6724467Y-13797888D02*
X6714943Y-13759793D01*
X6714943Y-13759793D02*
X6714943Y-13712174D01*
X6714943Y-13712174D02*
X6724467Y-13674079D01*
X6724467Y-13674079D02*
X6733991Y-13655031D01*
X6733991Y-13655031D02*
X6743515Y-13645508D01*
X6743515Y-13645508D02*
X6762562Y-13635984D01*
X6953039Y-13635984D02*
X6972086Y-13635984D01*
X6972086Y-13635984D02*
X6991134Y-13645508D01*
X6991134Y-13645508D02*
X7000658Y-13655031D01*
X7000658Y-13655031D02*
X7010182Y-13674079D01*
X7010182Y-13674079D02*
X7019705Y-13712174D01*
X7019705Y-13712174D02*
X7019705Y-13759793D01*
X7019705Y-13759793D02*
X7010182Y-13797888D01*
X7010182Y-13797888D02*
X7000658Y-13816936D01*
X7000658Y-13816936D02*
X6991134Y-13826460D01*
X6991134Y-13826460D02*
X6972086Y-13835984D01*
X6972086Y-13835984D02*
X6953039Y-13835984D01*
X6953039Y-13835984D02*
X6933991Y-13826460D01*
X6933991Y-13826460D02*
X6924467Y-13816936D01*
X6924467Y-13816936D02*
X6914943Y-13797888D01*
X6914943Y-13797888D02*
X6905420Y-13759793D01*
X6905420Y-13759793D02*
X6905420Y-13712174D01*
X6905420Y-13712174D02*
X6914943Y-13674079D01*
X6914943Y-13674079D02*
X6924467Y-13655031D01*
X6924467Y-13655031D02*
X6933991Y-13645508D01*
X6933991Y-13645508D02*
X6953039Y-13635984D01*
X7105420Y-13835984D02*
X7105420Y-13702650D01*
X7105420Y-13721698D02*
X7114943Y-13712174D01*
X7114943Y-13712174D02*
X7133991Y-13702650D01*
X7133991Y-13702650D02*
X7162563Y-13702650D01*
X7162563Y-13702650D02*
X7181610Y-13712174D01*
X7181610Y-13712174D02*
X7191134Y-13731222D01*
X7191134Y-13731222D02*
X7191134Y-13835984D01*
X7191134Y-13731222D02*
X7200658Y-13712174D01*
X7200658Y-13712174D02*
X7219705Y-13702650D01*
X7219705Y-13702650D02*
X7248277Y-13702650D01*
X7248277Y-13702650D02*
X7267324Y-13712174D01*
X7267324Y-13712174D02*
X7276848Y-13731222D01*
X7276848Y-13731222D02*
X7276848Y-13835984D01*
X7372086Y-13835984D02*
X7372086Y-13702650D01*
X7372086Y-13721698D02*
X7381610Y-13712174D01*
X7381610Y-13712174D02*
X7400658Y-13702650D01*
X7400658Y-13702650D02*
X7429229Y-13702650D01*
X7429229Y-13702650D02*
X7448277Y-13712174D01*
X7448277Y-13712174D02*
X7457801Y-13731222D01*
X7457801Y-13731222D02*
X7457801Y-13835984D01*
X7457801Y-13731222D02*
X7467324Y-13712174D01*
X7467324Y-13712174D02*
X7486372Y-13702650D01*
X7486372Y-13702650D02*
X7514943Y-13702650D01*
X7514943Y-13702650D02*
X7533991Y-13712174D01*
X7533991Y-13712174D02*
X7543515Y-13731222D01*
X7543515Y-13731222D02*
X7543515Y-13835984D01*
X7933991Y-13626460D02*
X7762563Y-13883603D01*
X8191134Y-13635984D02*
X8210182Y-13635984D01*
X8210182Y-13635984D02*
X8229229Y-13645508D01*
X8229229Y-13645508D02*
X8238753Y-13655031D01*
X8238753Y-13655031D02*
X8248277Y-13674079D01*
X8248277Y-13674079D02*
X8257801Y-13712174D01*
X8257801Y-13712174D02*
X8257801Y-13759793D01*
X8257801Y-13759793D02*
X8248277Y-13797888D01*
X8248277Y-13797888D02*
X8238753Y-13816936D01*
X8238753Y-13816936D02*
X8229229Y-13826460D01*
X8229229Y-13826460D02*
X8210182Y-13835984D01*
X8210182Y-13835984D02*
X8191134Y-13835984D01*
X8191134Y-13835984D02*
X8172086Y-13826460D01*
X8172086Y-13826460D02*
X8162563Y-13816936D01*
X8162563Y-13816936D02*
X8153039Y-13797888D01*
X8153039Y-13797888D02*
X8143515Y-13759793D01*
X8143515Y-13759793D02*
X8143515Y-13712174D01*
X8143515Y-13712174D02*
X8153039Y-13674079D01*
X8153039Y-13674079D02*
X8162563Y-13655031D01*
X8162563Y-13655031D02*
X8172086Y-13645508D01*
X8172086Y-13645508D02*
X8191134Y-13635984D01*
X8343515Y-13816936D02*
X8353039Y-13826460D01*
X8353039Y-13826460D02*
X8343515Y-13835984D01*
X8343515Y-13835984D02*
X8333991Y-13826460D01*
X8333991Y-13826460D02*
X8343515Y-13816936D01*
X8343515Y-13816936D02*
X8343515Y-13835984D01*
X8476848Y-13635984D02*
X8495896Y-13635984D01*
X8495896Y-13635984D02*
X8514944Y-13645508D01*
X8514944Y-13645508D02*
X8524468Y-13655031D01*
X8524468Y-13655031D02*
X8533991Y-13674079D01*
X8533991Y-13674079D02*
X8543515Y-13712174D01*
X8543515Y-13712174D02*
X8543515Y-13759793D01*
X8543515Y-13759793D02*
X8533991Y-13797888D01*
X8533991Y-13797888D02*
X8524468Y-13816936D01*
X8524468Y-13816936D02*
X8514944Y-13826460D01*
X8514944Y-13826460D02*
X8495896Y-13835984D01*
X8495896Y-13835984D02*
X8476848Y-13835984D01*
X8476848Y-13835984D02*
X8457801Y-13826460D01*
X8457801Y-13826460D02*
X8448277Y-13816936D01*
X8448277Y-13816936D02*
X8438753Y-13797888D01*
X8438753Y-13797888D02*
X8429229Y-13759793D01*
X8429229Y-13759793D02*
X8429229Y-13712174D01*
X8429229Y-13712174D02*
X8438753Y-13674079D01*
X8438753Y-13674079D02*
X8448277Y-13655031D01*
X8448277Y-13655031D02*
X8457801Y-13645508D01*
X8457801Y-13645508D02*
X8476848Y-13635984D01*
X8610182Y-13635984D02*
X8733991Y-13635984D01*
X8733991Y-13635984D02*
X8667325Y-13712174D01*
X8667325Y-13712174D02*
X8695896Y-13712174D01*
X8695896Y-13712174D02*
X8714944Y-13721698D01*
X8714944Y-13721698D02*
X8724468Y-13731222D01*
X8724468Y-13731222D02*
X8733991Y-13750269D01*
X8733991Y-13750269D02*
X8733991Y-13797888D01*
X8733991Y-13797888D02*
X8724468Y-13816936D01*
X8724468Y-13816936D02*
X8714944Y-13826460D01*
X8714944Y-13826460D02*
X8695896Y-13835984D01*
X8695896Y-13835984D02*
X8638753Y-13835984D01*
X8638753Y-13835984D02*
X8619706Y-13826460D01*
X8619706Y-13826460D02*
X8610182Y-13816936D01*
X8829229Y-13835984D02*
X8867325Y-13835984D01*
X8867325Y-13835984D02*
X8886372Y-13826460D01*
X8886372Y-13826460D02*
X8895896Y-13816936D01*
X8895896Y-13816936D02*
X8914944Y-13788365D01*
X8914944Y-13788365D02*
X8924468Y-13750269D01*
X8924468Y-13750269D02*
X8924468Y-13674079D01*
X8924468Y-13674079D02*
X8914944Y-13655031D01*
X8914944Y-13655031D02*
X8905420Y-13645508D01*
X8905420Y-13645508D02*
X8886372Y-13635984D01*
X8886372Y-13635984D02*
X8848277Y-13635984D01*
X8848277Y-13635984D02*
X8829229Y-13645508D01*
X8829229Y-13645508D02*
X8819706Y-13655031D01*
X8819706Y-13655031D02*
X8810182Y-13674079D01*
X8810182Y-13674079D02*
X8810182Y-13721698D01*
X8810182Y-13721698D02*
X8819706Y-13740746D01*
X8819706Y-13740746D02*
X8829229Y-13750269D01*
X8829229Y-13750269D02*
X8848277Y-13759793D01*
X8848277Y-13759793D02*
X8886372Y-13759793D01*
X8886372Y-13759793D02*
X8905420Y-13750269D01*
X8905420Y-13750269D02*
X8914944Y-13740746D01*
X8914944Y-13740746D02*
X8924468Y-13721698D01*
X9095896Y-13702650D02*
X9095896Y-13835984D01*
X9048277Y-13626460D02*
X9000658Y-13769317D01*
X9000658Y-13769317D02*
X9124468Y-13769317D01*
X9191134Y-13635984D02*
X9191134Y-13674079D01*
X9267325Y-13635984D02*
X9267325Y-13674079D01*
X9562563Y-13912174D02*
X9553039Y-13902650D01*
X9553039Y-13902650D02*
X9533991Y-13874079D01*
X9533991Y-13874079D02*
X9524468Y-13855031D01*
X9524468Y-13855031D02*
X9514944Y-13826460D01*
X9514944Y-13826460D02*
X9505420Y-13778841D01*
X9505420Y-13778841D02*
X9505420Y-13740746D01*
X9505420Y-13740746D02*
X9514944Y-13693127D01*
X9514944Y-13693127D02*
X9524468Y-13664555D01*
X9524468Y-13664555D02*
X9533991Y-13645508D01*
X9533991Y-13645508D02*
X9553039Y-13616936D01*
X9553039Y-13616936D02*
X9562563Y-13607412D01*
X9743515Y-13835984D02*
X9629230Y-13835984D01*
X9686372Y-13835984D02*
X9686372Y-13635984D01*
X9686372Y-13635984D02*
X9667325Y-13664555D01*
X9667325Y-13664555D02*
X9648277Y-13683603D01*
X9648277Y-13683603D02*
X9629230Y-13693127D01*
X9933991Y-13835984D02*
X9819706Y-13835984D01*
X9876849Y-13835984D02*
X9876849Y-13635984D01*
X9876849Y-13635984D02*
X9857801Y-13664555D01*
X9857801Y-13664555D02*
X9838753Y-13683603D01*
X9838753Y-13683603D02*
X9819706Y-13693127D01*
X10172087Y-13835984D02*
X10172087Y-13635984D01*
X10257801Y-13835984D02*
X10257801Y-13731222D01*
X10257801Y-13731222D02*
X10248277Y-13712174D01*
X10248277Y-13712174D02*
X10229230Y-13702650D01*
X10229230Y-13702650D02*
X10200658Y-13702650D01*
X10200658Y-13702650D02*
X10181611Y-13712174D01*
X10181611Y-13712174D02*
X10172087Y-13721698D01*
X10381611Y-13835984D02*
X10362563Y-13826460D01*
X10362563Y-13826460D02*
X10353039Y-13816936D01*
X10353039Y-13816936D02*
X10343515Y-13797888D01*
X10343515Y-13797888D02*
X10343515Y-13740746D01*
X10343515Y-13740746D02*
X10353039Y-13721698D01*
X10353039Y-13721698D02*
X10362563Y-13712174D01*
X10362563Y-13712174D02*
X10381611Y-13702650D01*
X10381611Y-13702650D02*
X10410182Y-13702650D01*
X10410182Y-13702650D02*
X10429230Y-13712174D01*
X10429230Y-13712174D02*
X10438753Y-13721698D01*
X10438753Y-13721698D02*
X10448277Y-13740746D01*
X10448277Y-13740746D02*
X10448277Y-13797888D01*
X10448277Y-13797888D02*
X10438753Y-13816936D01*
X10438753Y-13816936D02*
X10429230Y-13826460D01*
X10429230Y-13826460D02*
X10410182Y-13835984D01*
X10410182Y-13835984D02*
X10381611Y-13835984D01*
X10562563Y-13835984D02*
X10543515Y-13826460D01*
X10543515Y-13826460D02*
X10533992Y-13807412D01*
X10533992Y-13807412D02*
X10533992Y-13635984D01*
X10714944Y-13826460D02*
X10695896Y-13835984D01*
X10695896Y-13835984D02*
X10657801Y-13835984D01*
X10657801Y-13835984D02*
X10638753Y-13826460D01*
X10638753Y-13826460D02*
X10629230Y-13807412D01*
X10629230Y-13807412D02*
X10629230Y-13731222D01*
X10629230Y-13731222D02*
X10638753Y-13712174D01*
X10638753Y-13712174D02*
X10657801Y-13702650D01*
X10657801Y-13702650D02*
X10695896Y-13702650D01*
X10695896Y-13702650D02*
X10714944Y-13712174D01*
X10714944Y-13712174D02*
X10724468Y-13731222D01*
X10724468Y-13731222D02*
X10724468Y-13750269D01*
X10724468Y-13750269D02*
X10629230Y-13769317D01*
X10800658Y-13826460D02*
X10819706Y-13835984D01*
X10819706Y-13835984D02*
X10857801Y-13835984D01*
X10857801Y-13835984D02*
X10876849Y-13826460D01*
X10876849Y-13826460D02*
X10886373Y-13807412D01*
X10886373Y-13807412D02*
X10886373Y-13797888D01*
X10886373Y-13797888D02*
X10876849Y-13778841D01*
X10876849Y-13778841D02*
X10857801Y-13769317D01*
X10857801Y-13769317D02*
X10829230Y-13769317D01*
X10829230Y-13769317D02*
X10810182Y-13759793D01*
X10810182Y-13759793D02*
X10800658Y-13740746D01*
X10800658Y-13740746D02*
X10800658Y-13731222D01*
X10800658Y-13731222D02*
X10810182Y-13712174D01*
X10810182Y-13712174D02*
X10829230Y-13702650D01*
X10829230Y-13702650D02*
X10857801Y-13702650D01*
X10857801Y-13702650D02*
X10876849Y-13712174D01*
X10953039Y-13912174D02*
X10962563Y-13902650D01*
X10962563Y-13902650D02*
X10981611Y-13874079D01*
X10981611Y-13874079D02*
X10991134Y-13855031D01*
X10991134Y-13855031D02*
X11000658Y-13826460D01*
X11000658Y-13826460D02*
X11010182Y-13778841D01*
X11010182Y-13778841D02*
X11010182Y-13740746D01*
X11010182Y-13740746D02*
X11000658Y-13693127D01*
X11000658Y-13693127D02*
X10991134Y-13664555D01*
X10991134Y-13664555D02*
X10981611Y-13645508D01*
X10981611Y-13645508D02*
X10962563Y-13616936D01*
X10962563Y-13616936D02*
X10953039Y-13607412D01*
M02*
