M48
; DRILL file {KiCad 7.0.5} date Fri Jan 12 07:50:17 2024
; FORMAT={-:-/ absolute / metric / decimal}
; #@! TF.CreationDate,2024-01-12T07:50:17+09:00
; #@! TF.GenerationSoftware,Kicad,Pcbnew,7.0.5
; #@! TF.FileFunction,Plated,1,4,PTH
FMAT,2
METRIC
; #@! TA.AperFunction,Plated,PTH,ViaDrill
T1C0.300
; #@! TA.AperFunction,Plated,PTH,ComponentDrill
T2C0.300
; #@! TA.AperFunction,Plated,PTH,ComponentDrill
T3C0.900
; #@! TA.AperFunction,Plated,PTH,ComponentDrill
T4C1.000
%
G90
G05
T1
X60.7Y-98.4
X60.7Y-101.6
X60.9Y-102.5
X62.3Y-96.6
X62.9Y-100.4
X63.3Y-96.5
X64.1Y-102.5
X74.6Y-90.0
X74.6Y-110.0
X74.95Y-100.8
X75.0Y-97.7
X75.9Y-100.8
X75.95Y-97.7
X82.0Y-115.5
X83.1Y-77.75
X83.1Y-122.25
X84.0Y-114.45
X84.05Y-85.55
X84.95Y-114.45
X85.0Y-85.55
X86.3Y-77.75
X86.3Y-122.25
X92.0Y-97.0
X92.0Y-98.0
X92.0Y-99.0
X92.0Y-100.0
X92.0Y-101.0
X93.0Y-97.0
X93.0Y-98.0
X93.0Y-99.0
X93.0Y-100.0
X93.0Y-101.0
X94.0Y-86.0
X94.0Y-87.0
X94.0Y-88.0
X94.0Y-89.0
X94.0Y-97.0
X94.0Y-98.0
X94.0Y-99.0
X94.0Y-100.0
X94.0Y-101.0
X94.0Y-111.0
X94.0Y-112.0
X94.0Y-113.0
X94.0Y-114.0
X95.0Y-86.0
X95.0Y-87.0
X95.0Y-88.0
X95.0Y-89.0
X95.0Y-97.0
X95.0Y-98.0
X95.0Y-99.0
X95.0Y-100.0
X95.0Y-101.0
X95.0Y-111.0
X95.0Y-112.0
X95.0Y-113.0
X95.0Y-114.0
X96.0Y-86.0
X96.0Y-87.0
X96.0Y-88.0
X96.0Y-89.0
X96.0Y-97.0
X96.0Y-98.0
X96.0Y-99.0
X96.0Y-100.0
X96.0Y-101.0
X96.0Y-111.0
X96.0Y-112.0
X96.0Y-113.0
X96.0Y-114.0
X96.9Y-90.4
X97.0Y-86.0
X97.0Y-87.0
X97.0Y-88.0
X97.0Y-89.0
X97.0Y-97.0
X97.0Y-98.0
X97.0Y-99.0
X97.0Y-100.0
X97.0Y-101.0
X97.0Y-111.0
X97.0Y-112.0
X97.0Y-113.0
X97.0Y-114.0
X97.1Y-94.3
X98.0Y-86.0
X98.0Y-87.0
X98.0Y-88.0
X98.0Y-89.0
X98.0Y-97.0
X98.0Y-98.0
X98.0Y-99.0
X98.0Y-100.0
X98.0Y-101.0
X98.0Y-111.0
X98.0Y-112.0
X98.0Y-113.0
X98.0Y-114.0
X99.0Y-86.0
X99.0Y-87.0
X99.0Y-88.0
X99.0Y-89.0
X99.0Y-97.0
X99.0Y-98.0
X99.0Y-99.0
X99.0Y-100.0
X99.0Y-101.0
X99.0Y-111.0
X99.0Y-112.0
X99.0Y-113.0
X99.0Y-114.0
X100.0Y-86.0
X100.0Y-97.0
X100.0Y-98.0
X100.0Y-99.0
X100.0Y-100.0
X100.0Y-101.0
X100.0Y-114.0
X100.3Y-88.75
X100.3Y-89.7
X100.65Y-109.45
X100.65Y-110.4
X101.0Y-86.0
X101.0Y-97.0
X101.0Y-98.0
X101.0Y-99.0
X101.0Y-100.0
X101.0Y-101.0
X101.0Y-114.0
X101.25Y-88.75
X101.25Y-89.7
X101.6Y-109.45
X101.6Y-110.4
X102.0Y-86.0
X102.0Y-114.0
X103.0Y-86.0
X103.0Y-114.0
X109.9Y-102.4
X110.1Y-90.3
X110.3Y-103.6
X110.3Y-109.9
X111.05Y-102.75
X111.5Y-89.3
X111.6Y-90.2
X113.5Y-104.3
X114.0Y-86.65
X114.0Y-87.6
X114.0Y-110.0
X114.95Y-86.65
X114.95Y-87.6
X115.05Y-111.25
X115.1Y-105.8
X115.3Y-101.4
X115.4Y-94.7
X115.4Y-97.7
X116.25Y-111.25
X116.5Y-90.1
X116.5Y-91.05
X116.5Y-94.7
X116.5Y-97.7
X116.7Y-99.35
X116.7Y-100.95
X117.4Y-112.3
X117.4Y-113.9
X117.45Y-90.1
X117.45Y-91.05
X118.05Y-97.4
X119.2Y-96.25
X119.8Y-110.0
X120.05Y-90.1
X120.05Y-91.05
X120.1Y-93.2
X120.4Y-108.3
X121.0Y-90.1
X121.0Y-91.05
X121.25Y-93.5
X121.5Y-109.4
X122.2Y-104.1
X122.25Y-93.5
X122.65Y-116.25
X123.25Y-104.25
X123.9Y-116.25
X124.1Y-94.25
X124.2Y-87.75
X124.2Y-88.7
X124.7Y-102.4
X125.35Y-109.3
X125.498Y-104.4
X125.6Y-101.1
X125.8Y-95.0
X126.3Y-101.75
X126.5Y-100.25
X127.0Y-102.5
X127.85Y-113.85
X127.95Y-92.15
X127.95Y-93.1
X128.0Y-101.5
X128.0Y-102.5
X128.25Y-107.05
X128.75Y-98.0
X128.85Y-95.9
X128.85Y-96.85
X128.9Y-92.15
X128.9Y-93.1
X129.5Y-98.75
X129.5Y-104.2
X129.8Y-95.9
X129.8Y-96.85
X131.55Y-89.55
X131.55Y-90.5
X132.5Y-89.55
X132.5Y-90.5
T2
X104.95Y-89.45
X105.05Y-110.55
X106.15Y-89.45
X106.55Y-110.55
X107.55Y-89.45
X107.95Y-110.55
X109.05Y-89.45
X109.15Y-110.55
X121.5Y-88.1
X122.5Y-88.1
X125.5Y-88.1
X126.5Y-88.1
T3
X67.061Y-98.872
X67.061Y-101.128
X68.945Y-97.168
X68.945Y-102.832
X73.139Y-96.43
X73.139Y-103.57
X74.927Y-94.626
X74.927Y-105.374
X78.53Y-87.876
X78.53Y-112.124
X78.949Y-85.371
X78.949Y-114.629
X84.563Y-82.863
X84.563Y-117.137
X84.922Y-80.349
X84.922Y-119.651
T4
X104.69Y-93.65
X104.69Y-98.73
X104.69Y-101.27
X104.69Y-103.81
X104.69Y-106.35
X112.31Y-93.65
X112.31Y-96.19
X112.31Y-98.73
X112.31Y-101.27
X116.6Y-83.75
X116.6Y-86.25
T0
M30
