G04 #@! TF.GenerationSoftware,KiCad,Pcbnew,7.0.5*
G04 #@! TF.CreationDate,2024-01-12T07:50:16+09:00*
G04 #@! TF.ProjectId,uglyBob,75676c79-426f-4622-9e6b-696361645f70,rev?*
G04 #@! TF.SameCoordinates,Original*
G04 #@! TF.FileFunction,Copper,L2,Inr*
G04 #@! TF.FilePolarity,Positive*
%FSLAX46Y46*%
G04 Gerber Fmt 4.6, Leading zero omitted, Abs format (unit mm)*
G04 Created by KiCad (PCBNEW 7.0.5) date 2024-01-12 07:50:16*
%MOMM*%
%LPD*%
G01*
G04 APERTURE LIST*
G04 Aperture macros list*
%AMRoundRect*
0 Rectangle with rounded corners*
0 $1 Rounding radius*
0 $2 $3 $4 $5 $6 $7 $8 $9 X,Y pos of 4 corners*
0 Add a 4 corners polygon primitive as box body*
4,1,4,$2,$3,$4,$5,$6,$7,$8,$9,$2,$3,0*
0 Add four circle primitives for the rounded corners*
1,1,$1+$1,$2,$3*
1,1,$1+$1,$4,$5*
1,1,$1+$1,$6,$7*
1,1,$1+$1,$8,$9*
0 Add four rect primitives between the rounded corners*
20,1,$1+$1,$2,$3,$4,$5,0*
20,1,$1+$1,$4,$5,$6,$7,0*
20,1,$1+$1,$6,$7,$8,$9,0*
20,1,$1+$1,$8,$9,$2,$3,0*%
G04 Aperture macros list end*
G04 #@! TA.AperFunction,ComponentPad*
%ADD10C,0.600000*%
G04 #@! TD*
G04 #@! TA.AperFunction,ComponentPad*
%ADD11RoundRect,0.037500X-0.712500X0.712500X-0.712500X-0.712500X0.712500X-0.712500X0.712500X0.712500X0*%
G04 #@! TD*
G04 #@! TA.AperFunction,ComponentPad*
%ADD12C,1.500000*%
G04 #@! TD*
G04 #@! TA.AperFunction,ComponentPad*
%ADD13C,1.400000*%
G04 #@! TD*
G04 #@! TA.AperFunction,ViaPad*
%ADD14C,0.600000*%
G04 #@! TD*
G04 #@! TA.AperFunction,Conductor*
%ADD15C,0.150000*%
G04 #@! TD*
G04 APERTURE END LIST*
D10*
X104950000Y-89450000D03*
X106150000Y-89450000D03*
X107550000Y-89450000D03*
X109050000Y-89450000D03*
D11*
X116600000Y-83750000D03*
D12*
X116600000Y-86250000D03*
D13*
X78530148Y-112123649D03*
X78949288Y-114628827D03*
X78530148Y-87876351D03*
X78949288Y-85371173D03*
X73138532Y-103570056D03*
X74926740Y-105373916D03*
X73138532Y-96429944D03*
X74926740Y-94626084D03*
D10*
X126500000Y-88100000D03*
X125500000Y-88100000D03*
X122500000Y-88100000D03*
X121500000Y-88100000D03*
D12*
X112310000Y-101270000D03*
X112310000Y-98730000D03*
X112310000Y-96190000D03*
X112310000Y-93650000D03*
X104690000Y-93650000D03*
X104690000Y-98730000D03*
X104690000Y-101270000D03*
X104690000Y-103810000D03*
X104690000Y-106350000D03*
D13*
X84562532Y-117136564D03*
X84922342Y-119650950D03*
X84562532Y-82863436D03*
X84922342Y-80349050D03*
X68944963Y-102832197D03*
X67061305Y-101128251D03*
X68944963Y-97167803D03*
X67061305Y-98871749D03*
D10*
X109150000Y-110550000D03*
X107950000Y-110550000D03*
X106550000Y-110550000D03*
X105050000Y-110550000D03*
D14*
X116500000Y-90100000D03*
X116500000Y-91050000D03*
X117450000Y-90100000D03*
X118050000Y-97400000D03*
X115400000Y-97700000D03*
X116500000Y-97700000D03*
X117450000Y-91050000D03*
X99000000Y-97000000D03*
X93000000Y-98000000D03*
X100000000Y-101000000D03*
X95000000Y-97000000D03*
X92000000Y-97000000D03*
X74600000Y-90000000D03*
X95000000Y-99000000D03*
X98000000Y-101000000D03*
X97000000Y-100000000D03*
X121000000Y-90100000D03*
X92000000Y-99000000D03*
X95000000Y-100000000D03*
X100000000Y-99000000D03*
X120050000Y-90100000D03*
X99000000Y-98000000D03*
X96000000Y-100000000D03*
X98000000Y-98000000D03*
X95000000Y-101000000D03*
X100000000Y-98000000D03*
X97000000Y-101000000D03*
X95000000Y-98000000D03*
X97000000Y-99000000D03*
X92000000Y-101000000D03*
X115400000Y-94700000D03*
X93000000Y-100000000D03*
X96000000Y-97000000D03*
X101000000Y-100000000D03*
X121000000Y-91050000D03*
X82000000Y-115500000D03*
X94000000Y-97000000D03*
X99000000Y-101000000D03*
X98000000Y-100000000D03*
X99000000Y-99000000D03*
X93000000Y-101000000D03*
X101000000Y-99000000D03*
X101000000Y-98000000D03*
X97000000Y-97000000D03*
X94000000Y-98000000D03*
X100000000Y-100000000D03*
X116500000Y-94700000D03*
X97000000Y-98000000D03*
X96000000Y-99000000D03*
X100000000Y-97000000D03*
X101000000Y-97000000D03*
X92000000Y-100000000D03*
X96000000Y-101000000D03*
X92000000Y-98000000D03*
X93000000Y-99000000D03*
X93000000Y-97000000D03*
X96000000Y-98000000D03*
X94000000Y-100000000D03*
X99000000Y-100000000D03*
X98000000Y-97000000D03*
X120050000Y-91050000D03*
X94000000Y-99000000D03*
X74600000Y-110000000D03*
X98000000Y-99000000D03*
X101000000Y-101000000D03*
X94000000Y-101000000D03*
X119200000Y-96250000D03*
X101600000Y-109450000D03*
X101250000Y-89700000D03*
X100650000Y-110400000D03*
X131550000Y-89550000D03*
X101600000Y-110400000D03*
X131550000Y-90500000D03*
X114950000Y-87600000D03*
X114000000Y-87600000D03*
X100300000Y-89700000D03*
X100650000Y-109450000D03*
X114950000Y-86650000D03*
X132500000Y-90500000D03*
X101250000Y-88750000D03*
X132500000Y-89550000D03*
X100300000Y-88750000D03*
X114000000Y-86650000D03*
X117400000Y-113900000D03*
X94000000Y-88000000D03*
X96000000Y-86000000D03*
X101000000Y-114000000D03*
X123900000Y-116250000D03*
X95000000Y-112000000D03*
X99000000Y-88000000D03*
X98000000Y-86000000D03*
X95000000Y-86000000D03*
X95000000Y-114000000D03*
X97000000Y-88000000D03*
X96000000Y-88000000D03*
X127000000Y-102500000D03*
X98000000Y-111000000D03*
X96000000Y-114000000D03*
X64100000Y-102500000D03*
X127950000Y-93100000D03*
X97000000Y-114000000D03*
X99000000Y-89000000D03*
X103000000Y-114000000D03*
X98000000Y-114000000D03*
X94000000Y-89000000D03*
X75000000Y-97700000D03*
X127950000Y-92150000D03*
X96000000Y-89000000D03*
X103000000Y-86000000D03*
X94000000Y-112000000D03*
X74950000Y-100800000D03*
X128900000Y-92150000D03*
X98000000Y-87000000D03*
X97000000Y-86000000D03*
X75950000Y-97700000D03*
X98000000Y-113000000D03*
X97000000Y-113000000D03*
X99000000Y-114000000D03*
X99000000Y-87000000D03*
X124200000Y-87750000D03*
X94000000Y-111000000D03*
X125800000Y-95000000D03*
X94000000Y-86000000D03*
X84050000Y-85550000D03*
X114000000Y-110000000D03*
X96000000Y-112000000D03*
X95000000Y-87000000D03*
X97000000Y-89000000D03*
X101000000Y-86000000D03*
X94000000Y-114000000D03*
X99000000Y-112000000D03*
X83100000Y-77750000D03*
X117400000Y-112300000D03*
X100000000Y-86000000D03*
X84950000Y-114450000D03*
X102000000Y-86000000D03*
X96000000Y-87000000D03*
X94000000Y-87000000D03*
X95000000Y-113000000D03*
X124200000Y-88700000D03*
X127850000Y-113850000D03*
X97000000Y-87000000D03*
X120400000Y-108300000D03*
X122650000Y-116250000D03*
X97000000Y-111000000D03*
X98000000Y-89000000D03*
X62300000Y-96600000D03*
X128900000Y-93100000D03*
X75900000Y-100800000D03*
X100000000Y-114000000D03*
X94000000Y-113000000D03*
X102000000Y-114000000D03*
X95000000Y-111000000D03*
X98000000Y-88000000D03*
X95000000Y-89000000D03*
X96000000Y-111000000D03*
X60700000Y-101600000D03*
X84000000Y-114450000D03*
X96000000Y-113000000D03*
X97000000Y-112000000D03*
X99000000Y-111000000D03*
X85000000Y-85550000D03*
X95000000Y-88000000D03*
X129500000Y-104200000D03*
X98000000Y-112000000D03*
X116700000Y-99350000D03*
X99000000Y-113000000D03*
X99000000Y-86000000D03*
X83100000Y-122250000D03*
X129800000Y-96850000D03*
X128850000Y-95900000D03*
X121500000Y-109400000D03*
X128850000Y-96850000D03*
X116700000Y-100950000D03*
X60900000Y-102500000D03*
X86300000Y-122250000D03*
X125350000Y-109300000D03*
X128250000Y-107050000D03*
X60700000Y-98400000D03*
X62900000Y-100400000D03*
X119800000Y-110000000D03*
X63300000Y-96500000D03*
X128000000Y-102500000D03*
X128000000Y-101500000D03*
X129800000Y-95900000D03*
X86300000Y-77750000D03*
X124100000Y-94250000D03*
X115100000Y-105800000D03*
X113500000Y-104300000D03*
X97100000Y-94300000D03*
X96900000Y-90400000D03*
X109900000Y-102400000D03*
X124700000Y-102400000D03*
X126300000Y-101750000D03*
X111050000Y-102750000D03*
X128750000Y-98000000D03*
X126500000Y-100250000D03*
X115050000Y-111250000D03*
X122200000Y-104100000D03*
X116250000Y-111250000D03*
X123250000Y-104250000D03*
X111500000Y-89300000D03*
X122250000Y-93500000D03*
X111600000Y-90200000D03*
X121250000Y-93500000D03*
X120100000Y-93200000D03*
X110100000Y-90300000D03*
X110300000Y-109900000D03*
X125498500Y-104400000D03*
X110300000Y-103600000D03*
X125600000Y-101100000D03*
X115300000Y-101400000D03*
X129500000Y-98750000D03*
D15*
X113500000Y-104300000D02*
X115000000Y-105800000D01*
X115000000Y-105800000D02*
X115100000Y-105800000D01*
X97000000Y-90500000D02*
X97000000Y-94200000D01*
X97000000Y-94200000D02*
X97100000Y-94300000D01*
X96900000Y-90400000D02*
X97000000Y-90500000D01*
X110900000Y-103400000D02*
X109900000Y-102400000D01*
X123350000Y-102150000D02*
X121250000Y-102150000D01*
X123600000Y-102400000D02*
X123350000Y-102150000D01*
X121250000Y-102150000D02*
X120000000Y-103400000D01*
X120000000Y-103400000D02*
X110900000Y-103400000D01*
X124700000Y-102400000D02*
X123600000Y-102400000D01*
X121050000Y-101850000D02*
X119800000Y-103100000D01*
X126300000Y-101750000D02*
X123450000Y-101750000D01*
X123350000Y-101850000D02*
X121050000Y-101850000D01*
X123450000Y-101750000D02*
X123350000Y-101850000D01*
X111400000Y-103100000D02*
X111050000Y-102750000D01*
X119800000Y-103100000D02*
X111400000Y-103100000D01*
X119236295Y-93250000D02*
X112710000Y-93250000D01*
X112710000Y-93250000D02*
X112310000Y-93650000D01*
X128750000Y-98000000D02*
X123986295Y-98000000D01*
X123986295Y-98000000D02*
X119236295Y-93250000D01*
X114620000Y-98500000D02*
X112310000Y-96190000D01*
X126500000Y-100250000D02*
X118500000Y-100250000D01*
X118500000Y-100250000D02*
X116750000Y-98500000D01*
X116750000Y-98500000D02*
X114620000Y-98500000D01*
X122200000Y-104100000D02*
X115050000Y-111250000D01*
X116250000Y-111250000D02*
X123250000Y-104250000D01*
X120450000Y-91700000D02*
X119000000Y-91700000D01*
X119000000Y-89300000D02*
X111500000Y-89300000D01*
X119000000Y-91700000D02*
X119000000Y-89300000D01*
X122250000Y-93500000D02*
X120450000Y-91700000D01*
X120000000Y-92250000D02*
X116550000Y-92250000D01*
X121250000Y-93500000D02*
X120000000Y-92250000D01*
X116550000Y-92250000D02*
X114800000Y-90500000D01*
X114800000Y-90500000D02*
X111900000Y-90500000D01*
X111900000Y-90500000D02*
X111600000Y-90200000D01*
X120100000Y-93200000D02*
X119650000Y-92750000D01*
X106710000Y-88900000D02*
X106150000Y-89460000D01*
X111600000Y-91000000D02*
X109500000Y-88900000D01*
X109500000Y-88900000D02*
X106710000Y-88900000D01*
X116450000Y-92750000D02*
X114700000Y-91000000D01*
X114700000Y-91000000D02*
X111600000Y-91000000D01*
X119650000Y-92750000D02*
X116450000Y-92750000D01*
X105490000Y-90000000D02*
X104950000Y-89460000D01*
X109800000Y-90000000D02*
X105490000Y-90000000D01*
X110100000Y-90300000D02*
X109800000Y-90000000D01*
X110300000Y-110450000D02*
X109500000Y-111250000D01*
X110300000Y-109900000D02*
X110300000Y-110450000D01*
X109500000Y-111250000D02*
X108660000Y-111250000D01*
X108660000Y-111250000D02*
X107950000Y-110540000D01*
X125000000Y-104400000D02*
X123050000Y-102450000D01*
X125498500Y-104400000D02*
X125000000Y-104400000D01*
X123050000Y-102450000D02*
X121450000Y-102450000D01*
X121450000Y-102450000D02*
X120200000Y-103700000D01*
X110400000Y-103700000D02*
X110300000Y-103600000D01*
X120200000Y-103700000D02*
X110400000Y-103700000D01*
X123600000Y-101100000D02*
X123150000Y-101550000D01*
X125600000Y-101100000D02*
X123600000Y-101100000D01*
X115450000Y-101550000D02*
X115300000Y-101400000D01*
X123150000Y-101550000D02*
X115450000Y-101550000D01*
X118250000Y-96250000D02*
X114500000Y-96250000D01*
X113250000Y-95000000D02*
X106040000Y-95000000D01*
X106040000Y-95000000D02*
X104690000Y-93650000D01*
X120750000Y-98750000D02*
X118250000Y-96250000D01*
X114500000Y-96250000D02*
X113250000Y-95000000D01*
X129500000Y-98750000D02*
X120750000Y-98750000D01*
G04 #@! TA.AperFunction,Conductor*
G36*
X113725375Y-98149341D02*
G01*
X113764883Y-98175920D01*
X114317849Y-98728886D01*
X114333977Y-98748745D01*
X114339916Y-98757836D01*
X114367932Y-98779641D01*
X114373693Y-98784730D01*
X114376482Y-98787519D01*
X114394433Y-98800335D01*
X114396489Y-98801868D01*
X114438810Y-98834809D01*
X114445722Y-98838549D01*
X114452801Y-98842010D01*
X114504200Y-98857312D01*
X114506594Y-98858079D01*
X114531341Y-98866574D01*
X114557339Y-98875500D01*
X114565079Y-98876791D01*
X114572909Y-98877767D01*
X114572911Y-98877768D01*
X114572912Y-98877767D01*
X114572913Y-98877768D01*
X114597412Y-98876754D01*
X114626475Y-98875552D01*
X114629033Y-98875500D01*
X116543101Y-98875500D01*
X116610140Y-98895185D01*
X116630782Y-98911819D01*
X118197849Y-100478886D01*
X118213978Y-100498747D01*
X118219916Y-100507836D01*
X118247929Y-100529639D01*
X118253691Y-100534728D01*
X118256483Y-100537520D01*
X118256485Y-100537522D01*
X118274440Y-100550342D01*
X118276494Y-100551873D01*
X118299422Y-100569718D01*
X118318811Y-100584809D01*
X118318815Y-100584810D01*
X118325718Y-100588546D01*
X118332798Y-100592008D01*
X118332801Y-100592010D01*
X118384223Y-100607318D01*
X118386583Y-100608075D01*
X118437340Y-100625500D01*
X118437342Y-100625500D01*
X118445072Y-100626790D01*
X118452910Y-100627767D01*
X118452912Y-100627768D01*
X118452913Y-100627767D01*
X118452914Y-100627768D01*
X118477413Y-100626754D01*
X118506476Y-100625552D01*
X118509034Y-100625500D01*
X120375043Y-100625500D01*
X120442082Y-100645185D01*
X120487837Y-100697989D01*
X120498776Y-100750946D01*
X120498882Y-100750943D01*
X120498899Y-100751543D01*
X120499016Y-100752107D01*
X120498974Y-100754084D01*
X120500781Y-100815517D01*
X120500781Y-100815520D01*
X120535562Y-100922263D01*
X120535566Y-100922273D01*
X120571172Y-100987479D01*
X120570285Y-100987962D01*
X120588650Y-101050493D01*
X120568969Y-101117534D01*
X120516168Y-101163292D01*
X120464650Y-101174500D01*
X117417521Y-101174500D01*
X117350482Y-101154815D01*
X117304727Y-101102011D01*
X117294582Y-101034315D01*
X117305682Y-100950001D01*
X117305682Y-100949998D01*
X117285044Y-100793239D01*
X117285044Y-100793238D01*
X117224536Y-100647159D01*
X117128282Y-100521718D01*
X117002841Y-100425464D01*
X116992735Y-100421278D01*
X116856762Y-100364956D01*
X116856760Y-100364955D01*
X116700001Y-100344318D01*
X116699999Y-100344318D01*
X116543239Y-100364955D01*
X116543237Y-100364956D01*
X116397160Y-100425463D01*
X116271718Y-100521718D01*
X116175463Y-100647160D01*
X116114956Y-100793237D01*
X116114955Y-100793239D01*
X116094318Y-100949998D01*
X116094318Y-100950002D01*
X116101226Y-101002478D01*
X116090460Y-101071513D01*
X116044079Y-101123768D01*
X115976810Y-101142653D01*
X115910010Y-101122172D01*
X115898489Y-101113574D01*
X115882344Y-101100000D01*
X115826683Y-101053202D01*
X115716928Y-100960924D01*
X115709343Y-100956531D01*
X115702668Y-100952064D01*
X115699981Y-100950002D01*
X115602841Y-100875464D01*
X115519362Y-100840886D01*
X115456762Y-100814956D01*
X115456760Y-100814955D01*
X115300001Y-100794318D01*
X115299999Y-100794318D01*
X115143239Y-100814955D01*
X115143237Y-100814956D01*
X114997160Y-100875463D01*
X114871718Y-100971718D01*
X114775463Y-101097160D01*
X114714956Y-101243237D01*
X114714955Y-101243239D01*
X114694318Y-101399998D01*
X114694318Y-101400001D01*
X114714955Y-101556760D01*
X114714956Y-101556762D01*
X114768812Y-101686783D01*
X114775464Y-101702841D01*
X114871718Y-101828282D01*
X114997159Y-101924536D01*
X115143238Y-101985044D01*
X115178475Y-101989683D01*
X115299999Y-102005682D01*
X115299999Y-102005681D01*
X115300000Y-102005682D01*
X115329874Y-102001748D01*
X115352269Y-102000844D01*
X115354236Y-102000943D01*
X115884527Y-101929107D01*
X115884537Y-101929103D01*
X115887835Y-101928381D01*
X115914409Y-101925500D01*
X120144101Y-101925500D01*
X120211140Y-101945185D01*
X120256895Y-101997989D01*
X120266839Y-102067147D01*
X120237814Y-102130703D01*
X120231785Y-102137177D01*
X119921803Y-102447159D01*
X119680781Y-102688181D01*
X119619458Y-102721666D01*
X119593100Y-102724500D01*
X111783429Y-102724500D01*
X111716390Y-102704815D01*
X111670635Y-102652011D01*
X111609779Y-102518638D01*
X111609174Y-102517319D01*
X111603902Y-102509898D01*
X111590439Y-102485553D01*
X111574536Y-102447159D01*
X111542793Y-102405791D01*
X111478283Y-102321719D01*
X111462178Y-102309361D01*
X111352841Y-102225464D01*
X111330309Y-102216131D01*
X111206762Y-102164956D01*
X111206760Y-102164955D01*
X111050001Y-102144318D01*
X111049999Y-102144318D01*
X110893239Y-102164955D01*
X110893237Y-102164956D01*
X110747157Y-102225464D01*
X110674872Y-102280931D01*
X110609703Y-102306125D01*
X110541258Y-102292086D01*
X110491268Y-102243272D01*
X110484726Y-102229768D01*
X110482954Y-102225464D01*
X110464103Y-102179683D01*
X110461405Y-102173334D01*
X110455031Y-102163977D01*
X110442953Y-102141622D01*
X110424536Y-102097159D01*
X110328282Y-101971718D01*
X110202841Y-101875464D01*
X110156937Y-101856450D01*
X110056762Y-101814956D01*
X110056760Y-101814955D01*
X109900001Y-101794318D01*
X109899999Y-101794318D01*
X109743239Y-101814955D01*
X109743237Y-101814956D01*
X109597160Y-101875463D01*
X109471716Y-101971719D01*
X109375465Y-102097156D01*
X109375463Y-102097159D01*
X109375464Y-102097159D01*
X109365459Y-102121314D01*
X109364892Y-102122682D01*
X109321050Y-102177084D01*
X109254755Y-102199147D01*
X109232687Y-102197964D01*
X109208594Y-102194500D01*
X109208591Y-102194500D01*
X105552432Y-102194500D01*
X105485393Y-102174815D01*
X105439638Y-102122011D01*
X105429694Y-102052853D01*
X105456578Y-101991836D01*
X105511017Y-101925500D01*
X105567685Y-101856450D01*
X105665232Y-101673954D01*
X105725300Y-101475934D01*
X105745583Y-101270000D01*
X105745583Y-101269999D01*
X111254417Y-101269999D01*
X111274699Y-101475932D01*
X111285937Y-101512978D01*
X111334768Y-101673954D01*
X111432315Y-101856450D01*
X111447919Y-101875464D01*
X111563589Y-102016410D01*
X111649221Y-102086685D01*
X111723550Y-102147685D01*
X111906046Y-102245232D01*
X112104066Y-102305300D01*
X112104065Y-102305300D01*
X112112442Y-102306125D01*
X112310000Y-102325583D01*
X112515934Y-102305300D01*
X112713954Y-102245232D01*
X112896450Y-102147685D01*
X113056410Y-102016410D01*
X113187685Y-101856450D01*
X113285232Y-101673954D01*
X113345300Y-101475934D01*
X113365583Y-101270000D01*
X113345300Y-101064066D01*
X113285232Y-100866046D01*
X113187685Y-100683550D01*
X113106651Y-100584809D01*
X113056410Y-100523589D01*
X112905814Y-100400000D01*
X112896450Y-100392315D01*
X112713954Y-100294768D01*
X112515934Y-100234700D01*
X112515932Y-100234699D01*
X112515934Y-100234699D01*
X112310000Y-100214417D01*
X112104067Y-100234699D01*
X111906043Y-100294769D01*
X111813345Y-100344318D01*
X111723550Y-100392315D01*
X111723548Y-100392316D01*
X111723547Y-100392317D01*
X111563589Y-100523589D01*
X111432317Y-100683547D01*
X111334769Y-100866043D01*
X111274699Y-101064067D01*
X111254417Y-101269999D01*
X105745583Y-101269999D01*
X105725300Y-101064066D01*
X105665232Y-100866046D01*
X105567685Y-100683550D01*
X105486651Y-100584809D01*
X105436410Y-100523589D01*
X105285814Y-100400000D01*
X105276450Y-100392315D01*
X105093954Y-100294768D01*
X104994944Y-100264733D01*
X104895932Y-100234699D01*
X104782326Y-100223510D01*
X104717539Y-100197349D01*
X104689566Y-100157818D01*
X104671797Y-100189168D01*
X104609951Y-100221676D01*
X104597673Y-100223510D01*
X104484067Y-100234699D01*
X104286043Y-100294769D01*
X104193345Y-100344318D01*
X104103550Y-100392315D01*
X104103548Y-100392316D01*
X104103547Y-100392317D01*
X103943589Y-100523589D01*
X103812317Y-100683547D01*
X103714769Y-100866043D01*
X103654699Y-101064067D01*
X103634417Y-101269999D01*
X103654699Y-101475932D01*
X103665937Y-101512978D01*
X103714768Y-101673954D01*
X103812315Y-101856450D01*
X103827919Y-101875464D01*
X103923422Y-101991836D01*
X103950734Y-102056146D01*
X103938943Y-102125013D01*
X103891790Y-102176573D01*
X103827568Y-102194500D01*
X102679500Y-102194500D01*
X102612461Y-102174815D01*
X102566706Y-102122011D01*
X102555500Y-102070500D01*
X102555500Y-98429500D01*
X102575185Y-98362461D01*
X102627989Y-98316706D01*
X102679500Y-98305500D01*
X103348049Y-98305500D01*
X103415088Y-98325185D01*
X103460843Y-98377989D01*
X103470787Y-98447147D01*
X103467824Y-98461593D01*
X103454289Y-98512105D01*
X103454287Y-98512115D01*
X103435225Y-98729999D01*
X103435225Y-98730000D01*
X103454287Y-98947884D01*
X103454289Y-98947894D01*
X103510894Y-99159150D01*
X103510898Y-99159159D01*
X103603335Y-99357391D01*
X103646873Y-99419571D01*
X103646874Y-99419572D01*
X104206922Y-98859523D01*
X104230507Y-98939844D01*
X104308239Y-99060798D01*
X104416900Y-99154952D01*
X104547685Y-99214680D01*
X104557466Y-99216086D01*
X104000426Y-99773124D01*
X104062611Y-99816666D01*
X104062613Y-99816667D01*
X104260840Y-99909101D01*
X104260849Y-99909105D01*
X104472105Y-99965710D01*
X104472116Y-99965712D01*
X104596325Y-99976579D01*
X104661394Y-100002031D01*
X104690504Y-100042232D01*
X104709179Y-100010109D01*
X104771377Y-99978278D01*
X104783674Y-99976579D01*
X104907883Y-99965712D01*
X104907894Y-99965710D01*
X105119150Y-99909105D01*
X105119159Y-99909101D01*
X105317387Y-99816666D01*
X105379572Y-99773124D01*
X104822534Y-99216086D01*
X104832315Y-99214680D01*
X104963100Y-99154952D01*
X105071761Y-99060798D01*
X105149493Y-98939844D01*
X105173076Y-98859524D01*
X105733124Y-99419572D01*
X105776666Y-99357387D01*
X105869101Y-99159159D01*
X105869105Y-99159150D01*
X105925710Y-98947894D01*
X105925712Y-98947884D01*
X105944775Y-98730000D01*
X105944775Y-98729999D01*
X105925712Y-98512115D01*
X105925710Y-98512105D01*
X105912176Y-98461593D01*
X105913839Y-98391743D01*
X105953002Y-98333881D01*
X106017231Y-98306377D01*
X106031951Y-98305500D01*
X111173806Y-98305500D01*
X111240845Y-98325185D01*
X111286600Y-98377989D01*
X111296544Y-98447147D01*
X111292467Y-98465494D01*
X111274699Y-98524066D01*
X111254417Y-98730000D01*
X111274699Y-98935932D01*
X111304733Y-99034944D01*
X111334768Y-99133954D01*
X111432315Y-99316450D01*
X111432317Y-99316452D01*
X111563589Y-99476410D01*
X111657764Y-99553696D01*
X111723550Y-99607685D01*
X111906046Y-99705232D01*
X112104066Y-99765300D01*
X112104065Y-99765300D01*
X112124347Y-99767297D01*
X112310000Y-99785583D01*
X112515934Y-99765300D01*
X112713954Y-99705232D01*
X112896450Y-99607685D01*
X113056410Y-99476410D01*
X113187685Y-99316450D01*
X113285232Y-99133954D01*
X113345300Y-98935934D01*
X113365583Y-98730000D01*
X113345300Y-98524066D01*
X113320183Y-98441268D01*
X113319560Y-98371402D01*
X113356808Y-98312289D01*
X113400772Y-98288283D01*
X113400541Y-98287663D01*
X113404859Y-98286052D01*
X113404979Y-98285987D01*
X113405193Y-98285925D01*
X113405209Y-98285922D01*
X113470673Y-98261505D01*
X113525822Y-98234333D01*
X113593284Y-98172313D01*
X113655954Y-98141435D01*
X113725375Y-98149341D01*
G37*
G04 #@! TD.AperFunction*
G04 #@! TA.AperFunction,Conductor*
G36*
X85992084Y-77020185D02*
G01*
X86037839Y-77072989D01*
X86047783Y-77142147D01*
X86018758Y-77205703D01*
X86000532Y-77222876D01*
X85871718Y-77321718D01*
X85775463Y-77447160D01*
X85714956Y-77593237D01*
X85714955Y-77593239D01*
X85694318Y-77749998D01*
X85694318Y-77750001D01*
X85714955Y-77906760D01*
X85714956Y-77906762D01*
X85775464Y-78052841D01*
X85871718Y-78178282D01*
X85997159Y-78274536D01*
X86143238Y-78335044D01*
X86221619Y-78345363D01*
X86299999Y-78355682D01*
X86300000Y-78355682D01*
X86300001Y-78355682D01*
X86352253Y-78348802D01*
X86456762Y-78335044D01*
X86602841Y-78274536D01*
X86728282Y-78178282D01*
X86777125Y-78114628D01*
X86833552Y-78073426D01*
X86903298Y-78069271D01*
X86964218Y-78103483D01*
X86996971Y-78165200D01*
X86999500Y-78190115D01*
X86999500Y-85875467D01*
X86999416Y-85875889D01*
X86999459Y-85900001D01*
X86999544Y-85900206D01*
X86999616Y-85900382D01*
X86999618Y-85900384D01*
X86999808Y-85900462D01*
X87000000Y-85900541D01*
X87000002Y-85900539D01*
X87024616Y-85900524D01*
X87024616Y-85900528D01*
X87024760Y-85900500D01*
X88225500Y-85900500D01*
X88292539Y-85920185D01*
X88338294Y-85972989D01*
X88349500Y-86024500D01*
X88349500Y-87475467D01*
X88349416Y-87475889D01*
X88349459Y-87500001D01*
X88349544Y-87500206D01*
X88349616Y-87500382D01*
X88349618Y-87500384D01*
X88349808Y-87500462D01*
X88350000Y-87500541D01*
X88350002Y-87500539D01*
X88374616Y-87500524D01*
X88374616Y-87500528D01*
X88374760Y-87500500D01*
X88376000Y-87500500D01*
X88443039Y-87520185D01*
X88488794Y-87572989D01*
X88500000Y-87624500D01*
X88500000Y-90750000D01*
X92750000Y-90750000D01*
X92750000Y-89700001D01*
X99694318Y-89700001D01*
X99714955Y-89856760D01*
X99714956Y-89856762D01*
X99738598Y-89913840D01*
X99775464Y-90002841D01*
X99871718Y-90128282D01*
X99997159Y-90224536D01*
X100143238Y-90285044D01*
X100162038Y-90287519D01*
X100299999Y-90305682D01*
X100300000Y-90305682D01*
X100300001Y-90305682D01*
X100352253Y-90298802D01*
X100456762Y-90285044D01*
X100602841Y-90224536D01*
X100699516Y-90150354D01*
X100764682Y-90125162D01*
X100833127Y-90139200D01*
X100850477Y-90150349D01*
X100947159Y-90224536D01*
X101093238Y-90285044D01*
X101112038Y-90287519D01*
X101249999Y-90305682D01*
X101250000Y-90305682D01*
X101250001Y-90305682D01*
X101302253Y-90298802D01*
X101406762Y-90285044D01*
X101552841Y-90224536D01*
X101678282Y-90128282D01*
X101774536Y-90002841D01*
X101835044Y-89856762D01*
X101848802Y-89752254D01*
X101855682Y-89700001D01*
X101855682Y-89699998D01*
X101835044Y-89543239D01*
X101835044Y-89543238D01*
X101774536Y-89397159D01*
X101700354Y-89300483D01*
X101675162Y-89235318D01*
X101689200Y-89166873D01*
X101700349Y-89149522D01*
X101774536Y-89052841D01*
X101835044Y-88906762D01*
X101855682Y-88750000D01*
X101854448Y-88740629D01*
X101835044Y-88593239D01*
X101835044Y-88593238D01*
X101774536Y-88447159D01*
X101678282Y-88321718D01*
X101552841Y-88225464D01*
X101406762Y-88164956D01*
X101406760Y-88164955D01*
X101250001Y-88144318D01*
X101249999Y-88144318D01*
X101093239Y-88164955D01*
X101093237Y-88164956D01*
X100947157Y-88225464D01*
X100850486Y-88299643D01*
X100785317Y-88324837D01*
X100716872Y-88310798D01*
X100699514Y-88299643D01*
X100602842Y-88225464D01*
X100456762Y-88164956D01*
X100456760Y-88164955D01*
X100300001Y-88144318D01*
X100299999Y-88144318D01*
X100143239Y-88164955D01*
X100143237Y-88164956D01*
X99997160Y-88225463D01*
X99871718Y-88321718D01*
X99775463Y-88447160D01*
X99714956Y-88593237D01*
X99714955Y-88593239D01*
X99694318Y-88749998D01*
X99694318Y-88750001D01*
X99714955Y-88906760D01*
X99714956Y-88906762D01*
X99775464Y-89052842D01*
X99849643Y-89149514D01*
X99874837Y-89214683D01*
X99860798Y-89283128D01*
X99849643Y-89300486D01*
X99775464Y-89397157D01*
X99714956Y-89543237D01*
X99714955Y-89543239D01*
X99694318Y-89699998D01*
X99694318Y-89700001D01*
X92750000Y-89700001D01*
X92750000Y-87624500D01*
X92757194Y-87600001D01*
X113394318Y-87600001D01*
X113414955Y-87756760D01*
X113414956Y-87756762D01*
X113475464Y-87902841D01*
X113571718Y-88028282D01*
X113697159Y-88124536D01*
X113843238Y-88185044D01*
X113921619Y-88195363D01*
X113999999Y-88205682D01*
X114000000Y-88205682D01*
X114000001Y-88205682D01*
X114052253Y-88198802D01*
X114156762Y-88185044D01*
X114302841Y-88124536D01*
X114399516Y-88050354D01*
X114464682Y-88025162D01*
X114533127Y-88039200D01*
X114550477Y-88050349D01*
X114647159Y-88124536D01*
X114793238Y-88185044D01*
X114871619Y-88195363D01*
X114949999Y-88205682D01*
X114950000Y-88205682D01*
X114950001Y-88205682D01*
X115002254Y-88198802D01*
X115106762Y-88185044D01*
X115252841Y-88124536D01*
X115284814Y-88100002D01*
X120694938Y-88100002D01*
X120715121Y-88279138D01*
X120715122Y-88279141D01*
X120774662Y-88449298D01*
X120774667Y-88449308D01*
X120783338Y-88463108D01*
X121146447Y-88100000D01*
X121344709Y-88100000D01*
X121365514Y-88177645D01*
X121422355Y-88234486D01*
X121480254Y-88250000D01*
X121519746Y-88250000D01*
X121577645Y-88234486D01*
X121634486Y-88177646D01*
X121655291Y-88100000D01*
X121853552Y-88100000D01*
X121999999Y-88246447D01*
X122146446Y-88100000D01*
X122344709Y-88100000D01*
X122365514Y-88177645D01*
X122422355Y-88234486D01*
X122480254Y-88250000D01*
X122519746Y-88250000D01*
X122577645Y-88234486D01*
X122634486Y-88177646D01*
X122655291Y-88100000D01*
X122853552Y-88100000D01*
X123216660Y-88463107D01*
X123216661Y-88463107D01*
X123225333Y-88449307D01*
X123284878Y-88279138D01*
X123305062Y-88100002D01*
X123305062Y-88100001D01*
X124894318Y-88100001D01*
X124914955Y-88256760D01*
X124914956Y-88256762D01*
X124975464Y-88402841D01*
X125071718Y-88528282D01*
X125197159Y-88624536D01*
X125343238Y-88685044D01*
X125413681Y-88694318D01*
X125499999Y-88705682D01*
X125500000Y-88705682D01*
X125500001Y-88705682D01*
X125552254Y-88698802D01*
X125656762Y-88685044D01*
X125802841Y-88624536D01*
X125924515Y-88531171D01*
X125989683Y-88505979D01*
X126058127Y-88520017D01*
X126075478Y-88531167D01*
X126197159Y-88624536D01*
X126343238Y-88685044D01*
X126413681Y-88694318D01*
X126499999Y-88705682D01*
X126500000Y-88705682D01*
X126500001Y-88705682D01*
X126552254Y-88698802D01*
X126656762Y-88685044D01*
X126802841Y-88624536D01*
X126928282Y-88528282D01*
X127024536Y-88402841D01*
X127085044Y-88256762D01*
X127105682Y-88100000D01*
X127105478Y-88098453D01*
X127085044Y-87943239D01*
X127085044Y-87943238D01*
X127024536Y-87797159D01*
X126928282Y-87671718D01*
X126802841Y-87575464D01*
X126656762Y-87514956D01*
X126656760Y-87514955D01*
X126500001Y-87494318D01*
X126499999Y-87494318D01*
X126343239Y-87514955D01*
X126343237Y-87514956D01*
X126197157Y-87575464D01*
X126075486Y-87668826D01*
X126010317Y-87694020D01*
X125941872Y-87679981D01*
X125924514Y-87668826D01*
X125802842Y-87575464D01*
X125656762Y-87514956D01*
X125656760Y-87514955D01*
X125500001Y-87494318D01*
X125499999Y-87494318D01*
X125343239Y-87514955D01*
X125343237Y-87514956D01*
X125197160Y-87575463D01*
X125071718Y-87671718D01*
X124975463Y-87797160D01*
X124914956Y-87943237D01*
X124914955Y-87943239D01*
X124894318Y-88099998D01*
X124894318Y-88100001D01*
X123305062Y-88100001D01*
X123305062Y-88099997D01*
X123284878Y-87920861D01*
X123284877Y-87920858D01*
X123225337Y-87750701D01*
X123225335Y-87750697D01*
X123216660Y-87736891D01*
X122853552Y-88099999D01*
X122853552Y-88100000D01*
X122655291Y-88100000D01*
X122634486Y-88022355D01*
X122577645Y-87965514D01*
X122519746Y-87950000D01*
X122480254Y-87950000D01*
X122422355Y-87965514D01*
X122365514Y-88022354D01*
X122344709Y-88100000D01*
X122146446Y-88100000D01*
X121999998Y-87953553D01*
X121853552Y-88100000D01*
X121655291Y-88100000D01*
X121634486Y-88022355D01*
X121577645Y-87965514D01*
X121519746Y-87950000D01*
X121480254Y-87950000D01*
X121422355Y-87965514D01*
X121365514Y-88022354D01*
X121344709Y-88100000D01*
X121146447Y-88100000D01*
X121146447Y-88099999D01*
X120783338Y-87736890D01*
X120783338Y-87736891D01*
X120774664Y-87750696D01*
X120715122Y-87920858D01*
X120715121Y-87920861D01*
X120694938Y-88099997D01*
X120694938Y-88100002D01*
X115284814Y-88100002D01*
X115378282Y-88028282D01*
X115474536Y-87902841D01*
X115535044Y-87756762D01*
X115555682Y-87600000D01*
X115535044Y-87443238D01*
X115474536Y-87297159D01*
X115400354Y-87200483D01*
X115375162Y-87135318D01*
X115389200Y-87066873D01*
X115400356Y-87049514D01*
X115422861Y-87020185D01*
X115447844Y-86987625D01*
X115504270Y-86946424D01*
X115556837Y-86939609D01*
X116116923Y-86379523D01*
X116140507Y-86459844D01*
X116218239Y-86580798D01*
X116326900Y-86674952D01*
X116457685Y-86734680D01*
X116467466Y-86736086D01*
X115910426Y-87293124D01*
X115972611Y-87336666D01*
X115972613Y-87336667D01*
X116170840Y-87429101D01*
X116170849Y-87429105D01*
X116382105Y-87485710D01*
X116382115Y-87485712D01*
X116599999Y-87504775D01*
X116600001Y-87504775D01*
X116817884Y-87485712D01*
X116817894Y-87485710D01*
X117029150Y-87429105D01*
X117029159Y-87429101D01*
X117127298Y-87383338D01*
X121136890Y-87383338D01*
X121500000Y-87746447D01*
X121500001Y-87746447D01*
X121863108Y-87383338D01*
X122136890Y-87383338D01*
X122500000Y-87746447D01*
X122500001Y-87746447D01*
X122863108Y-87383338D01*
X122863108Y-87383337D01*
X122849308Y-87374667D01*
X122849298Y-87374662D01*
X122679141Y-87315122D01*
X122679138Y-87315121D01*
X122500003Y-87294938D01*
X122499997Y-87294938D01*
X122320861Y-87315121D01*
X122320858Y-87315122D01*
X122150696Y-87374664D01*
X122136891Y-87383338D01*
X122136890Y-87383338D01*
X121863108Y-87383338D01*
X121863108Y-87383337D01*
X121849308Y-87374667D01*
X121849298Y-87374662D01*
X121679141Y-87315122D01*
X121679138Y-87315121D01*
X121500003Y-87294938D01*
X121499997Y-87294938D01*
X121320861Y-87315121D01*
X121320858Y-87315122D01*
X121150696Y-87374664D01*
X121136891Y-87383338D01*
X121136890Y-87383338D01*
X117127298Y-87383338D01*
X117227387Y-87336666D01*
X117289572Y-87293124D01*
X116732534Y-86736086D01*
X116742315Y-86734680D01*
X116873100Y-86674952D01*
X116981761Y-86580798D01*
X117059493Y-86459844D01*
X117083076Y-86379524D01*
X117643124Y-86939572D01*
X117686666Y-86877387D01*
X117779101Y-86679159D01*
X117779105Y-86679150D01*
X117835710Y-86467894D01*
X117835712Y-86467884D01*
X117854775Y-86250000D01*
X117854775Y-86249999D01*
X117835712Y-86032115D01*
X117835710Y-86032105D01*
X117779105Y-85820849D01*
X117779101Y-85820840D01*
X117686668Y-85622615D01*
X117643123Y-85560427D01*
X117083076Y-86120474D01*
X117059493Y-86040156D01*
X116981761Y-85919202D01*
X116873100Y-85825048D01*
X116742315Y-85765320D01*
X116732534Y-85763913D01*
X117289572Y-85206875D01*
X117289571Y-85206873D01*
X117227391Y-85163335D01*
X117029159Y-85070898D01*
X117029150Y-85070894D01*
X116929800Y-85044274D01*
X116870139Y-85007909D01*
X116839610Y-84945062D01*
X116847905Y-84875687D01*
X116892390Y-84821809D01*
X116958942Y-84800534D01*
X116961871Y-84800499D01*
X117352102Y-84800499D01*
X117352104Y-84800499D01*
X117366167Y-84798647D01*
X117401330Y-84794019D01*
X117509359Y-84743644D01*
X117593644Y-84659359D01*
X117621324Y-84600000D01*
X122344867Y-84600000D01*
X122363302Y-84728226D01*
X122363303Y-84728227D01*
X122394252Y-84795994D01*
X122397103Y-84803482D01*
X122406407Y-84833644D01*
X122411155Y-84839495D01*
X122411310Y-84839361D01*
X122471493Y-84908816D01*
X122475867Y-84914496D01*
X122492183Y-84938428D01*
X122494117Y-84939749D01*
X122494489Y-84939172D01*
X122523320Y-84957700D01*
X122580119Y-84994202D01*
X122585247Y-84997880D01*
X122602591Y-85011711D01*
X122605756Y-85012485D01*
X122711397Y-85043503D01*
X122716584Y-85045278D01*
X122730329Y-85050672D01*
X122733828Y-85050500D01*
X122854758Y-85050500D01*
X122859394Y-85050673D01*
X122863754Y-85050999D01*
X122867211Y-85049784D01*
X122888694Y-85043476D01*
X122989069Y-85014004D01*
X122989073Y-85014000D01*
X122990102Y-85013699D01*
X122994479Y-85010526D01*
X123098049Y-84943967D01*
X123098050Y-84943965D01*
X123099559Y-84942996D01*
X123104739Y-84936245D01*
X123182882Y-84846063D01*
X123182884Y-84846057D01*
X123185180Y-84842484D01*
X123188612Y-84833515D01*
X123236697Y-84728226D01*
X123236698Y-84728221D01*
X123238207Y-84723084D01*
X123239088Y-84711595D01*
X123252890Y-84615596D01*
X123255263Y-84610401D01*
X123255258Y-84608869D01*
X123255133Y-84608869D01*
X123255133Y-84600000D01*
X125344867Y-84600000D01*
X125363302Y-84728226D01*
X125363303Y-84728227D01*
X125394252Y-84795994D01*
X125397103Y-84803482D01*
X125406407Y-84833644D01*
X125411155Y-84839495D01*
X125411310Y-84839361D01*
X125471493Y-84908816D01*
X125475867Y-84914496D01*
X125492183Y-84938428D01*
X125494117Y-84939749D01*
X125494489Y-84939172D01*
X125523320Y-84957700D01*
X125580119Y-84994202D01*
X125585247Y-84997880D01*
X125602591Y-85011711D01*
X125605756Y-85012485D01*
X125711397Y-85043503D01*
X125716584Y-85045278D01*
X125730329Y-85050672D01*
X125733828Y-85050500D01*
X125854758Y-85050500D01*
X125859394Y-85050673D01*
X125863754Y-85050999D01*
X125867211Y-85049784D01*
X125888694Y-85043476D01*
X125989069Y-85014004D01*
X125989073Y-85014000D01*
X125990102Y-85013699D01*
X125994479Y-85010526D01*
X126098049Y-84943967D01*
X126098050Y-84943965D01*
X126099559Y-84942996D01*
X126104739Y-84936245D01*
X126182882Y-84846063D01*
X126182884Y-84846057D01*
X126185180Y-84842484D01*
X126188612Y-84833515D01*
X126236697Y-84728226D01*
X126236698Y-84728221D01*
X126238207Y-84723084D01*
X126239088Y-84711595D01*
X126252890Y-84615596D01*
X126255263Y-84610401D01*
X126255258Y-84608869D01*
X126255133Y-84608869D01*
X126255133Y-84594797D01*
X126252891Y-84584411D01*
X126239087Y-84488399D01*
X126240224Y-84480487D01*
X126240084Y-84480026D01*
X126239197Y-84480287D01*
X126236697Y-84471775D01*
X126236696Y-84471773D01*
X126188618Y-84366498D01*
X126187870Y-84361294D01*
X126186352Y-84359336D01*
X126182884Y-84353940D01*
X126182882Y-84353938D01*
X126182882Y-84353937D01*
X126104748Y-84263764D01*
X126102617Y-84259098D01*
X126100753Y-84257771D01*
X126098049Y-84256033D01*
X125994484Y-84189476D01*
X125992287Y-84186940D01*
X125867214Y-84150216D01*
X125865160Y-84148896D01*
X125859411Y-84149327D01*
X125854777Y-84149500D01*
X125733827Y-84149500D01*
X125731571Y-84148837D01*
X125716567Y-84154726D01*
X125711381Y-84156501D01*
X125605756Y-84187514D01*
X125603559Y-84187514D01*
X125585236Y-84202126D01*
X125580097Y-84205812D01*
X125494490Y-84260828D01*
X125493616Y-84259468D01*
X125475865Y-84285505D01*
X125471492Y-84291184D01*
X125411311Y-84360638D01*
X125409390Y-84358974D01*
X125408426Y-84359809D01*
X125397103Y-84396518D01*
X125394252Y-84404006D01*
X125363303Y-84471772D01*
X125363302Y-84471773D01*
X125344867Y-84600000D01*
X123255133Y-84600000D01*
X123255133Y-84594797D01*
X123252891Y-84584411D01*
X123239087Y-84488399D01*
X123240224Y-84480487D01*
X123240084Y-84480026D01*
X123239197Y-84480287D01*
X123236697Y-84471775D01*
X123236696Y-84471773D01*
X123188618Y-84366498D01*
X123187870Y-84361294D01*
X123186352Y-84359336D01*
X123182884Y-84353940D01*
X123182882Y-84353938D01*
X123182882Y-84353937D01*
X123104748Y-84263764D01*
X123102617Y-84259098D01*
X123100753Y-84257771D01*
X123098049Y-84256033D01*
X122994484Y-84189476D01*
X122992287Y-84186940D01*
X122867214Y-84150216D01*
X122865160Y-84148896D01*
X122859411Y-84149327D01*
X122854777Y-84149500D01*
X122733827Y-84149500D01*
X122731571Y-84148837D01*
X122716567Y-84154726D01*
X122711381Y-84156501D01*
X122605756Y-84187514D01*
X122603559Y-84187514D01*
X122585236Y-84202126D01*
X122580097Y-84205812D01*
X122494490Y-84260828D01*
X122493616Y-84259468D01*
X122475865Y-84285505D01*
X122471492Y-84291184D01*
X122411311Y-84360638D01*
X122409390Y-84358974D01*
X122408426Y-84359809D01*
X122397103Y-84396518D01*
X122394252Y-84404006D01*
X122363303Y-84471772D01*
X122363302Y-84471773D01*
X122344867Y-84600000D01*
X117621324Y-84600000D01*
X117644019Y-84551330D01*
X117650500Y-84502103D01*
X117650499Y-82997898D01*
X117650497Y-82997886D01*
X117646291Y-82965928D01*
X117644019Y-82948670D01*
X117593644Y-82840641D01*
X117509359Y-82756356D01*
X117401330Y-82705981D01*
X117401328Y-82705980D01*
X117352113Y-82699501D01*
X117352108Y-82699500D01*
X117352103Y-82699500D01*
X117352096Y-82699500D01*
X115847895Y-82699500D01*
X115798674Y-82705980D01*
X115798666Y-82705982D01*
X115690640Y-82756356D01*
X115606356Y-82840640D01*
X115555980Y-82948671D01*
X115549501Y-82997886D01*
X115549500Y-82997903D01*
X115549500Y-84502104D01*
X115555980Y-84551325D01*
X115555981Y-84551330D01*
X115606356Y-84659359D01*
X115690641Y-84743644D01*
X115798670Y-84794019D01*
X115847897Y-84800500D01*
X116238106Y-84800499D01*
X116305143Y-84820183D01*
X116350898Y-84872987D01*
X116360842Y-84942146D01*
X116331817Y-85005701D01*
X116273039Y-85043476D01*
X116270198Y-85044274D01*
X116170847Y-85070895D01*
X116170840Y-85070898D01*
X115972614Y-85163332D01*
X115972612Y-85163333D01*
X115910428Y-85206875D01*
X115910427Y-85206875D01*
X116467466Y-85763913D01*
X116457685Y-85765320D01*
X116326900Y-85825048D01*
X116218239Y-85919202D01*
X116140507Y-86040156D01*
X116116923Y-86120475D01*
X115556875Y-85560427D01*
X115556875Y-85560428D01*
X115513333Y-85622612D01*
X115513332Y-85622614D01*
X115420898Y-85820840D01*
X115420894Y-85820849D01*
X115367235Y-86021111D01*
X115330870Y-86080772D01*
X115268023Y-86111301D01*
X115200008Y-86103579D01*
X115106765Y-86064957D01*
X115106760Y-86064955D01*
X114950001Y-86044318D01*
X114949999Y-86044318D01*
X114793239Y-86064955D01*
X114793237Y-86064956D01*
X114647157Y-86125464D01*
X114550486Y-86199643D01*
X114485317Y-86224837D01*
X114416872Y-86210798D01*
X114399514Y-86199643D01*
X114302842Y-86125464D01*
X114156762Y-86064956D01*
X114156760Y-86064955D01*
X114000001Y-86044318D01*
X113999999Y-86044318D01*
X113843239Y-86064955D01*
X113843237Y-86064956D01*
X113697160Y-86125463D01*
X113571718Y-86221718D01*
X113475463Y-86347160D01*
X113414956Y-86493237D01*
X113414955Y-86493239D01*
X113394318Y-86649998D01*
X113394318Y-86650001D01*
X113414955Y-86806760D01*
X113414956Y-86806762D01*
X113475464Y-86952842D01*
X113549643Y-87049514D01*
X113574837Y-87114683D01*
X113560798Y-87183128D01*
X113549643Y-87200486D01*
X113475464Y-87297157D01*
X113414956Y-87443237D01*
X113414955Y-87443239D01*
X113394318Y-87599998D01*
X113394318Y-87600001D01*
X92757194Y-87600001D01*
X92769685Y-87557461D01*
X92822489Y-87511706D01*
X92874000Y-87500500D01*
X92925240Y-87500500D01*
X92925383Y-87500528D01*
X92925384Y-87500524D01*
X92949997Y-87500539D01*
X92950000Y-87500541D01*
X92950383Y-87500383D01*
X92950500Y-87500099D01*
X92950541Y-87500000D01*
X92950540Y-87499997D01*
X92950583Y-87475889D01*
X92950500Y-87475467D01*
X92950500Y-85124500D01*
X92970185Y-85057461D01*
X93022989Y-85011706D01*
X93074500Y-85000500D01*
X106925500Y-85000500D01*
X106992539Y-85020185D01*
X107038294Y-85072989D01*
X107049500Y-85124500D01*
X107049500Y-87475467D01*
X107049416Y-87475889D01*
X107049459Y-87500001D01*
X107049544Y-87500206D01*
X107049616Y-87500382D01*
X107049618Y-87500384D01*
X107049808Y-87500462D01*
X107050000Y-87500541D01*
X107050002Y-87500539D01*
X107074616Y-87500524D01*
X107074616Y-87500528D01*
X107074760Y-87500500D01*
X111625240Y-87500500D01*
X111625383Y-87500528D01*
X111625384Y-87500524D01*
X111649997Y-87500539D01*
X111650000Y-87500541D01*
X111650383Y-87500383D01*
X111650500Y-87500099D01*
X111650541Y-87500000D01*
X111650540Y-87499997D01*
X111650583Y-87475889D01*
X111650500Y-87475467D01*
X111650500Y-86024500D01*
X111670185Y-85957461D01*
X111722989Y-85911706D01*
X111774500Y-85900500D01*
X112975240Y-85900500D01*
X112975383Y-85900528D01*
X112975384Y-85900524D01*
X112999997Y-85900539D01*
X113000000Y-85900541D01*
X113000383Y-85900383D01*
X113000500Y-85900099D01*
X113000499Y-85900099D01*
X113000541Y-85900000D01*
X113000540Y-85899998D01*
X113006892Y-85885028D01*
X113000521Y-85864747D01*
X113000499Y-85862417D01*
X113000500Y-77124500D01*
X113020185Y-77057461D01*
X113072989Y-77011706D01*
X113124500Y-77000500D01*
X114875500Y-77000500D01*
X114942539Y-77020185D01*
X114988294Y-77072989D01*
X114999500Y-77124500D01*
X114999500Y-78975467D01*
X114999416Y-78975889D01*
X114999459Y-79000001D01*
X114999544Y-79000206D01*
X114999616Y-79000382D01*
X114999618Y-79000384D01*
X114999808Y-79000462D01*
X115000000Y-79000541D01*
X115000002Y-79000539D01*
X115024616Y-79000524D01*
X115024616Y-79000528D01*
X115024760Y-79000500D01*
X116875500Y-79000500D01*
X116942539Y-79020185D01*
X116988294Y-79072989D01*
X116999500Y-79124500D01*
X116999500Y-80975467D01*
X116999416Y-80975889D01*
X116999459Y-81000001D01*
X116999544Y-81000206D01*
X116999616Y-81000382D01*
X116999618Y-81000384D01*
X116999808Y-81000462D01*
X117000000Y-81000541D01*
X117000002Y-81000539D01*
X117024616Y-81000524D01*
X117024616Y-81000528D01*
X117024760Y-81000500D01*
X126875500Y-81000500D01*
X126942539Y-81020185D01*
X126988294Y-81072989D01*
X126999500Y-81124500D01*
X126999500Y-82975467D01*
X126999416Y-82975889D01*
X126999459Y-83000001D01*
X126999544Y-83000206D01*
X126999616Y-83000382D01*
X126999618Y-83000384D01*
X126999808Y-83000462D01*
X127000000Y-83000541D01*
X127000002Y-83000539D01*
X127024616Y-83000524D01*
X127024616Y-83000528D01*
X127024760Y-83000500D01*
X128875500Y-83000500D01*
X128942539Y-83020185D01*
X128988294Y-83072989D01*
X128999500Y-83124500D01*
X128999500Y-84975467D01*
X128999416Y-84975889D01*
X128999459Y-85000001D01*
X128999544Y-85000206D01*
X128999616Y-85000382D01*
X128999618Y-85000384D01*
X128999808Y-85000462D01*
X129000000Y-85000541D01*
X129000002Y-85000539D01*
X129024616Y-85000524D01*
X129024616Y-85000528D01*
X129024760Y-85000500D01*
X130875500Y-85000500D01*
X130942539Y-85020185D01*
X130988294Y-85072989D01*
X130999500Y-85124500D01*
X130999500Y-86975467D01*
X130999416Y-86975889D01*
X130999459Y-87000001D01*
X130999544Y-87000206D01*
X130999616Y-87000382D01*
X130999618Y-87000384D01*
X130999808Y-87000462D01*
X131000000Y-87000541D01*
X131000002Y-87000539D01*
X131024616Y-87000524D01*
X131024616Y-87000528D01*
X131024760Y-87000500D01*
X132875500Y-87000500D01*
X132942539Y-87020185D01*
X132988294Y-87072989D01*
X132999500Y-87124500D01*
X132999500Y-88924918D01*
X132979815Y-88991957D01*
X132927011Y-89037712D01*
X132857853Y-89047656D01*
X132810845Y-89027858D01*
X132809881Y-89029528D01*
X132802843Y-89025465D01*
X132802838Y-89025463D01*
X132656762Y-88964956D01*
X132656760Y-88964955D01*
X132500001Y-88944318D01*
X132499999Y-88944318D01*
X132343239Y-88964955D01*
X132343237Y-88964956D01*
X132197157Y-89025464D01*
X132100486Y-89099643D01*
X132035317Y-89124837D01*
X131966872Y-89110798D01*
X131949514Y-89099643D01*
X131852842Y-89025464D01*
X131706762Y-88964956D01*
X131706760Y-88964955D01*
X131550001Y-88944318D01*
X131549999Y-88944318D01*
X131393239Y-88964955D01*
X131393237Y-88964956D01*
X131247160Y-89025463D01*
X131121718Y-89121718D01*
X131025463Y-89247160D01*
X130964956Y-89393237D01*
X130964955Y-89393239D01*
X130944318Y-89549998D01*
X130944318Y-89550001D01*
X130964955Y-89706760D01*
X130964956Y-89706762D01*
X131025464Y-89852842D01*
X131099643Y-89949514D01*
X131124837Y-90014683D01*
X131110798Y-90083128D01*
X131099643Y-90100486D01*
X131025464Y-90197157D01*
X130964956Y-90343237D01*
X130964955Y-90343239D01*
X130944318Y-90499998D01*
X130944318Y-90500001D01*
X130964955Y-90656760D01*
X130964956Y-90656762D01*
X131025464Y-90802841D01*
X131035411Y-90815805D01*
X131060603Y-90880975D01*
X131046563Y-90949419D01*
X131015876Y-90980843D01*
X131017138Y-90982105D01*
X130999615Y-90999618D01*
X130999459Y-90999999D01*
X130999476Y-91024616D01*
X130999471Y-91024616D01*
X130999500Y-91024759D01*
X130999500Y-108975467D01*
X130999416Y-108975889D01*
X130999459Y-109000001D01*
X130999544Y-109000206D01*
X130999616Y-109000382D01*
X130999618Y-109000384D01*
X130999808Y-109000462D01*
X131000000Y-109000541D01*
X131000002Y-109000539D01*
X131024616Y-109000524D01*
X131024616Y-109000528D01*
X131024760Y-109000500D01*
X132875500Y-109000500D01*
X132942539Y-109020185D01*
X132988294Y-109072989D01*
X132999500Y-109124500D01*
X132999500Y-112875500D01*
X132979815Y-112942539D01*
X132927011Y-112988294D01*
X132875500Y-112999500D01*
X131024760Y-112999500D01*
X131024554Y-112999459D01*
X130999998Y-112999459D01*
X130999909Y-112999496D01*
X130999619Y-112999615D01*
X130999615Y-112999618D01*
X130999459Y-112999999D01*
X130999476Y-113024616D01*
X130999471Y-113024616D01*
X130999500Y-113024759D01*
X130999500Y-114875500D01*
X130979815Y-114942539D01*
X130927011Y-114988294D01*
X130875500Y-114999500D01*
X129024760Y-114999500D01*
X129024554Y-114999459D01*
X128999998Y-114999459D01*
X128999909Y-114999496D01*
X128999619Y-114999615D01*
X128999615Y-114999618D01*
X128999459Y-114999999D01*
X128999476Y-115024616D01*
X128999471Y-115024616D01*
X128999500Y-115024759D01*
X128999500Y-116875500D01*
X128979815Y-116942539D01*
X128927011Y-116988294D01*
X128875500Y-116999500D01*
X127024760Y-116999500D01*
X127024554Y-116999459D01*
X126999998Y-116999459D01*
X126999909Y-116999496D01*
X126999619Y-116999615D01*
X126999615Y-116999618D01*
X126999459Y-116999999D01*
X126999476Y-117024616D01*
X126999471Y-117024616D01*
X126999500Y-117024759D01*
X126999500Y-118875500D01*
X126979815Y-118942539D01*
X126927011Y-118988294D01*
X126875500Y-118999500D01*
X117024760Y-118999500D01*
X117024554Y-118999459D01*
X116999998Y-118999459D01*
X116999909Y-118999496D01*
X116999619Y-118999615D01*
X116999615Y-118999618D01*
X116999459Y-118999999D01*
X116999476Y-119024616D01*
X116999471Y-119024616D01*
X116999500Y-119024759D01*
X116999500Y-120875500D01*
X116979815Y-120942539D01*
X116927011Y-120988294D01*
X116875500Y-120999500D01*
X115024760Y-120999500D01*
X115024554Y-120999459D01*
X114999998Y-120999459D01*
X114999909Y-120999496D01*
X114999619Y-120999615D01*
X114999615Y-120999618D01*
X114999459Y-120999999D01*
X114999476Y-121024616D01*
X114999471Y-121024616D01*
X114999500Y-121024759D01*
X114999500Y-122875500D01*
X114979815Y-122942539D01*
X114927011Y-122988294D01*
X114875500Y-122999500D01*
X113124500Y-122999500D01*
X113057461Y-122979815D01*
X113011706Y-122927011D01*
X113000500Y-122875500D01*
X113000499Y-114108338D01*
X113000539Y-114100002D01*
X113000541Y-114100000D01*
X113000383Y-114099617D01*
X113000381Y-114099616D01*
X113000090Y-114099496D01*
X113000001Y-114099459D01*
X112975446Y-114099459D01*
X112975240Y-114099500D01*
X111774500Y-114099500D01*
X111707461Y-114079815D01*
X111661706Y-114027011D01*
X111650500Y-113975500D01*
X111650500Y-113900001D01*
X116794318Y-113900001D01*
X116814955Y-114056760D01*
X116814956Y-114056762D01*
X116866383Y-114180919D01*
X116875464Y-114202841D01*
X116971718Y-114328282D01*
X117097159Y-114424536D01*
X117243238Y-114485044D01*
X117321618Y-114495362D01*
X117399999Y-114505682D01*
X117400000Y-114505682D01*
X117400001Y-114505682D01*
X117452254Y-114498802D01*
X117556762Y-114485044D01*
X117702841Y-114424536D01*
X117828282Y-114328282D01*
X117924536Y-114202841D01*
X117985044Y-114056762D01*
X118005682Y-113900000D01*
X117985044Y-113743238D01*
X117924536Y-113597159D01*
X117828282Y-113471718D01*
X117702841Y-113375464D01*
X117556762Y-113314956D01*
X117556760Y-113314955D01*
X117400001Y-113294318D01*
X117399999Y-113294318D01*
X117243239Y-113314955D01*
X117243237Y-113314956D01*
X117097160Y-113375463D01*
X116971718Y-113471718D01*
X116875463Y-113597160D01*
X116814956Y-113743237D01*
X116814955Y-113743239D01*
X116794318Y-113899998D01*
X116794318Y-113900001D01*
X111650500Y-113900001D01*
X111650500Y-112524759D01*
X111650528Y-112524616D01*
X111650524Y-112524616D01*
X111650539Y-112500002D01*
X111650541Y-112500000D01*
X111650462Y-112499808D01*
X111650384Y-112499618D01*
X111650383Y-112499617D01*
X111650381Y-112499616D01*
X111650090Y-112499496D01*
X111650001Y-112499459D01*
X111625446Y-112499459D01*
X111625240Y-112499500D01*
X107074760Y-112499500D01*
X107074554Y-112499459D01*
X107049998Y-112499459D01*
X107049909Y-112499496D01*
X107049619Y-112499615D01*
X107049615Y-112499618D01*
X107049459Y-112499999D01*
X107049476Y-112524616D01*
X107049471Y-112524616D01*
X107049500Y-112524759D01*
X107049500Y-114875500D01*
X107029815Y-114942539D01*
X106977011Y-114988294D01*
X106925500Y-114999500D01*
X93074500Y-114999500D01*
X93007461Y-114979815D01*
X92961706Y-114927011D01*
X92950500Y-114875500D01*
X92950500Y-112524759D01*
X92950528Y-112524616D01*
X92950524Y-112524616D01*
X92950539Y-112500002D01*
X92950541Y-112500000D01*
X92950462Y-112499808D01*
X92950384Y-112499618D01*
X92950383Y-112499617D01*
X92950381Y-112499616D01*
X92950090Y-112499496D01*
X92950001Y-112499459D01*
X92925446Y-112499459D01*
X92925240Y-112499500D01*
X92874000Y-112499500D01*
X92806961Y-112479815D01*
X92761206Y-112427011D01*
X92750000Y-112375500D01*
X92750000Y-111266660D01*
X104686891Y-111266660D01*
X104700697Y-111275335D01*
X104700701Y-111275337D01*
X104870858Y-111334877D01*
X104870861Y-111334878D01*
X105049997Y-111355062D01*
X105050003Y-111355062D01*
X105229138Y-111334878D01*
X105399307Y-111275333D01*
X105413107Y-111266661D01*
X105413107Y-111266660D01*
X105050001Y-110903553D01*
X105050000Y-110903553D01*
X104686891Y-111266660D01*
X92750000Y-111266660D01*
X92750000Y-110400001D01*
X100044318Y-110400001D01*
X100064955Y-110556760D01*
X100064956Y-110556762D01*
X100122752Y-110696295D01*
X100125464Y-110702841D01*
X100221718Y-110828282D01*
X100347159Y-110924536D01*
X100493238Y-110985044D01*
X100571618Y-110995362D01*
X100649999Y-111005682D01*
X100650000Y-111005682D01*
X100650001Y-111005682D01*
X100702254Y-110998802D01*
X100806762Y-110985044D01*
X100952841Y-110924536D01*
X101049516Y-110850354D01*
X101114682Y-110825162D01*
X101183127Y-110839200D01*
X101200477Y-110850349D01*
X101297159Y-110924536D01*
X101443238Y-110985044D01*
X101521618Y-110995362D01*
X101599999Y-111005682D01*
X101600000Y-111005682D01*
X101600001Y-111005682D01*
X101652254Y-110998802D01*
X101756762Y-110985044D01*
X101902841Y-110924536D01*
X102028282Y-110828282D01*
X102124536Y-110702841D01*
X102185044Y-110556762D01*
X102185934Y-110550002D01*
X104244938Y-110550002D01*
X104265121Y-110729138D01*
X104265122Y-110729141D01*
X104324662Y-110899298D01*
X104324667Y-110899308D01*
X104333338Y-110913108D01*
X104696447Y-110550000D01*
X104894709Y-110550000D01*
X104915514Y-110627645D01*
X104972355Y-110684486D01*
X105030254Y-110700000D01*
X105069746Y-110700000D01*
X105127645Y-110684486D01*
X105184486Y-110627646D01*
X105205291Y-110550000D01*
X105184486Y-110472355D01*
X105127645Y-110415514D01*
X105069746Y-110400000D01*
X105030254Y-110400000D01*
X104972355Y-110415514D01*
X104915514Y-110472354D01*
X104894709Y-110550000D01*
X104696447Y-110550000D01*
X104696446Y-110549999D01*
X104333338Y-110186890D01*
X104333338Y-110186891D01*
X104324664Y-110200696D01*
X104265122Y-110370858D01*
X104265121Y-110370861D01*
X104244938Y-110549997D01*
X104244938Y-110550002D01*
X102185934Y-110550002D01*
X102205682Y-110400000D01*
X102204917Y-110394192D01*
X102191923Y-110295492D01*
X102185044Y-110243238D01*
X102124536Y-110097159D01*
X102050354Y-110000483D01*
X102025162Y-109935318D01*
X102039200Y-109866873D01*
X102050349Y-109849522D01*
X102068483Y-109825889D01*
X104549416Y-109825889D01*
X104549459Y-109850001D01*
X104549544Y-109850206D01*
X104549616Y-109850382D01*
X104549618Y-109850384D01*
X104549808Y-109850462D01*
X104550000Y-109850541D01*
X104550002Y-109850539D01*
X104574616Y-109850524D01*
X104574616Y-109850528D01*
X104574760Y-109850500D01*
X104652691Y-109850500D01*
X104719730Y-109870185D01*
X104740372Y-109886819D01*
X105766660Y-110913107D01*
X105766661Y-110913107D01*
X105775333Y-110899307D01*
X105775336Y-110899301D01*
X105791398Y-110853397D01*
X105832118Y-110796620D01*
X105897070Y-110770871D01*
X105965632Y-110784326D01*
X106016036Y-110832712D01*
X106022999Y-110846892D01*
X106025462Y-110852837D01*
X106025464Y-110852841D01*
X106121718Y-110978282D01*
X106247159Y-111074536D01*
X106393238Y-111135044D01*
X106471618Y-111145362D01*
X106549999Y-111155682D01*
X106550000Y-111155682D01*
X106550001Y-111155682D01*
X106602254Y-111148802D01*
X106706762Y-111135044D01*
X106852841Y-111074536D01*
X106978282Y-110978282D01*
X107074536Y-110852841D01*
X107135044Y-110706762D01*
X107135044Y-110706761D01*
X107135439Y-110705808D01*
X107179280Y-110651404D01*
X107245574Y-110629339D01*
X107313273Y-110646618D01*
X107360884Y-110697755D01*
X107364561Y-110705808D01*
X107425462Y-110852838D01*
X107425463Y-110852840D01*
X107425464Y-110852841D01*
X107521718Y-110978282D01*
X107647159Y-111074536D01*
X107647160Y-111074536D01*
X107647161Y-111074537D01*
X107699958Y-111096406D01*
X107718582Y-111106039D01*
X107733679Y-111115546D01*
X107733682Y-111115547D01*
X107733685Y-111115549D01*
X108137010Y-111275333D01*
X108141776Y-111277221D01*
X108183786Y-111304823D01*
X108357849Y-111478886D01*
X108373978Y-111498747D01*
X108379916Y-111507836D01*
X108407929Y-111529639D01*
X108413691Y-111534728D01*
X108416305Y-111537342D01*
X108416485Y-111537522D01*
X108434440Y-111550342D01*
X108436494Y-111551873D01*
X108478474Y-111584547D01*
X108478811Y-111584809D01*
X108478815Y-111584810D01*
X108485735Y-111588555D01*
X108492802Y-111592011D01*
X108533057Y-111603994D01*
X108544198Y-111607311D01*
X108546596Y-111608079D01*
X108574363Y-111617612D01*
X108597338Y-111625500D01*
X108605101Y-111626795D01*
X108612911Y-111627768D01*
X108612912Y-111627769D01*
X108612912Y-111627768D01*
X108612913Y-111627769D01*
X108645713Y-111626412D01*
X108666488Y-111625552D01*
X108669050Y-111625500D01*
X109448196Y-111625500D01*
X109473641Y-111628139D01*
X109477440Y-111628935D01*
X109484268Y-111630367D01*
X109505225Y-111627754D01*
X109519492Y-111625977D01*
X109527168Y-111625500D01*
X109531112Y-111625500D01*
X109531114Y-111625500D01*
X109552895Y-111621864D01*
X109555402Y-111621499D01*
X109608626Y-111614866D01*
X109608628Y-111614864D01*
X109616141Y-111612628D01*
X109623606Y-111610066D01*
X109623606Y-111610065D01*
X109623610Y-111610065D01*
X109670763Y-111584547D01*
X109673004Y-111583392D01*
X109721211Y-111559826D01*
X109721214Y-111559822D01*
X109727594Y-111555268D01*
X109733819Y-111550422D01*
X109733826Y-111550419D01*
X109770162Y-111510945D01*
X109771864Y-111509171D01*
X110528892Y-110752144D01*
X110548741Y-110736025D01*
X110557836Y-110730084D01*
X110579644Y-110702062D01*
X110584721Y-110696316D01*
X110587520Y-110693518D01*
X110600354Y-110675540D01*
X110601877Y-110673498D01*
X110634807Y-110631192D01*
X110638547Y-110624280D01*
X110642006Y-110617203D01*
X110642010Y-110617199D01*
X110657319Y-110565772D01*
X110658073Y-110563419D01*
X110675500Y-110512660D01*
X110675500Y-110512658D01*
X110678836Y-110502941D01*
X110679457Y-110503154D01*
X110685758Y-110483660D01*
X110846400Y-110159525D01*
X110848434Y-110155255D01*
X110849731Y-110152421D01*
X110856471Y-110136519D01*
X110857874Y-110129134D01*
X110865132Y-110104831D01*
X110885044Y-110056762D01*
X110905682Y-109900000D01*
X110901408Y-109867538D01*
X110885044Y-109743239D01*
X110885044Y-109743238D01*
X110824536Y-109597159D01*
X110728282Y-109471718D01*
X110602841Y-109375464D01*
X110456762Y-109314956D01*
X110456760Y-109314955D01*
X110300001Y-109294318D01*
X110299999Y-109294318D01*
X110143239Y-109314955D01*
X110143237Y-109314956D01*
X109997160Y-109375463D01*
X109871715Y-109471720D01*
X109772874Y-109600532D01*
X109716446Y-109641735D01*
X109646700Y-109645889D01*
X109585780Y-109611676D01*
X109553028Y-109549958D01*
X109550500Y-109525054D01*
X109550500Y-109024759D01*
X109550528Y-109024616D01*
X109550524Y-109024616D01*
X109550539Y-109000002D01*
X109550541Y-109000000D01*
X109550394Y-108999643D01*
X109550384Y-108999618D01*
X109550383Y-108999617D01*
X109550381Y-108999616D01*
X109550090Y-108999496D01*
X109550001Y-108999459D01*
X109525446Y-108999459D01*
X109525240Y-108999500D01*
X104574760Y-108999500D01*
X104574554Y-108999459D01*
X104549998Y-108999459D01*
X104549909Y-108999496D01*
X104549619Y-108999615D01*
X104549615Y-108999618D01*
X104549459Y-108999999D01*
X104549476Y-109024616D01*
X104549471Y-109024616D01*
X104549500Y-109024759D01*
X104549500Y-109825467D01*
X104549416Y-109825889D01*
X102068483Y-109825889D01*
X102124536Y-109752841D01*
X102185044Y-109606762D01*
X102205682Y-109450000D01*
X102201068Y-109414956D01*
X102185044Y-109293239D01*
X102185044Y-109293238D01*
X102124536Y-109147159D01*
X102028282Y-109021718D01*
X101902841Y-108925464D01*
X101756762Y-108864956D01*
X101756760Y-108864955D01*
X101600001Y-108844318D01*
X101599999Y-108844318D01*
X101443239Y-108864955D01*
X101443237Y-108864956D01*
X101297157Y-108925464D01*
X101200486Y-108999643D01*
X101135317Y-109024837D01*
X101066872Y-109010798D01*
X101049514Y-108999643D01*
X100952842Y-108925464D01*
X100806762Y-108864956D01*
X100806760Y-108864955D01*
X100650001Y-108844318D01*
X100649999Y-108844318D01*
X100493239Y-108864955D01*
X100493237Y-108864956D01*
X100347160Y-108925463D01*
X100221718Y-109021718D01*
X100125463Y-109147160D01*
X100064956Y-109293237D01*
X100064955Y-109293239D01*
X100044318Y-109449998D01*
X100044318Y-109450001D01*
X100064955Y-109606760D01*
X100064956Y-109606762D01*
X100125464Y-109752842D01*
X100199643Y-109849514D01*
X100224837Y-109914683D01*
X100210798Y-109983128D01*
X100199643Y-110000486D01*
X100125464Y-110097157D01*
X100064956Y-110243237D01*
X100064955Y-110243239D01*
X100044318Y-110399998D01*
X100044318Y-110400001D01*
X92750000Y-110400001D01*
X92750000Y-109000000D01*
X88500000Y-109000000D01*
X88500000Y-112375500D01*
X88480315Y-112442539D01*
X88427511Y-112488294D01*
X88376000Y-112499500D01*
X88374760Y-112499500D01*
X88374554Y-112499459D01*
X88349998Y-112499459D01*
X88349909Y-112499496D01*
X88349619Y-112499615D01*
X88349615Y-112499618D01*
X88349459Y-112499999D01*
X88349476Y-112524616D01*
X88349471Y-112524616D01*
X88349500Y-112524759D01*
X88349500Y-113975500D01*
X88329815Y-114042539D01*
X88277011Y-114088294D01*
X88225500Y-114099500D01*
X87024760Y-114099500D01*
X87024554Y-114099459D01*
X86999998Y-114099459D01*
X86999909Y-114099496D01*
X86999619Y-114099615D01*
X86999615Y-114099618D01*
X86999459Y-114099999D01*
X86999476Y-114124616D01*
X86999471Y-114124616D01*
X86999500Y-114124759D01*
X86999500Y-121809884D01*
X86979815Y-121876923D01*
X86927011Y-121922678D01*
X86857853Y-121932622D01*
X86794297Y-121903597D01*
X86777126Y-121885374D01*
X86728282Y-121821718D01*
X86602841Y-121725464D01*
X86456762Y-121664956D01*
X86456760Y-121664955D01*
X86300001Y-121644318D01*
X86299999Y-121644318D01*
X86143239Y-121664955D01*
X86143237Y-121664956D01*
X85997160Y-121725463D01*
X85871718Y-121821718D01*
X85775463Y-121947160D01*
X85714956Y-122093237D01*
X85714955Y-122093239D01*
X85694318Y-122249998D01*
X85694318Y-122250001D01*
X85714955Y-122406760D01*
X85714956Y-122406762D01*
X85775464Y-122552841D01*
X85871718Y-122678282D01*
X85997159Y-122774536D01*
X86000532Y-122777124D01*
X86041734Y-122833552D01*
X86045889Y-122903298D01*
X86011676Y-122964219D01*
X85949959Y-122996971D01*
X85925045Y-122999500D01*
X74124500Y-122999500D01*
X74057461Y-122979815D01*
X74011706Y-122927011D01*
X74000500Y-122875500D01*
X74000500Y-121024759D01*
X74000528Y-121024616D01*
X74000524Y-121024616D01*
X74000539Y-121000002D01*
X74000541Y-121000000D01*
X74000462Y-120999808D01*
X74000384Y-120999618D01*
X74000383Y-120999617D01*
X74000381Y-120999616D01*
X74000090Y-120999496D01*
X74000001Y-120999459D01*
X73975446Y-120999459D01*
X73975240Y-120999500D01*
X72124500Y-120999500D01*
X72057461Y-120979815D01*
X72011706Y-120927011D01*
X72000500Y-120875500D01*
X72000500Y-119024759D01*
X72000528Y-119024616D01*
X72000524Y-119024616D01*
X72000539Y-119000002D01*
X72000541Y-119000000D01*
X72000462Y-118999808D01*
X72000384Y-118999618D01*
X72000383Y-118999617D01*
X72000381Y-118999616D01*
X72000090Y-118999496D01*
X72000001Y-118999459D01*
X71975446Y-118999459D01*
X71975240Y-118999500D01*
X70124500Y-118999500D01*
X70057461Y-118979815D01*
X70011706Y-118927011D01*
X70000500Y-118875500D01*
X70000500Y-117024759D01*
X70000528Y-117024616D01*
X70000524Y-117024616D01*
X70000533Y-117009907D01*
X82270939Y-117009907D01*
X82274390Y-117034108D01*
X82274481Y-117034367D01*
X82754844Y-120391195D01*
X82754797Y-120392128D01*
X82758241Y-120415218D01*
X82758278Y-120415280D01*
X82758451Y-120415574D01*
X82758453Y-120415576D01*
X82758850Y-120415676D01*
X82758854Y-120415677D01*
X82758857Y-120415674D01*
X82767759Y-120414360D01*
X82929638Y-120391195D01*
X84029186Y-120233849D01*
X84098337Y-120243839D01*
X84142604Y-120277934D01*
X84211458Y-120361833D01*
X84363802Y-120486859D01*
X84363809Y-120486863D01*
X84537608Y-120579761D01*
X84537611Y-120579761D01*
X84537615Y-120579764D01*
X84726210Y-120636974D01*
X84922342Y-120656291D01*
X85118474Y-120636974D01*
X85307069Y-120579764D01*
X85480880Y-120486860D01*
X85633225Y-120361833D01*
X85758252Y-120209488D01*
X85851156Y-120035677D01*
X85908366Y-119847082D01*
X85927683Y-119650950D01*
X85908366Y-119454818D01*
X85851156Y-119266223D01*
X85851153Y-119266219D01*
X85851153Y-119266216D01*
X85758255Y-119092417D01*
X85758251Y-119092410D01*
X85633225Y-118940066D01*
X85480881Y-118815040D01*
X85480874Y-118815036D01*
X85307075Y-118722138D01*
X85307069Y-118722136D01*
X85118474Y-118664926D01*
X85118471Y-118664925D01*
X84922342Y-118645609D01*
X84726212Y-118664925D01*
X84537608Y-118722138D01*
X84363809Y-118815036D01*
X84363803Y-118815040D01*
X84249251Y-118909050D01*
X84184941Y-118936362D01*
X84116074Y-118924571D01*
X84064514Y-118877418D01*
X84047837Y-118830762D01*
X83953149Y-118169074D01*
X83963139Y-118099924D01*
X84008929Y-118047150D01*
X84075981Y-118027510D01*
X84134351Y-118042151D01*
X84177805Y-118065378D01*
X84366400Y-118122588D01*
X84562532Y-118141905D01*
X84758664Y-118122588D01*
X84947259Y-118065378D01*
X85121070Y-117972474D01*
X85273415Y-117847447D01*
X85398442Y-117695102D01*
X85491346Y-117521291D01*
X85548556Y-117332696D01*
X85567873Y-117136564D01*
X85548556Y-116940432D01*
X85491346Y-116751837D01*
X85491343Y-116751833D01*
X85491343Y-116751830D01*
X85398445Y-116578031D01*
X85398441Y-116578024D01*
X85273415Y-116425680D01*
X85121071Y-116300654D01*
X85121064Y-116300650D01*
X84947265Y-116207752D01*
X84947259Y-116207750D01*
X84758664Y-116150540D01*
X84758661Y-116150539D01*
X84562532Y-116131223D01*
X84366402Y-116150539D01*
X84177798Y-116207752D01*
X84003999Y-116300650D01*
X84003992Y-116300654D01*
X83851648Y-116425680D01*
X83726622Y-116578024D01*
X83726618Y-116578031D01*
X83633716Y-116751839D01*
X83633212Y-116753056D01*
X83632778Y-116753594D01*
X83630846Y-116757209D01*
X83630159Y-116756842D01*
X83589363Y-116807454D01*
X83536223Y-116828338D01*
X82295563Y-117005878D01*
X82294992Y-117005848D01*
X82271399Y-117009294D01*
X82271043Y-117009505D01*
X82271042Y-117009506D01*
X82270939Y-117009907D01*
X70000533Y-117009907D01*
X70000539Y-117000002D01*
X70000541Y-117000000D01*
X70000462Y-116999808D01*
X70000384Y-116999618D01*
X70000383Y-116999617D01*
X70000381Y-116999616D01*
X70000090Y-116999496D01*
X70000001Y-116999459D01*
X69975446Y-116999459D01*
X69975240Y-116999500D01*
X68124500Y-116999500D01*
X68057461Y-116979815D01*
X68011706Y-116927011D01*
X68000500Y-116875500D01*
X68000500Y-115024759D01*
X68000528Y-115024616D01*
X68000524Y-115024616D01*
X68000539Y-115000002D01*
X68000541Y-115000000D01*
X68000462Y-114999808D01*
X68000384Y-114999618D01*
X68000383Y-114999617D01*
X68000381Y-114999616D01*
X68000090Y-114999496D01*
X68000001Y-114999459D01*
X67975446Y-114999459D01*
X67975240Y-114999500D01*
X66124500Y-114999500D01*
X66057461Y-114979815D01*
X66011706Y-114927011D01*
X66000500Y-114875500D01*
X66000500Y-113024759D01*
X66000528Y-113024616D01*
X66000524Y-113024616D01*
X66000539Y-113000002D01*
X66000541Y-113000000D01*
X66000462Y-112999808D01*
X66000384Y-112999618D01*
X66000383Y-112999617D01*
X66000381Y-112999616D01*
X66000090Y-112999496D01*
X66000001Y-112999459D01*
X65975446Y-112999459D01*
X65975240Y-112999500D01*
X64124500Y-112999500D01*
X64057461Y-112979815D01*
X64011706Y-112927011D01*
X64000500Y-112875500D01*
X64000500Y-111024759D01*
X64000528Y-111024616D01*
X64000524Y-111024616D01*
X64000539Y-111000002D01*
X64000541Y-111000000D01*
X64000462Y-110999808D01*
X64000384Y-110999618D01*
X64000383Y-110999617D01*
X64000381Y-110999616D01*
X64000090Y-110999496D01*
X64000001Y-110999459D01*
X63975446Y-110999459D01*
X63975240Y-110999500D01*
X62124500Y-110999500D01*
X62057461Y-110979815D01*
X62011706Y-110927011D01*
X62000500Y-110875500D01*
X62000500Y-109024759D01*
X62000528Y-109024616D01*
X62000524Y-109024616D01*
X62000539Y-109000002D01*
X62000541Y-109000000D01*
X62000394Y-108999643D01*
X62000384Y-108999618D01*
X62000383Y-108999617D01*
X62000381Y-108999616D01*
X62000090Y-108999496D01*
X62000001Y-108999459D01*
X61975446Y-108999459D01*
X61975240Y-108999500D01*
X60124500Y-108999500D01*
X60057461Y-108979815D01*
X60011706Y-108927011D01*
X60000500Y-108875500D01*
X60000500Y-102500001D01*
X60294318Y-102500001D01*
X60314955Y-102656760D01*
X60314956Y-102656762D01*
X60347009Y-102734146D01*
X60375464Y-102802841D01*
X60471718Y-102928282D01*
X60597159Y-103024536D01*
X60743238Y-103085044D01*
X60797047Y-103092128D01*
X60899999Y-103105682D01*
X60900000Y-103105682D01*
X60900001Y-103105682D01*
X60952254Y-103098802D01*
X61056762Y-103085044D01*
X61202841Y-103024536D01*
X61328282Y-102928282D01*
X61424536Y-102802841D01*
X61485044Y-102656762D01*
X61503788Y-102514388D01*
X61505682Y-102500001D01*
X61505682Y-102499998D01*
X61505139Y-102495874D01*
X65217317Y-102495874D01*
X65219173Y-102499064D01*
X65226950Y-102507876D01*
X65230228Y-102512568D01*
X65236426Y-102514388D01*
X65252569Y-102526743D01*
X66768995Y-103898493D01*
X67750792Y-104786621D01*
X67751010Y-104786913D01*
X67768917Y-104803072D01*
X67768918Y-104803073D01*
X67769308Y-104803213D01*
X67769682Y-104803035D01*
X67769683Y-104803029D01*
X67780763Y-104790722D01*
X68626780Y-103855477D01*
X68686349Y-103818968D01*
X68742930Y-103817047D01*
X68748829Y-103818220D01*
X68748831Y-103818221D01*
X68944963Y-103837538D01*
X69141095Y-103818221D01*
X69329690Y-103761011D01*
X69503501Y-103668107D01*
X69655846Y-103543080D01*
X69780873Y-103390735D01*
X69873777Y-103216924D01*
X69930987Y-103028329D01*
X69950304Y-102832197D01*
X69930987Y-102636065D01*
X69873777Y-102447470D01*
X69873774Y-102447466D01*
X69873774Y-102447463D01*
X69780876Y-102273664D01*
X69780872Y-102273657D01*
X69655846Y-102121313D01*
X69503502Y-101996287D01*
X69503495Y-101996283D01*
X69329696Y-101903385D01*
X69329690Y-101903383D01*
X69141095Y-101846173D01*
X69141092Y-101846172D01*
X68944963Y-101826856D01*
X68748833Y-101846172D01*
X68560229Y-101903385D01*
X68386430Y-101996283D01*
X68386423Y-101996287D01*
X68234079Y-102121313D01*
X68109053Y-102273657D01*
X68109049Y-102273664D01*
X68016151Y-102447463D01*
X67958938Y-102636067D01*
X67954584Y-102680280D01*
X67928423Y-102745067D01*
X67871388Y-102785425D01*
X67801588Y-102788542D01*
X67747996Y-102760083D01*
X67295710Y-102350948D01*
X67252677Y-102312021D01*
X67216167Y-102252451D01*
X67217659Y-102182597D01*
X67256679Y-102124639D01*
X67299865Y-102101404D01*
X67446032Y-102057065D01*
X67447752Y-102056146D01*
X67556555Y-101997989D01*
X67619843Y-101964161D01*
X67772188Y-101839134D01*
X67897215Y-101686789D01*
X67990119Y-101512978D01*
X68047329Y-101324383D01*
X68066646Y-101128251D01*
X68047329Y-100932119D01*
X67990119Y-100743524D01*
X67990116Y-100743520D01*
X67990116Y-100743517D01*
X67897218Y-100569718D01*
X67897214Y-100569711D01*
X67772188Y-100417367D01*
X67619844Y-100292341D01*
X67619837Y-100292337D01*
X67446038Y-100199439D01*
X67446032Y-100199437D01*
X67257437Y-100142227D01*
X67257434Y-100142226D01*
X67080983Y-100124848D01*
X67066309Y-100123402D01*
X67063680Y-100122341D01*
X67056299Y-100123403D01*
X66865175Y-100142226D01*
X66676571Y-100199439D01*
X66502772Y-100292337D01*
X66502765Y-100292341D01*
X66350421Y-100417367D01*
X66225395Y-100569711D01*
X66225391Y-100569718D01*
X66132493Y-100743517D01*
X66075280Y-100932121D01*
X66055964Y-101128250D01*
X66075280Y-101324381D01*
X66081001Y-101343239D01*
X66098219Y-101400001D01*
X66105422Y-101423744D01*
X66106045Y-101493611D01*
X66078719Y-101542924D01*
X65234062Y-102476666D01*
X65233898Y-102476789D01*
X65217783Y-102494602D01*
X65217317Y-102495874D01*
X61505139Y-102495874D01*
X61485044Y-102343239D01*
X61485044Y-102343238D01*
X61424536Y-102197159D01*
X61328282Y-102071718D01*
X61202841Y-101975464D01*
X61193797Y-101971718D01*
X61056762Y-101914956D01*
X61056760Y-101914955D01*
X60900001Y-101894318D01*
X60899999Y-101894318D01*
X60743239Y-101914955D01*
X60743237Y-101914956D01*
X60597160Y-101975463D01*
X60471718Y-102071718D01*
X60375463Y-102197160D01*
X60314956Y-102343237D01*
X60314955Y-102343239D01*
X60294318Y-102499998D01*
X60294318Y-102500001D01*
X60000500Y-102500001D01*
X60000500Y-100400001D01*
X62294318Y-100400001D01*
X62314955Y-100556760D01*
X62314956Y-100556762D01*
X62375464Y-100702841D01*
X62471718Y-100828282D01*
X62597159Y-100924536D01*
X62743238Y-100985044D01*
X62765403Y-100987962D01*
X62899999Y-101005682D01*
X62900000Y-101005682D01*
X62900001Y-101005682D01*
X62952253Y-100998802D01*
X63056762Y-100985044D01*
X63202841Y-100924536D01*
X63328282Y-100828282D01*
X63424536Y-100702841D01*
X63485044Y-100556762D01*
X63502881Y-100421278D01*
X63505682Y-100400001D01*
X63505682Y-100399998D01*
X63485044Y-100243239D01*
X63485044Y-100243238D01*
X63424536Y-100097159D01*
X63328282Y-99971718D01*
X63202841Y-99875464D01*
X63160131Y-99857773D01*
X63056762Y-99814956D01*
X63056760Y-99814955D01*
X62900001Y-99794318D01*
X62899999Y-99794318D01*
X62743239Y-99814955D01*
X62743237Y-99814956D01*
X62597160Y-99875463D01*
X62471718Y-99971718D01*
X62375463Y-100097160D01*
X62314956Y-100243237D01*
X62314955Y-100243239D01*
X62294318Y-100399998D01*
X62294318Y-100400001D01*
X60000500Y-100400001D01*
X60000500Y-98840115D01*
X60020185Y-98773076D01*
X60072989Y-98727321D01*
X60142147Y-98717377D01*
X60205703Y-98746402D01*
X60222873Y-98764625D01*
X60271718Y-98828282D01*
X60397159Y-98924536D01*
X60543238Y-98985044D01*
X60621619Y-98995362D01*
X60699999Y-99005682D01*
X60700000Y-99005682D01*
X60700001Y-99005682D01*
X60752254Y-98998802D01*
X60856762Y-98985044D01*
X61002841Y-98924536D01*
X61128282Y-98828282D01*
X61224536Y-98702841D01*
X61285044Y-98556762D01*
X61305682Y-98400000D01*
X61305318Y-98397238D01*
X61285044Y-98243239D01*
X61285044Y-98243238D01*
X61224536Y-98097159D01*
X61128282Y-97971718D01*
X61002841Y-97875464D01*
X60856762Y-97814956D01*
X60856760Y-97814955D01*
X60700001Y-97794318D01*
X60699999Y-97794318D01*
X60543239Y-97814955D01*
X60543237Y-97814956D01*
X60397160Y-97875463D01*
X60367014Y-97898595D01*
X60271718Y-97971718D01*
X60222874Y-98035371D01*
X60166448Y-98076573D01*
X60096702Y-98080728D01*
X60035781Y-98046515D01*
X60003029Y-97984798D01*
X60000500Y-97959884D01*
X60000500Y-97505931D01*
X65217193Y-97505931D01*
X65224934Y-97516155D01*
X65231100Y-97525995D01*
X65254156Y-97545545D01*
X66069750Y-98447160D01*
X66078719Y-98457074D01*
X66109094Y-98519996D01*
X66105422Y-98576254D01*
X66075280Y-98675618D01*
X66055964Y-98871749D01*
X66075280Y-99067878D01*
X66075281Y-99067881D01*
X66128348Y-99242820D01*
X66132493Y-99256482D01*
X66225391Y-99430281D01*
X66225395Y-99430288D01*
X66350421Y-99582632D01*
X66502765Y-99707658D01*
X66502772Y-99707662D01*
X66676571Y-99800560D01*
X66676574Y-99800560D01*
X66676578Y-99800563D01*
X66865173Y-99857773D01*
X67024104Y-99873426D01*
X67056299Y-99876597D01*
X67058928Y-99877658D01*
X67066308Y-99876597D01*
X67257437Y-99857773D01*
X67446032Y-99800563D01*
X67474060Y-99785582D01*
X67586534Y-99725463D01*
X67619843Y-99707659D01*
X67772188Y-99582632D01*
X67897215Y-99430287D01*
X67943667Y-99343381D01*
X67990116Y-99256482D01*
X67990116Y-99256481D01*
X67990119Y-99256476D01*
X68047329Y-99067881D01*
X68066646Y-98871749D01*
X68047329Y-98675617D01*
X67990119Y-98487022D01*
X67990116Y-98487018D01*
X67990116Y-98487015D01*
X67897218Y-98313216D01*
X67897214Y-98313209D01*
X67772188Y-98160865D01*
X67619844Y-98035839D01*
X67619837Y-98035835D01*
X67446033Y-97942935D01*
X67299866Y-97898595D01*
X67241428Y-97860298D01*
X67212971Y-97796485D01*
X67223532Y-97727418D01*
X67252674Y-97687980D01*
X67747997Y-97239914D01*
X67810918Y-97209540D01*
X67880273Y-97218005D01*
X67934042Y-97262622D01*
X67954584Y-97319719D01*
X67958938Y-97363932D01*
X67958939Y-97363935D01*
X68014030Y-97545546D01*
X68016151Y-97552536D01*
X68109049Y-97726335D01*
X68109053Y-97726342D01*
X68234079Y-97878686D01*
X68386423Y-98003712D01*
X68386430Y-98003716D01*
X68560229Y-98096614D01*
X68560232Y-98096614D01*
X68560236Y-98096617D01*
X68748831Y-98153827D01*
X68944963Y-98173144D01*
X69141095Y-98153827D01*
X69329690Y-98096617D01*
X69503501Y-98003713D01*
X69655846Y-97878686D01*
X69780873Y-97726341D01*
X69863521Y-97571718D01*
X69873774Y-97552536D01*
X69873774Y-97552535D01*
X69873777Y-97552530D01*
X69930987Y-97363935D01*
X69950304Y-97167803D01*
X69930987Y-96971671D01*
X69873777Y-96783076D01*
X69873774Y-96783072D01*
X69873774Y-96783069D01*
X69780876Y-96609270D01*
X69780872Y-96609263D01*
X69655846Y-96456919D01*
X69503502Y-96331893D01*
X69503495Y-96331889D01*
X69329696Y-96238991D01*
X69329690Y-96238989D01*
X69191796Y-96197159D01*
X69141092Y-96181778D01*
X68944963Y-96162462D01*
X68748829Y-96181779D01*
X68742921Y-96182954D01*
X68673330Y-96176722D01*
X68626779Y-96144520D01*
X67786275Y-95215369D01*
X67786194Y-95215233D01*
X67786186Y-95215241D01*
X67769682Y-95196965D01*
X67769602Y-95196927D01*
X67769308Y-95196787D01*
X67769307Y-95196787D01*
X67768918Y-95196927D01*
X67751349Y-95212717D01*
X67750983Y-95213205D01*
X65235809Y-97488417D01*
X65235626Y-97488527D01*
X65217821Y-97504635D01*
X65217193Y-97505931D01*
X60000500Y-97505931D01*
X60000500Y-96500001D01*
X62694318Y-96500001D01*
X62714955Y-96656760D01*
X62714956Y-96656762D01*
X62742673Y-96723678D01*
X62775464Y-96802841D01*
X62871718Y-96928282D01*
X62997159Y-97024536D01*
X63143238Y-97085044D01*
X63221619Y-97095363D01*
X63299999Y-97105682D01*
X63300000Y-97105682D01*
X63300001Y-97105682D01*
X63352254Y-97098802D01*
X63456762Y-97085044D01*
X63602841Y-97024536D01*
X63728282Y-96928282D01*
X63824536Y-96802841D01*
X63885044Y-96656762D01*
X63905682Y-96500000D01*
X63900010Y-96456920D01*
X63890584Y-96385318D01*
X63885044Y-96343238D01*
X63824536Y-96197159D01*
X63728282Y-96071718D01*
X63602841Y-95975464D01*
X63456762Y-95914956D01*
X63456760Y-95914955D01*
X63300001Y-95894318D01*
X63299999Y-95894318D01*
X63143239Y-95914955D01*
X63143237Y-95914956D01*
X62997160Y-95975463D01*
X62871718Y-96071718D01*
X62775463Y-96197160D01*
X62714956Y-96343237D01*
X62714955Y-96343239D01*
X62694318Y-96499998D01*
X62694318Y-96500001D01*
X60000500Y-96500001D01*
X60000500Y-94999088D01*
X70229341Y-94999088D01*
X70234375Y-95060350D01*
X70234376Y-95060353D01*
X70274134Y-95163602D01*
X70274721Y-95165124D01*
X70311382Y-95224602D01*
X70311384Y-95224604D01*
X70311385Y-95224606D01*
X70367074Y-95291374D01*
X70367085Y-95291385D01*
X71743342Y-96530016D01*
X71791682Y-96565591D01*
X71833349Y-96590344D01*
X71833353Y-96590346D01*
X71833363Y-96590352D01*
X71863922Y-96606248D01*
X71973017Y-96632765D01*
X72042786Y-96636511D01*
X72057610Y-96635811D01*
X72125502Y-96652313D01*
X72173695Y-96702901D01*
X72182112Y-96723667D01*
X72200132Y-96783069D01*
X72209719Y-96814675D01*
X72302618Y-96988476D01*
X72302622Y-96988483D01*
X72427648Y-97140827D01*
X72579992Y-97265853D01*
X72579999Y-97265857D01*
X72753798Y-97358755D01*
X72753801Y-97358755D01*
X72753805Y-97358758D01*
X72942400Y-97415968D01*
X73138532Y-97435285D01*
X73334664Y-97415968D01*
X73523259Y-97358758D01*
X73530769Y-97354743D01*
X73599171Y-97340501D01*
X73664415Y-97365499D01*
X73682936Y-97382897D01*
X73706820Y-97410461D01*
X73724077Y-97430376D01*
X73724087Y-97430387D01*
X73768803Y-97472548D01*
X73768805Y-97472549D01*
X73768809Y-97472553D01*
X73868885Y-97523439D01*
X73935924Y-97543124D01*
X74021996Y-97555500D01*
X74021999Y-97555500D01*
X74561067Y-97555500D01*
X74561110Y-97555500D01*
X74567472Y-97555367D01*
X74580968Y-97554805D01*
X74678405Y-97534518D01*
X74743574Y-97509324D01*
X74819392Y-97466745D01*
X74838278Y-97452252D01*
X74866303Y-97436071D01*
X74907906Y-97418839D01*
X74939167Y-97410462D01*
X74983819Y-97404584D01*
X75016178Y-97404584D01*
X75060826Y-97410461D01*
X75092088Y-97418838D01*
X75133691Y-97436070D01*
X75161720Y-97452252D01*
X75183138Y-97468686D01*
X75183155Y-97468698D01*
X75183170Y-97468710D01*
X75183196Y-97468730D01*
X75188189Y-97472398D01*
X75188218Y-97472419D01*
X75188270Y-97472457D01*
X75199321Y-97480227D01*
X75288960Y-97523439D01*
X75288962Y-97523439D01*
X75288963Y-97523440D01*
X75355988Y-97543121D01*
X75355989Y-97543121D01*
X75355999Y-97543124D01*
X75442071Y-97555500D01*
X75442074Y-97555500D01*
X75511067Y-97555500D01*
X75511110Y-97555500D01*
X75517472Y-97555367D01*
X75530968Y-97554805D01*
X75628405Y-97534518D01*
X75693574Y-97509324D01*
X75769392Y-97466745D01*
X75788278Y-97452252D01*
X75816303Y-97436071D01*
X75857906Y-97418839D01*
X75889167Y-97410462D01*
X75933819Y-97404584D01*
X75966178Y-97404584D01*
X76010826Y-97410461D01*
X76042088Y-97418838D01*
X76083691Y-97436070D01*
X76111720Y-97452252D01*
X76133138Y-97468686D01*
X76133155Y-97468698D01*
X76133170Y-97468710D01*
X76133196Y-97468730D01*
X76138189Y-97472398D01*
X76138218Y-97472419D01*
X76138270Y-97472457D01*
X76149321Y-97480227D01*
X76238960Y-97523439D01*
X76238962Y-97523439D01*
X76238963Y-97523440D01*
X76305988Y-97543121D01*
X76305989Y-97543121D01*
X76305999Y-97543124D01*
X76392071Y-97555500D01*
X78570500Y-97555500D01*
X78637539Y-97575185D01*
X78683294Y-97627989D01*
X78694500Y-97679500D01*
X78694500Y-101820500D01*
X78674815Y-101887539D01*
X78622011Y-101933294D01*
X78570500Y-101944500D01*
X73045035Y-101944500D01*
X73030245Y-101945487D01*
X73024696Y-101945858D01*
X72981902Y-101951599D01*
X72967008Y-101953974D01*
X72862242Y-101994316D01*
X72862237Y-101994319D01*
X72802758Y-102030980D01*
X72802756Y-102030981D01*
X72802757Y-102030981D01*
X72749400Y-102075486D01*
X72735973Y-102086685D01*
X72659582Y-102171565D01*
X72653822Y-102178353D01*
X72641972Y-102193180D01*
X72591617Y-102284859D01*
X72568962Y-102350948D01*
X72554977Y-102410829D01*
X72561279Y-102522912D01*
X72561280Y-102522920D01*
X72561281Y-102522922D01*
X72566838Y-102545539D01*
X72577955Y-102590775D01*
X72577959Y-102590786D01*
X72588680Y-102620925D01*
X72592603Y-102690685D01*
X72558187Y-102751491D01*
X72550517Y-102758337D01*
X72427648Y-102859172D01*
X72302624Y-103011514D01*
X72274729Y-103063702D01*
X72225766Y-103113546D01*
X72157628Y-103129006D01*
X72140298Y-103126687D01*
X72055166Y-103109110D01*
X71985320Y-103107796D01*
X71985319Y-103107796D01*
X71985317Y-103107796D01*
X71985309Y-103107796D01*
X71924039Y-103112830D01*
X71924036Y-103112830D01*
X71924035Y-103112831D01*
X71819272Y-103153171D01*
X71819261Y-103153177D01*
X71759796Y-103189829D01*
X71759787Y-103189835D01*
X71693018Y-103245526D01*
X71693010Y-103245533D01*
X70576440Y-104486166D01*
X70572868Y-104490246D01*
X70523771Y-104566893D01*
X70523764Y-104566907D01*
X70495273Y-104630677D01*
X70475967Y-104689055D01*
X70475966Y-104689059D01*
X70472174Y-104801256D01*
X70472175Y-104801263D01*
X70482685Y-104870333D01*
X70482685Y-104870335D01*
X70482686Y-104870337D01*
X70507870Y-104953570D01*
X73453979Y-111266661D01*
X73880383Y-112180384D01*
X73936947Y-112301592D01*
X75689764Y-116057628D01*
X75689768Y-116057636D01*
X75736548Y-116129447D01*
X75736550Y-116129449D01*
X75781878Y-116181326D01*
X75825784Y-116222553D01*
X75925860Y-116273439D01*
X75992899Y-116293124D01*
X76078971Y-116305500D01*
X76078974Y-116305500D01*
X82625990Y-116305500D01*
X82626000Y-116305500D01*
X82690941Y-116298518D01*
X82742452Y-116287312D01*
X82780658Y-116276354D01*
X82877571Y-116219675D01*
X82930375Y-116173920D01*
X82930382Y-116173912D01*
X82930387Y-116173908D01*
X82972548Y-116129192D01*
X82972553Y-116129187D01*
X83023439Y-116029111D01*
X83043124Y-115962072D01*
X83055500Y-115876000D01*
X83055500Y-111677902D01*
X83075185Y-111610863D01*
X83091819Y-111590221D01*
X86090222Y-108591819D01*
X86151545Y-108558334D01*
X86177903Y-108555500D01*
X112706821Y-108555500D01*
X112707841Y-108555445D01*
X112723162Y-108554624D01*
X112757655Y-108550915D01*
X112764660Y-108550080D01*
X112871407Y-108515297D01*
X112932730Y-108481812D01*
X113002340Y-108429702D01*
X114590570Y-106841470D01*
X114651891Y-106807987D01*
X114671974Y-106805312D01*
X114683700Y-106804719D01*
X114716303Y-106801409D01*
X114721505Y-106800836D01*
X114828659Y-106767326D01*
X114890377Y-106734573D01*
X114890378Y-106734572D01*
X114890384Y-106734569D01*
X114916004Y-106717462D01*
X114941512Y-106700431D01*
X115003958Y-106625762D01*
X115062067Y-106586965D01*
X115131926Y-106585743D01*
X115191356Y-106622483D01*
X115192791Y-106624111D01*
X115241537Y-106680367D01*
X115241555Y-106680387D01*
X115286271Y-106722548D01*
X115286273Y-106722549D01*
X115286277Y-106722553D01*
X115386353Y-106773439D01*
X115453392Y-106793124D01*
X115539464Y-106805500D01*
X118664101Y-106805500D01*
X118731140Y-106825185D01*
X118776895Y-106877989D01*
X118786839Y-106947147D01*
X118757814Y-107010703D01*
X118751782Y-107017181D01*
X115277969Y-110490991D01*
X115237501Y-110517970D01*
X114829657Y-110685906D01*
X114823313Y-110688603D01*
X114813956Y-110694977D01*
X114791604Y-110707053D01*
X114747158Y-110725464D01*
X114621719Y-110821716D01*
X114525463Y-110947160D01*
X114464956Y-111093237D01*
X114464955Y-111093239D01*
X114444318Y-111249998D01*
X114444318Y-111250001D01*
X114464955Y-111406760D01*
X114464956Y-111406762D01*
X114519118Y-111537522D01*
X114525464Y-111552841D01*
X114621718Y-111678282D01*
X114747159Y-111774536D01*
X114893238Y-111835044D01*
X114971618Y-111845362D01*
X115049999Y-111855682D01*
X115050000Y-111855682D01*
X115050001Y-111855682D01*
X115102253Y-111848802D01*
X115206762Y-111835044D01*
X115352841Y-111774536D01*
X115478282Y-111678282D01*
X115551625Y-111582699D01*
X115608052Y-111541497D01*
X115677798Y-111537342D01*
X115738718Y-111571554D01*
X115748372Y-111582695D01*
X115821718Y-111678282D01*
X115947159Y-111774536D01*
X116093238Y-111835044D01*
X116171618Y-111845362D01*
X116249999Y-111855682D01*
X116250000Y-111855682D01*
X116250001Y-111855682D01*
X116302253Y-111848802D01*
X116406762Y-111835044D01*
X116552841Y-111774536D01*
X116678282Y-111678282D01*
X116774536Y-111552841D01*
X116794860Y-111503771D01*
X116805385Y-111483755D01*
X116814103Y-111470316D01*
X116982030Y-111062492D01*
X117009004Y-111022031D01*
X118031034Y-110000001D01*
X119194318Y-110000001D01*
X119214955Y-110156760D01*
X119214956Y-110156762D01*
X119275072Y-110301896D01*
X119275464Y-110302841D01*
X119371718Y-110428282D01*
X119497159Y-110524536D01*
X119643238Y-110585044D01*
X119721618Y-110595362D01*
X119799999Y-110605682D01*
X119800000Y-110605682D01*
X119800001Y-110605682D01*
X119852254Y-110598802D01*
X119956762Y-110585044D01*
X120102841Y-110524536D01*
X120228282Y-110428282D01*
X120324536Y-110302841D01*
X120385044Y-110156762D01*
X120405682Y-110000000D01*
X120401068Y-109964956D01*
X120391923Y-109895492D01*
X120385044Y-109843238D01*
X120324536Y-109697159D01*
X120228282Y-109571718D01*
X120102841Y-109475464D01*
X120093802Y-109471720D01*
X119956762Y-109414956D01*
X119956760Y-109414955D01*
X119843169Y-109400001D01*
X120894318Y-109400001D01*
X120914955Y-109556760D01*
X120914956Y-109556762D01*
X120975464Y-109702841D01*
X121071718Y-109828282D01*
X121197159Y-109924536D01*
X121343238Y-109985044D01*
X121397191Y-109992147D01*
X121499999Y-110005682D01*
X121500000Y-110005682D01*
X121500001Y-110005682D01*
X121552253Y-109998802D01*
X121656762Y-109985044D01*
X121802841Y-109924536D01*
X121928282Y-109828282D01*
X122024536Y-109702841D01*
X122085044Y-109556762D01*
X122105682Y-109400000D01*
X122092517Y-109300001D01*
X124744318Y-109300001D01*
X124764955Y-109456760D01*
X124764956Y-109456762D01*
X124824507Y-109600532D01*
X124825464Y-109602841D01*
X124921718Y-109728282D01*
X125047159Y-109824536D01*
X125193238Y-109885044D01*
X125206721Y-109886819D01*
X125349999Y-109905682D01*
X125350000Y-109905682D01*
X125350001Y-109905682D01*
X125402254Y-109898802D01*
X125506762Y-109885044D01*
X125652841Y-109824536D01*
X125778282Y-109728282D01*
X125874536Y-109602841D01*
X125935044Y-109456762D01*
X125955682Y-109300000D01*
X125935044Y-109143238D01*
X125874536Y-108997159D01*
X125778282Y-108871718D01*
X125652841Y-108775464D01*
X125506762Y-108714956D01*
X125506760Y-108714955D01*
X125350001Y-108694318D01*
X125349999Y-108694318D01*
X125193239Y-108714955D01*
X125193237Y-108714956D01*
X125047160Y-108775463D01*
X124921718Y-108871718D01*
X124825463Y-108997160D01*
X124764956Y-109143237D01*
X124764955Y-109143239D01*
X124744318Y-109299998D01*
X124744318Y-109300001D01*
X122092517Y-109300001D01*
X122085044Y-109243238D01*
X122024536Y-109097159D01*
X121928282Y-108971718D01*
X121802841Y-108875464D01*
X121793797Y-108871718D01*
X121656762Y-108814956D01*
X121656760Y-108814955D01*
X121500001Y-108794318D01*
X121499999Y-108794318D01*
X121343239Y-108814955D01*
X121343237Y-108814956D01*
X121197160Y-108875463D01*
X121071718Y-108971718D01*
X120975463Y-109097160D01*
X120914956Y-109243237D01*
X120914955Y-109243239D01*
X120894318Y-109399998D01*
X120894318Y-109400001D01*
X119843169Y-109400001D01*
X119800001Y-109394318D01*
X119799999Y-109394318D01*
X119643239Y-109414955D01*
X119643237Y-109414956D01*
X119497160Y-109475463D01*
X119371718Y-109571718D01*
X119275463Y-109697160D01*
X119214956Y-109843237D01*
X119214955Y-109843239D01*
X119194318Y-109999998D01*
X119194318Y-110000001D01*
X118031034Y-110000001D01*
X120981035Y-107050001D01*
X127644318Y-107050001D01*
X127664955Y-107206760D01*
X127664956Y-107206762D01*
X127725464Y-107352841D01*
X127821718Y-107478282D01*
X127947159Y-107574536D01*
X128093238Y-107635044D01*
X128171618Y-107645362D01*
X128249999Y-107655682D01*
X128250000Y-107655682D01*
X128250001Y-107655682D01*
X128302253Y-107648802D01*
X128406762Y-107635044D01*
X128552841Y-107574536D01*
X128678282Y-107478282D01*
X128774536Y-107352841D01*
X128835044Y-107206762D01*
X128855682Y-107050000D01*
X128851361Y-107017181D01*
X128835044Y-106893239D01*
X128835044Y-106893238D01*
X128774536Y-106747159D01*
X128678282Y-106621718D01*
X128552841Y-106525464D01*
X128406762Y-106464956D01*
X128406760Y-106464955D01*
X128250001Y-106444318D01*
X128249999Y-106444318D01*
X128093239Y-106464955D01*
X128093237Y-106464956D01*
X127947160Y-106525463D01*
X127821718Y-106621718D01*
X127725463Y-106747160D01*
X127664956Y-106893237D01*
X127664955Y-106893239D01*
X127644318Y-107049998D01*
X127644318Y-107050001D01*
X120981035Y-107050001D01*
X123022032Y-105009004D01*
X123062494Y-104982029D01*
X123470316Y-104814103D01*
X123476665Y-104811405D01*
X123486015Y-104805035D01*
X123508373Y-104792954D01*
X123552841Y-104774536D01*
X123678282Y-104678282D01*
X123774536Y-104552841D01*
X123835044Y-104406762D01*
X123855682Y-104250000D01*
X123835044Y-104093238D01*
X123835043Y-104093237D01*
X123833983Y-104085180D01*
X123835269Y-104085010D01*
X123836732Y-104023489D01*
X123875894Y-103965626D01*
X123940122Y-103938121D01*
X124009024Y-103949707D01*
X124042526Y-103973563D01*
X124697849Y-104628886D01*
X124713977Y-104648745D01*
X124719916Y-104657836D01*
X124747932Y-104679641D01*
X124753693Y-104684730D01*
X124756482Y-104687519D01*
X124774433Y-104700335D01*
X124776489Y-104701868D01*
X124818810Y-104734809D01*
X124825722Y-104738549D01*
X124832801Y-104742010D01*
X124884199Y-104757312D01*
X124886610Y-104758085D01*
X124945133Y-104778176D01*
X124967236Y-104788282D01*
X124992893Y-104803212D01*
X125174266Y-104908754D01*
X125180825Y-104913154D01*
X125191421Y-104921284D01*
X125195659Y-104924536D01*
X125211690Y-104931176D01*
X125219145Y-104934870D01*
X125222805Y-104937000D01*
X125231561Y-104941720D01*
X125235459Y-104943661D01*
X125237380Y-104944618D01*
X125237388Y-104944621D01*
X125237387Y-104944621D01*
X125262315Y-104955671D01*
X125262317Y-104955671D01*
X125262319Y-104955672D01*
X125265514Y-104956279D01*
X125289818Y-104963537D01*
X125341738Y-104985044D01*
X125480262Y-105003280D01*
X125498499Y-105005682D01*
X125498500Y-105005682D01*
X125498501Y-105005682D01*
X125550754Y-104998802D01*
X125655262Y-104985044D01*
X125801341Y-104924536D01*
X125926782Y-104828282D01*
X126023036Y-104702841D01*
X126083544Y-104556762D01*
X126104182Y-104400000D01*
X126083544Y-104243238D01*
X126023036Y-104097159D01*
X125926782Y-103971718D01*
X125801341Y-103875464D01*
X125718468Y-103841137D01*
X125655262Y-103814956D01*
X125655260Y-103814955D01*
X125498501Y-103794318D01*
X125498499Y-103794318D01*
X125341736Y-103814956D01*
X125301269Y-103831718D01*
X125275677Y-103839214D01*
X125264934Y-103841137D01*
X125264914Y-103841143D01*
X125127503Y-103893166D01*
X125057837Y-103898493D01*
X124996350Y-103865310D01*
X124995918Y-103864880D01*
X124263788Y-103132750D01*
X124230303Y-103071427D01*
X124235287Y-103001735D01*
X124277159Y-102945802D01*
X124342623Y-102921385D01*
X124399160Y-102930607D01*
X124456905Y-102954668D01*
X124463313Y-102957254D01*
X124463317Y-102957254D01*
X124463321Y-102957256D01*
X124474424Y-102959361D01*
X124498783Y-102966630D01*
X124518427Y-102974766D01*
X124543238Y-102985044D01*
X124679361Y-103002964D01*
X124699999Y-103005682D01*
X124700000Y-103005682D01*
X124700001Y-103005682D01*
X124752254Y-102998802D01*
X124856762Y-102985044D01*
X125002841Y-102924536D01*
X125128282Y-102828282D01*
X125224536Y-102702841D01*
X125285044Y-102556762D01*
X125292516Y-102500001D01*
X127394318Y-102500001D01*
X127414955Y-102656760D01*
X127414956Y-102656762D01*
X127447009Y-102734146D01*
X127475464Y-102802841D01*
X127571718Y-102928282D01*
X127697159Y-103024536D01*
X127843238Y-103085044D01*
X127897047Y-103092128D01*
X127999999Y-103105682D01*
X128000000Y-103105682D01*
X128000001Y-103105682D01*
X128052254Y-103098802D01*
X128156762Y-103085044D01*
X128302841Y-103024536D01*
X128428282Y-102928282D01*
X128524536Y-102802841D01*
X128585044Y-102656762D01*
X128603788Y-102514388D01*
X128605682Y-102500001D01*
X128605682Y-102499998D01*
X128585044Y-102343239D01*
X128585044Y-102343238D01*
X128524536Y-102197159D01*
X128431171Y-102075484D01*
X128405979Y-102010317D01*
X128420017Y-101941873D01*
X128431167Y-101924521D01*
X128524536Y-101802841D01*
X128585044Y-101656762D01*
X128603973Y-101512984D01*
X128605682Y-101500001D01*
X128605682Y-101499998D01*
X128585044Y-101343239D01*
X128585044Y-101343238D01*
X128524536Y-101197159D01*
X128428282Y-101071718D01*
X128302841Y-100975464D01*
X128293797Y-100971718D01*
X128156762Y-100914956D01*
X128156760Y-100914955D01*
X128000001Y-100894318D01*
X127999999Y-100894318D01*
X127843239Y-100914955D01*
X127843237Y-100914956D01*
X127697160Y-100975463D01*
X127571718Y-101071718D01*
X127475463Y-101197160D01*
X127414956Y-101343237D01*
X127414955Y-101343239D01*
X127394318Y-101499998D01*
X127394318Y-101500001D01*
X127414955Y-101656760D01*
X127414956Y-101656762D01*
X127475464Y-101802842D01*
X127568826Y-101924514D01*
X127594020Y-101989683D01*
X127579981Y-102058128D01*
X127568826Y-102075486D01*
X127475464Y-102197157D01*
X127414956Y-102343237D01*
X127414955Y-102343239D01*
X127394318Y-102499998D01*
X127394318Y-102500001D01*
X125292516Y-102500001D01*
X125298802Y-102452254D01*
X125305682Y-102400001D01*
X125305682Y-102399999D01*
X125294706Y-102316630D01*
X125287999Y-102265684D01*
X125298765Y-102196650D01*
X125345144Y-102144394D01*
X125410938Y-102125500D01*
X125602101Y-102125500D01*
X125649793Y-102135038D01*
X125680139Y-102147682D01*
X126056905Y-102304668D01*
X126063313Y-102307254D01*
X126063317Y-102307254D01*
X126063321Y-102307256D01*
X126074424Y-102309361D01*
X126098783Y-102316630D01*
X126118427Y-102324766D01*
X126143238Y-102335044D01*
X126264042Y-102350948D01*
X126299999Y-102355682D01*
X126300000Y-102355682D01*
X126300001Y-102355682D01*
X126394514Y-102343239D01*
X126456762Y-102335044D01*
X126602841Y-102274536D01*
X126728282Y-102178282D01*
X126824536Y-102052841D01*
X126885044Y-101906762D01*
X126905682Y-101750000D01*
X126899473Y-101702841D01*
X126885044Y-101593239D01*
X126885044Y-101593238D01*
X126824536Y-101447159D01*
X126728282Y-101321718D01*
X126602841Y-101225464D01*
X126456762Y-101164956D01*
X126431230Y-101161594D01*
X126304289Y-101144882D01*
X126240393Y-101116615D01*
X126201922Y-101058291D01*
X126197536Y-101038128D01*
X126193264Y-101005682D01*
X126188717Y-100971138D01*
X126199483Y-100902105D01*
X126245863Y-100849849D01*
X126313132Y-100830964D01*
X126335177Y-100834000D01*
X126335180Y-100833983D01*
X126343237Y-100835043D01*
X126343238Y-100835044D01*
X126380655Y-100839970D01*
X126499999Y-100855682D01*
X126500000Y-100855682D01*
X126500001Y-100855682D01*
X126552254Y-100848802D01*
X126656762Y-100835044D01*
X126802841Y-100774536D01*
X126928282Y-100678282D01*
X127024536Y-100552841D01*
X127085044Y-100406762D01*
X127105682Y-100250000D01*
X127100997Y-100214417D01*
X127085044Y-100093239D01*
X127085044Y-100093238D01*
X127024536Y-99947159D01*
X126928282Y-99821718D01*
X126802841Y-99725464D01*
X126799649Y-99724142D01*
X126656762Y-99664956D01*
X126656760Y-99664955D01*
X126500001Y-99644318D01*
X126499999Y-99644318D01*
X126343239Y-99664955D01*
X126343234Y-99664957D01*
X126294187Y-99685273D01*
X126272585Y-99691988D01*
X126256907Y-99695329D01*
X126256904Y-99695330D01*
X125953576Y-99821718D01*
X125849793Y-99864961D01*
X125802101Y-99874500D01*
X124356904Y-99874500D01*
X124289865Y-99854815D01*
X124244110Y-99802011D01*
X124234166Y-99732853D01*
X124263191Y-99669297D01*
X124269223Y-99662819D01*
X124378328Y-99553713D01*
X124378327Y-99553713D01*
X124378339Y-99553702D01*
X124419238Y-99502976D01*
X124447695Y-99458745D01*
X124466914Y-99424130D01*
X124495474Y-99315552D01*
X124500529Y-99245865D01*
X124500528Y-99245863D01*
X124500755Y-99242748D01*
X124501761Y-99242820D01*
X124521669Y-99180174D01*
X124575470Y-99135596D01*
X124624479Y-99125500D01*
X128802101Y-99125500D01*
X128849793Y-99135038D01*
X129256905Y-99304668D01*
X129263313Y-99307254D01*
X129263317Y-99307254D01*
X129263321Y-99307256D01*
X129274424Y-99309361D01*
X129298783Y-99316630D01*
X129318427Y-99324766D01*
X129343238Y-99335044D01*
X129479361Y-99352964D01*
X129499999Y-99355682D01*
X129500000Y-99355682D01*
X129500001Y-99355682D01*
X129552254Y-99348802D01*
X129656762Y-99335044D01*
X129802841Y-99274536D01*
X129928282Y-99178282D01*
X130024536Y-99052841D01*
X130085044Y-98906762D01*
X130105682Y-98750000D01*
X130105208Y-98746402D01*
X130085044Y-98593239D01*
X130085044Y-98593238D01*
X130024536Y-98447159D01*
X129928282Y-98321718D01*
X129802841Y-98225464D01*
X129735460Y-98197554D01*
X129656762Y-98164956D01*
X129656760Y-98164955D01*
X129500001Y-98144318D01*
X129500000Y-98144318D01*
X129494015Y-98145106D01*
X129424980Y-98134338D01*
X129372725Y-98087956D01*
X129353842Y-98020687D01*
X129354894Y-98005982D01*
X129355682Y-98000000D01*
X129350529Y-97960862D01*
X129339286Y-97875463D01*
X129335044Y-97843238D01*
X129274536Y-97697159D01*
X129178282Y-97571718D01*
X129178280Y-97571716D01*
X129178279Y-97571715D01*
X129165280Y-97561741D01*
X129124077Y-97505313D01*
X129119923Y-97435567D01*
X129154136Y-97374647D01*
X129165276Y-97364994D01*
X129249515Y-97300355D01*
X129314683Y-97275162D01*
X129383128Y-97289200D01*
X129400477Y-97300349D01*
X129497159Y-97374536D01*
X129643238Y-97435044D01*
X129721368Y-97445330D01*
X129799999Y-97455682D01*
X129800000Y-97455682D01*
X129800001Y-97455682D01*
X129852253Y-97448802D01*
X129956762Y-97435044D01*
X130102841Y-97374536D01*
X130228282Y-97278282D01*
X130324536Y-97152841D01*
X130385044Y-97006762D01*
X130405682Y-96850000D01*
X130401068Y-96814956D01*
X130385044Y-96693239D01*
X130385044Y-96693238D01*
X130324536Y-96547159D01*
X130250354Y-96450483D01*
X130225162Y-96385318D01*
X130239200Y-96316873D01*
X130250349Y-96299522D01*
X130324536Y-96202841D01*
X130385044Y-96056762D01*
X130405682Y-95900000D01*
X130397130Y-95835044D01*
X130385044Y-95743239D01*
X130385044Y-95743238D01*
X130324536Y-95597159D01*
X130228282Y-95471718D01*
X130102841Y-95375464D01*
X129956762Y-95314956D01*
X129956760Y-95314955D01*
X129800001Y-95294318D01*
X129799999Y-95294318D01*
X129643239Y-95314955D01*
X129643237Y-95314956D01*
X129497157Y-95375464D01*
X129400486Y-95449643D01*
X129335317Y-95474837D01*
X129266872Y-95460798D01*
X129249514Y-95449643D01*
X129152842Y-95375464D01*
X129006762Y-95314956D01*
X129006760Y-95314955D01*
X128850001Y-95294318D01*
X128849999Y-95294318D01*
X128693239Y-95314955D01*
X128693237Y-95314956D01*
X128547160Y-95375463D01*
X128421718Y-95471718D01*
X128325463Y-95597160D01*
X128264956Y-95743237D01*
X128264955Y-95743239D01*
X128244318Y-95899998D01*
X128244318Y-95900001D01*
X128264955Y-96056760D01*
X128264956Y-96056762D01*
X128325464Y-96202842D01*
X128399643Y-96299514D01*
X128424837Y-96364683D01*
X128410798Y-96433128D01*
X128399643Y-96450486D01*
X128325464Y-96547157D01*
X128264956Y-96693237D01*
X128264955Y-96693239D01*
X128244318Y-96849998D01*
X128244318Y-96850001D01*
X128264955Y-97006760D01*
X128264956Y-97006762D01*
X128320487Y-97140827D01*
X128325464Y-97152841D01*
X128421718Y-97278282D01*
X128422801Y-97279113D01*
X128423484Y-97280048D01*
X128427465Y-97284029D01*
X128426844Y-97284649D01*
X128464005Y-97335535D01*
X128468165Y-97405281D01*
X128433957Y-97466204D01*
X128395012Y-97491952D01*
X128203583Y-97571715D01*
X128099793Y-97614961D01*
X128052101Y-97624500D01*
X124193195Y-97624500D01*
X124126156Y-97604815D01*
X124105514Y-97588181D01*
X121812367Y-95295034D01*
X121778882Y-95233711D01*
X121783866Y-95164019D01*
X121812366Y-95119673D01*
X121812368Y-95119672D01*
X122415749Y-94516291D01*
X122463386Y-94454590D01*
X122495090Y-94400423D01*
X122517598Y-94353058D01*
X122535593Y-94250001D01*
X123494318Y-94250001D01*
X123514955Y-94406760D01*
X123514956Y-94406762D01*
X123574722Y-94551051D01*
X123575464Y-94552841D01*
X123671718Y-94678282D01*
X123797159Y-94774536D01*
X123943238Y-94835044D01*
X124021619Y-94845363D01*
X124099999Y-94855682D01*
X124100000Y-94855682D01*
X124100001Y-94855682D01*
X124152254Y-94848802D01*
X124256762Y-94835044D01*
X124402841Y-94774536D01*
X124528282Y-94678282D01*
X124624536Y-94552841D01*
X124685044Y-94406762D01*
X124705682Y-94250000D01*
X124704689Y-94242461D01*
X124685044Y-94093239D01*
X124685044Y-94093238D01*
X124624536Y-93947159D01*
X124528282Y-93821718D01*
X124402841Y-93725464D01*
X124256762Y-93664956D01*
X124256760Y-93664955D01*
X124100001Y-93644318D01*
X124099999Y-93644318D01*
X123943239Y-93664955D01*
X123943237Y-93664956D01*
X123797160Y-93725463D01*
X123671718Y-93821718D01*
X123575463Y-93947160D01*
X123514956Y-94093237D01*
X123514955Y-94093239D01*
X123494318Y-94249998D01*
X123494318Y-94250001D01*
X122535593Y-94250001D01*
X122536910Y-94242461D01*
X122536077Y-94172596D01*
X122529880Y-94117855D01*
X122541898Y-94049029D01*
X122577606Y-94005533D01*
X122678282Y-93928282D01*
X122757685Y-93824800D01*
X122814112Y-93783599D01*
X122883858Y-93779444D01*
X122887412Y-93780318D01*
X122897463Y-93782951D01*
X122967155Y-93787935D01*
X123028611Y-93786127D01*
X123135358Y-93751344D01*
X123196681Y-93717859D01*
X123266291Y-93665749D01*
X125185488Y-91746553D01*
X125196424Y-91734379D01*
X125218192Y-91707365D01*
X125222553Y-91701824D01*
X125273439Y-91601748D01*
X125293124Y-91534709D01*
X125305500Y-91448637D01*
X125305500Y-90874000D01*
X125298518Y-90809059D01*
X125287312Y-90757548D01*
X125276354Y-90719342D01*
X125219675Y-90622429D01*
X125173920Y-90569625D01*
X125173918Y-90569623D01*
X125173908Y-90569612D01*
X125129192Y-90527451D01*
X125129189Y-90527449D01*
X125129187Y-90527447D01*
X125029111Y-90476561D01*
X125029110Y-90476560D01*
X125029109Y-90476560D01*
X124962078Y-90456877D01*
X124962072Y-90456876D01*
X124876000Y-90444500D01*
X124875997Y-90444500D01*
X121929500Y-90444500D01*
X121862461Y-90424815D01*
X121816706Y-90372011D01*
X121805500Y-90320500D01*
X121805500Y-89374009D01*
X121805500Y-89374000D01*
X121798518Y-89309059D01*
X121787312Y-89257548D01*
X121776354Y-89219342D01*
X121719675Y-89122429D01*
X121673920Y-89069625D01*
X121673918Y-89069623D01*
X121671873Y-89067263D01*
X121673060Y-89066234D01*
X121643798Y-89009550D01*
X121650401Y-88939993D01*
X121693562Y-88885048D01*
X121724590Y-88868974D01*
X121849305Y-88825334D01*
X121849307Y-88825333D01*
X121863107Y-88816661D01*
X121863107Y-88816660D01*
X122136891Y-88816660D01*
X122150697Y-88825335D01*
X122150701Y-88825337D01*
X122320858Y-88884877D01*
X122320861Y-88884878D01*
X122499997Y-88905062D01*
X122500003Y-88905062D01*
X122679138Y-88884878D01*
X122849307Y-88825333D01*
X122863107Y-88816661D01*
X122863107Y-88816660D01*
X122500001Y-88453553D01*
X122500000Y-88453553D01*
X122136891Y-88816660D01*
X121863107Y-88816660D01*
X121500001Y-88453553D01*
X121500000Y-88453553D01*
X121133385Y-88820166D01*
X121123704Y-88875439D01*
X121076355Y-88926818D01*
X121012539Y-88944500D01*
X119499500Y-88944500D01*
X119499491Y-88944500D01*
X119499490Y-88944501D01*
X119434564Y-88951481D01*
X119434552Y-88951483D01*
X119383046Y-88962688D01*
X119344848Y-88973643D01*
X119344835Y-88973649D01*
X119332777Y-88980701D01*
X119264969Y-88997550D01*
X119218800Y-88982742D01*
X119217625Y-88985422D01*
X119207848Y-88981133D01*
X119181505Y-88965437D01*
X119181189Y-88965191D01*
X119139038Y-88950720D01*
X119134263Y-88948857D01*
X119093458Y-88930958D01*
X119093446Y-88930955D01*
X119093044Y-88930922D01*
X119063042Y-88924631D01*
X119062660Y-88924500D01*
X119018091Y-88924500D01*
X119012976Y-88924288D01*
X119003881Y-88923534D01*
X118968565Y-88920607D01*
X118968373Y-88920655D01*
X118968174Y-88920706D01*
X118937737Y-88924500D01*
X112197899Y-88924500D01*
X112150207Y-88914961D01*
X111743164Y-88745359D01*
X111743119Y-88745341D01*
X111743093Y-88745330D01*
X111736653Y-88742732D01*
X111736651Y-88742731D01*
X111725557Y-88740629D01*
X111701196Y-88733360D01*
X111656763Y-88714956D01*
X111500001Y-88694318D01*
X111499999Y-88694318D01*
X111343239Y-88714955D01*
X111343237Y-88714956D01*
X111197160Y-88775463D01*
X111071718Y-88871718D01*
X110975463Y-88997160D01*
X110914956Y-89143237D01*
X110914955Y-89143239D01*
X110894318Y-89299998D01*
X110894318Y-89300001D01*
X110916017Y-89464820D01*
X110914731Y-89464989D01*
X110913265Y-89526515D01*
X110874100Y-89584376D01*
X110809870Y-89611878D01*
X110740968Y-89600288D01*
X110707473Y-89576435D01*
X109802149Y-88671111D01*
X109786022Y-88651252D01*
X109780086Y-88642167D01*
X109780083Y-88642163D01*
X109752074Y-88620363D01*
X109746310Y-88615272D01*
X109743515Y-88612477D01*
X109725550Y-88599652D01*
X109723512Y-88598133D01*
X109681189Y-88565191D01*
X109681188Y-88565190D01*
X109674274Y-88561448D01*
X109667197Y-88557988D01*
X109615816Y-88542691D01*
X109613377Y-88541910D01*
X109562661Y-88524500D01*
X109554923Y-88523208D01*
X109547085Y-88522231D01*
X109497826Y-88524269D01*
X109493523Y-88524447D01*
X109490966Y-88524500D01*
X106761803Y-88524500D01*
X106736358Y-88521861D01*
X106725732Y-88519633D01*
X106725729Y-88519633D01*
X106690507Y-88524023D01*
X106682831Y-88524500D01*
X106678886Y-88524500D01*
X106657120Y-88528131D01*
X106654590Y-88528499D01*
X106601382Y-88535132D01*
X106593842Y-88537377D01*
X106586383Y-88539937D01*
X106539241Y-88565450D01*
X106536963Y-88566622D01*
X106488791Y-88590172D01*
X106482381Y-88594748D01*
X106476175Y-88599579D01*
X106439851Y-88639036D01*
X106438078Y-88640884D01*
X106383787Y-88695174D01*
X106341777Y-88722776D01*
X105933546Y-88884504D01*
X105923534Y-88888677D01*
X105914724Y-88894673D01*
X105892423Y-88906714D01*
X105847159Y-88925463D01*
X105721719Y-89021716D01*
X105648376Y-89117300D01*
X105591948Y-89158502D01*
X105522202Y-89162657D01*
X105461281Y-89128444D01*
X105451624Y-89117300D01*
X105446635Y-89110798D01*
X105378282Y-89021718D01*
X105252841Y-88925464D01*
X105241354Y-88920706D01*
X105106762Y-88864956D01*
X105106760Y-88864955D01*
X104950001Y-88844318D01*
X104949999Y-88844318D01*
X104793239Y-88864955D01*
X104793237Y-88864956D01*
X104647160Y-88925463D01*
X104521718Y-89021718D01*
X104425463Y-89147160D01*
X104364956Y-89293237D01*
X104364955Y-89293239D01*
X104344318Y-89449998D01*
X104344318Y-89450001D01*
X104364955Y-89606760D01*
X104364956Y-89606762D01*
X104406376Y-89706760D01*
X104425464Y-89752841D01*
X104521718Y-89878282D01*
X104546319Y-89897159D01*
X104590753Y-89931255D01*
X104631955Y-89987683D01*
X104636110Y-90057429D01*
X104601897Y-90118349D01*
X104562709Y-90144195D01*
X104549910Y-90149495D01*
X104549620Y-90149614D01*
X104549615Y-90149618D01*
X104549459Y-90149999D01*
X104549476Y-90174616D01*
X104549471Y-90174616D01*
X104549500Y-90174759D01*
X104549500Y-90975467D01*
X104549416Y-90975889D01*
X104549459Y-91000001D01*
X104549544Y-91000206D01*
X104559044Y-91023266D01*
X104566381Y-91092749D01*
X104534987Y-91155169D01*
X104474830Y-91190707D01*
X104444393Y-91194500D01*
X97499500Y-91194500D01*
X97432461Y-91174815D01*
X97386706Y-91122011D01*
X97375500Y-91070500D01*
X97375500Y-91049476D01*
X97378385Y-91022884D01*
X97383409Y-91000001D01*
X97473461Y-90589860D01*
X97473461Y-90589858D01*
X97473506Y-90589654D01*
X97480058Y-90568797D01*
X97485044Y-90556762D01*
X97505682Y-90400000D01*
X97497099Y-90334809D01*
X97485044Y-90243239D01*
X97485044Y-90243238D01*
X97424536Y-90097159D01*
X97328282Y-89971718D01*
X97202841Y-89875464D01*
X97157690Y-89856762D01*
X97056762Y-89814956D01*
X97056760Y-89814955D01*
X96900001Y-89794318D01*
X96899999Y-89794318D01*
X96743239Y-89814955D01*
X96743237Y-89814956D01*
X96597160Y-89875463D01*
X96471718Y-89971718D01*
X96375463Y-90097160D01*
X96314956Y-90243237D01*
X96314955Y-90243239D01*
X96294318Y-90399998D01*
X96294318Y-90400001D01*
X96314955Y-90556760D01*
X96314956Y-90556762D01*
X96375464Y-90702842D01*
X96407917Y-90745135D01*
X96410727Y-90749112D01*
X96575579Y-91002966D01*
X96595582Y-91069911D01*
X96576216Y-91137043D01*
X96523630Y-91183048D01*
X96471583Y-91194500D01*
X86177904Y-91194500D01*
X86110865Y-91174815D01*
X86090223Y-91158181D01*
X83091819Y-88159776D01*
X83058334Y-88098453D01*
X83055500Y-88072095D01*
X83055500Y-83624009D01*
X83055500Y-83624000D01*
X83048518Y-83559059D01*
X83037312Y-83507548D01*
X83026354Y-83469342D01*
X82969675Y-83372429D01*
X82923920Y-83319625D01*
X82923918Y-83319623D01*
X82923907Y-83319611D01*
X82914006Y-83310276D01*
X82878733Y-83249963D01*
X82881668Y-83180155D01*
X82921878Y-83123016D01*
X82986597Y-83096686D01*
X83016636Y-83097306D01*
X83454351Y-83159944D01*
X83536223Y-83171660D01*
X83599798Y-83200643D01*
X83630388Y-83243035D01*
X83630846Y-83242791D01*
X83632655Y-83246176D01*
X83633216Y-83246953D01*
X83633716Y-83248161D01*
X83726618Y-83421968D01*
X83726622Y-83421975D01*
X83851648Y-83574319D01*
X84003992Y-83699345D01*
X84003999Y-83699349D01*
X84177798Y-83792247D01*
X84177801Y-83792247D01*
X84177805Y-83792250D01*
X84366400Y-83849460D01*
X84562532Y-83868777D01*
X84758664Y-83849460D01*
X84947259Y-83792250D01*
X85121070Y-83699346D01*
X85273415Y-83574319D01*
X85398442Y-83421974D01*
X85491346Y-83248163D01*
X85548556Y-83059568D01*
X85567873Y-82863436D01*
X85548556Y-82667304D01*
X85491346Y-82478709D01*
X85491343Y-82478705D01*
X85491343Y-82478702D01*
X85398445Y-82304903D01*
X85398441Y-82304896D01*
X85273415Y-82152552D01*
X85121071Y-82027526D01*
X85121064Y-82027522D01*
X84947265Y-81934624D01*
X84947259Y-81934622D01*
X84758664Y-81877412D01*
X84758661Y-81877411D01*
X84562532Y-81858095D01*
X84366402Y-81877411D01*
X84281778Y-81903081D01*
X84177805Y-81934622D01*
X84177802Y-81934623D01*
X84177800Y-81934624D01*
X84134351Y-81957848D01*
X84065948Y-81972089D01*
X84000705Y-81947088D01*
X83959335Y-81890783D01*
X83953149Y-81830923D01*
X84047837Y-81169234D01*
X84076820Y-81105661D01*
X84135573Y-81067848D01*
X84205443Y-81067802D01*
X84249252Y-81090949D01*
X84363802Y-81184959D01*
X84363809Y-81184963D01*
X84537608Y-81277861D01*
X84537611Y-81277861D01*
X84537615Y-81277864D01*
X84726210Y-81335074D01*
X84922342Y-81354391D01*
X85118474Y-81335074D01*
X85307069Y-81277864D01*
X85480880Y-81184960D01*
X85633225Y-81059933D01*
X85758252Y-80907588D01*
X85851156Y-80733777D01*
X85908366Y-80545182D01*
X85927683Y-80349050D01*
X85908366Y-80152918D01*
X85851156Y-79964323D01*
X85851153Y-79964319D01*
X85851153Y-79964316D01*
X85758255Y-79790517D01*
X85758251Y-79790510D01*
X85633225Y-79638166D01*
X85480881Y-79513140D01*
X85480874Y-79513136D01*
X85307075Y-79420238D01*
X85307069Y-79420236D01*
X85118474Y-79363026D01*
X85118471Y-79363025D01*
X84922342Y-79343709D01*
X84726212Y-79363025D01*
X84537608Y-79420238D01*
X84363809Y-79513136D01*
X84363802Y-79513140D01*
X84211463Y-79638162D01*
X84142603Y-79722066D01*
X84084856Y-79761399D01*
X84029185Y-79766149D01*
X82783313Y-79587864D01*
X82783178Y-79587817D01*
X82783178Y-79587820D01*
X82758855Y-79584323D01*
X82758854Y-79584323D01*
X82758720Y-79584357D01*
X82758450Y-79584425D01*
X82758362Y-79584577D01*
X82758241Y-79584781D01*
X82754794Y-79608375D01*
X82754824Y-79608944D01*
X82274439Y-82965928D01*
X82274371Y-82966123D01*
X82270939Y-82990091D01*
X82276219Y-83011212D01*
X82289364Y-83029535D01*
X82292932Y-83099313D01*
X82258209Y-83159944D01*
X82196218Y-83192177D01*
X82172326Y-83194500D01*
X76575162Y-83194500D01*
X76496819Y-83204717D01*
X76496818Y-83204717D01*
X76435362Y-83221023D01*
X76435334Y-83221031D01*
X76385040Y-83239221D01*
X76293629Y-83304409D01*
X76245165Y-83354741D01*
X76194376Y-83425329D01*
X74068354Y-87500206D01*
X73964945Y-87698406D01*
X73908029Y-87807495D01*
X70270487Y-94779452D01*
X70270486Y-94779455D01*
X70264777Y-94791683D01*
X70264769Y-94791703D01*
X70253900Y-94817952D01*
X70253355Y-94819274D01*
X70230656Y-94929212D01*
X70230655Y-94929225D01*
X70229341Y-94999069D01*
X70229341Y-94999088D01*
X60000500Y-94999088D01*
X60000500Y-91124500D01*
X60020185Y-91057461D01*
X60072989Y-91011706D01*
X60124500Y-91000500D01*
X61975240Y-91000500D01*
X61975383Y-91000528D01*
X61975384Y-91000524D01*
X61999997Y-91000539D01*
X62000000Y-91000541D01*
X62000383Y-91000383D01*
X62000500Y-91000099D01*
X62000541Y-91000000D01*
X62000540Y-90999997D01*
X62000583Y-90975889D01*
X62000500Y-90975467D01*
X62000500Y-89124500D01*
X62020185Y-89057461D01*
X62072989Y-89011706D01*
X62124500Y-89000500D01*
X63975240Y-89000500D01*
X63975383Y-89000528D01*
X63975384Y-89000524D01*
X63999997Y-89000539D01*
X64000000Y-89000541D01*
X64000383Y-89000383D01*
X64000500Y-89000099D01*
X64000541Y-89000000D01*
X64000540Y-88999997D01*
X64000583Y-88975889D01*
X64000500Y-88975467D01*
X64000500Y-87124500D01*
X64020185Y-87057461D01*
X64072989Y-87011706D01*
X64124500Y-87000500D01*
X65975240Y-87000500D01*
X65975383Y-87000528D01*
X65975384Y-87000524D01*
X65999997Y-87000539D01*
X66000000Y-87000541D01*
X66000383Y-87000383D01*
X66000500Y-87000099D01*
X66000541Y-87000000D01*
X66000540Y-86999997D01*
X66000583Y-86975889D01*
X66000500Y-86975467D01*
X66000500Y-85124500D01*
X66020185Y-85057461D01*
X66072989Y-85011706D01*
X66124500Y-85000500D01*
X67975240Y-85000500D01*
X67975383Y-85000528D01*
X67975384Y-85000524D01*
X67999997Y-85000539D01*
X68000000Y-85000541D01*
X68000383Y-85000383D01*
X68000500Y-85000099D01*
X68000541Y-85000000D01*
X68000540Y-84999997D01*
X68000583Y-84975889D01*
X68000500Y-84975467D01*
X68000500Y-83124500D01*
X68020185Y-83057461D01*
X68072989Y-83011706D01*
X68124500Y-83000500D01*
X69975240Y-83000500D01*
X69975383Y-83000528D01*
X69975384Y-83000524D01*
X69999997Y-83000539D01*
X70000000Y-83000541D01*
X70000383Y-83000383D01*
X70000500Y-83000099D01*
X70000541Y-83000000D01*
X70000540Y-82999997D01*
X70000583Y-82975889D01*
X70000500Y-82975467D01*
X70000500Y-81124500D01*
X70020185Y-81057461D01*
X70072989Y-81011706D01*
X70124500Y-81000500D01*
X71975240Y-81000500D01*
X71975383Y-81000528D01*
X71975384Y-81000524D01*
X71999997Y-81000539D01*
X72000000Y-81000541D01*
X72000383Y-81000383D01*
X72000500Y-81000099D01*
X72000541Y-81000000D01*
X72000540Y-80999997D01*
X72000583Y-80975889D01*
X72000500Y-80975467D01*
X72000500Y-79124500D01*
X72020185Y-79057461D01*
X72072989Y-79011706D01*
X72124500Y-79000500D01*
X73975240Y-79000500D01*
X73975383Y-79000528D01*
X73975384Y-79000524D01*
X73999997Y-79000539D01*
X74000000Y-79000541D01*
X74000383Y-79000383D01*
X74000500Y-79000099D01*
X74000541Y-79000000D01*
X74000540Y-78999997D01*
X74000583Y-78975889D01*
X74000500Y-78975467D01*
X74000500Y-77124500D01*
X74020185Y-77057461D01*
X74072989Y-77011706D01*
X74124500Y-77000500D01*
X85925045Y-77000500D01*
X85992084Y-77020185D01*
G37*
G04 #@! TD.AperFunction*
G04 #@! TA.AperFunction,NonConductor*
G36*
X86942539Y-77020185D02*
G01*
X86988294Y-77072989D01*
X86999500Y-77124500D01*
X86999500Y-77309884D01*
X86979815Y-77376923D01*
X86927011Y-77422678D01*
X86857853Y-77432622D01*
X86794297Y-77403597D01*
X86777126Y-77385374D01*
X86728282Y-77321718D01*
X86602841Y-77225464D01*
X86602840Y-77225463D01*
X86599468Y-77222876D01*
X86558266Y-77166448D01*
X86554111Y-77096702D01*
X86588324Y-77035781D01*
X86650041Y-77003029D01*
X86674955Y-77000500D01*
X86875500Y-77000500D01*
X86942539Y-77020185D01*
G37*
G04 #@! TD.AperFunction*
G04 #@! TA.AperFunction,NonConductor*
G36*
X86964218Y-122603483D02*
G01*
X86996971Y-122665200D01*
X86999500Y-122690115D01*
X86999500Y-122875500D01*
X86979815Y-122942539D01*
X86927011Y-122988294D01*
X86875500Y-122999500D01*
X86674955Y-122999500D01*
X86607916Y-122979815D01*
X86562161Y-122927011D01*
X86552217Y-122857853D01*
X86581242Y-122794297D01*
X86599468Y-122777124D01*
X86602841Y-122774536D01*
X86728282Y-122678282D01*
X86777125Y-122614628D01*
X86833552Y-122573426D01*
X86903298Y-122569271D01*
X86964218Y-122603483D01*
G37*
G04 #@! TD.AperFunction*
G04 #@! TA.AperFunction,NonConductor*
G36*
X108776923Y-109870185D02*
G01*
X108822678Y-109922989D01*
X108832622Y-109992147D01*
X108803597Y-110055703D01*
X108785374Y-110072873D01*
X108721718Y-110121718D01*
X108721717Y-110121719D01*
X108721716Y-110121720D01*
X108648374Y-110217300D01*
X108591946Y-110258503D01*
X108522200Y-110262657D01*
X108461280Y-110228444D01*
X108451624Y-110217300D01*
X108396997Y-110146108D01*
X108378283Y-110121719D01*
X108371620Y-110116606D01*
X108314628Y-110072874D01*
X108273427Y-110016448D01*
X108269272Y-109946702D01*
X108303485Y-109885781D01*
X108365202Y-109853029D01*
X108390116Y-109850500D01*
X108709884Y-109850500D01*
X108776923Y-109870185D01*
G37*
G04 #@! TD.AperFunction*
G04 #@! TA.AperFunction,NonConductor*
G36*
X106176923Y-109870185D02*
G01*
X106222678Y-109922989D01*
X106232622Y-109992147D01*
X106203597Y-110055703D01*
X106185374Y-110072873D01*
X106153727Y-110097157D01*
X106121718Y-110121718D01*
X106025463Y-110247160D01*
X106023001Y-110253105D01*
X105979158Y-110307507D01*
X105912864Y-110329570D01*
X105845165Y-110312289D01*
X105797556Y-110261151D01*
X105791399Y-110246603D01*
X105775336Y-110200698D01*
X105675718Y-110042156D01*
X105677915Y-110040775D01*
X105656014Y-109987129D01*
X105668768Y-109918433D01*
X105716638Y-109867538D01*
X105779369Y-109850500D01*
X106109884Y-109850500D01*
X106176923Y-109870185D01*
G37*
G04 #@! TD.AperFunction*
G04 #@! TA.AperFunction,NonConductor*
G36*
X107576923Y-109870185D02*
G01*
X107622678Y-109922989D01*
X107632622Y-109992147D01*
X107603597Y-110055703D01*
X107585374Y-110072873D01*
X107553727Y-110097157D01*
X107521718Y-110121718D01*
X107425463Y-110247160D01*
X107364561Y-110394192D01*
X107320720Y-110448595D01*
X107254426Y-110470660D01*
X107186727Y-110453381D01*
X107139116Y-110402244D01*
X107135439Y-110394192D01*
X107107307Y-110326275D01*
X107074536Y-110247159D01*
X106978282Y-110121718D01*
X106914628Y-110072874D01*
X106873427Y-110016448D01*
X106869272Y-109946702D01*
X106903485Y-109885781D01*
X106965202Y-109853029D01*
X106990116Y-109850500D01*
X107509884Y-109850500D01*
X107576923Y-109870185D01*
G37*
G04 #@! TD.AperFunction*
G04 #@! TA.AperFunction,NonConductor*
G36*
X115160134Y-89695185D02*
G01*
X115205889Y-89747989D01*
X115215833Y-89817147D01*
X115186808Y-89880703D01*
X115180776Y-89887181D01*
X115037179Y-90030777D01*
X115037173Y-90030784D01*
X114994765Y-90083409D01*
X114937372Y-90123257D01*
X114872901Y-90125558D01*
X114872796Y-90126191D01*
X114869693Y-90125673D01*
X114867547Y-90125750D01*
X114864249Y-90124765D01*
X114854923Y-90123208D01*
X114847085Y-90122231D01*
X114797826Y-90124269D01*
X114793523Y-90124447D01*
X114790966Y-90124500D01*
X112325129Y-90124500D01*
X112258090Y-90104815D01*
X112218069Y-90063063D01*
X112182876Y-90002839D01*
X112146073Y-89939860D01*
X112146071Y-89939857D01*
X112144354Y-89937400D01*
X112131446Y-89913840D01*
X112124538Y-89897163D01*
X112124537Y-89897162D01*
X112124536Y-89897159D01*
X112107520Y-89874984D01*
X112082328Y-89809815D01*
X112096367Y-89741371D01*
X112145182Y-89691382D01*
X112205898Y-89675500D01*
X115093095Y-89675500D01*
X115160134Y-89695185D01*
G37*
G04 #@! TD.AperFunction*
G04 #@! TA.AperFunction,NonConductor*
G36*
X110745039Y-90676076D02*
G01*
X111051782Y-90982819D01*
X111085267Y-91044142D01*
X111080283Y-91113834D01*
X111038411Y-91169767D01*
X110972947Y-91194184D01*
X110964101Y-91194500D01*
X109655607Y-91194500D01*
X109588568Y-91174815D01*
X109542813Y-91122011D01*
X109532869Y-91052853D01*
X109540956Y-91023266D01*
X109550456Y-91000206D01*
X109550500Y-91000099D01*
X109550541Y-91000000D01*
X109550540Y-90999997D01*
X109550583Y-90975889D01*
X109550500Y-90975467D01*
X109550500Y-90886715D01*
X109570185Y-90819676D01*
X109622989Y-90773921D01*
X109692147Y-90763977D01*
X109749984Y-90788338D01*
X109797159Y-90824536D01*
X109943238Y-90885044D01*
X109955931Y-90886715D01*
X110099999Y-90905682D01*
X110100000Y-90905682D01*
X110100001Y-90905682D01*
X110152254Y-90898802D01*
X110256762Y-90885044D01*
X110402841Y-90824536D01*
X110528282Y-90728282D01*
X110558984Y-90688269D01*
X110615408Y-90647069D01*
X110685154Y-90642913D01*
X110745039Y-90676076D01*
G37*
G04 #@! TD.AperFunction*
G04 #@! TA.AperFunction,NonConductor*
G36*
X117845591Y-98240991D02*
G01*
X117891748Y-98288559D01*
X117912218Y-98326046D01*
X117913079Y-98327623D01*
X117965177Y-98397217D01*
X117965195Y-98397238D01*
X119230777Y-99662819D01*
X119264262Y-99724142D01*
X119259278Y-99793834D01*
X119217406Y-99849767D01*
X119151942Y-99874184D01*
X119143096Y-99874500D01*
X118706899Y-99874500D01*
X118639860Y-99854815D01*
X118619218Y-99838181D01*
X117298219Y-98517181D01*
X117264734Y-98455858D01*
X117269718Y-98386166D01*
X117311590Y-98330233D01*
X117377054Y-98305816D01*
X117385900Y-98305500D01*
X117502029Y-98305500D01*
X117502035Y-98305500D01*
X117579348Y-98295555D01*
X117640066Y-98279672D01*
X117689465Y-98262099D01*
X117711626Y-98246527D01*
X117777796Y-98224092D01*
X117845591Y-98240991D01*
G37*
G04 #@! TD.AperFunction*
G04 #@! TA.AperFunction,NonConductor*
G36*
X123310773Y-100645185D02*
G01*
X123356528Y-100697989D01*
X123366472Y-100767147D01*
X123337447Y-100830703D01*
X123334954Y-100833494D01*
X123329845Y-100839042D01*
X123328076Y-100840886D01*
X123198114Y-100970847D01*
X123136791Y-101004332D01*
X123067099Y-100999348D01*
X123011166Y-100957476D01*
X122986749Y-100892012D01*
X122993028Y-100843268D01*
X122995553Y-100835839D01*
X122999399Y-100744292D01*
X123021881Y-100678140D01*
X123076559Y-100634642D01*
X123123290Y-100625500D01*
X123243734Y-100625500D01*
X123310773Y-100645185D01*
G37*
G04 #@! TD.AperFunction*
G04 #@! TA.AperFunction,NonConductor*
G36*
X122910140Y-102845185D02*
G01*
X122930782Y-102861819D01*
X123526436Y-103457473D01*
X123559921Y-103518796D01*
X123554937Y-103588488D01*
X123513065Y-103644421D01*
X123447601Y-103668838D01*
X123414860Y-103665712D01*
X123414820Y-103666017D01*
X123406762Y-103664956D01*
X123327105Y-103654469D01*
X123250001Y-103644318D01*
X123249999Y-103644318D01*
X123093239Y-103664955D01*
X123093237Y-103664956D01*
X122947157Y-103725464D01*
X122870787Y-103784065D01*
X122805617Y-103809259D01*
X122737173Y-103795220D01*
X122696925Y-103761176D01*
X122628282Y-103671718D01*
X122502841Y-103575464D01*
X122356762Y-103514956D01*
X122356760Y-103514955D01*
X122200001Y-103494318D01*
X122199999Y-103494318D01*
X122043239Y-103514955D01*
X122043237Y-103514956D01*
X121897160Y-103575463D01*
X121897158Y-103575464D01*
X121897159Y-103575464D01*
X121771718Y-103671718D01*
X121771716Y-103671720D01*
X121765271Y-103676666D01*
X121763593Y-103674479D01*
X121714066Y-103701508D01*
X121644376Y-103696506D01*
X121600059Y-103668017D01*
X121269219Y-103337178D01*
X121235735Y-103275856D01*
X121240719Y-103206164D01*
X121269220Y-103161817D01*
X121402709Y-103028329D01*
X121569218Y-102861819D01*
X121630542Y-102828334D01*
X121656900Y-102825500D01*
X122843101Y-102825500D01*
X122910140Y-102845185D01*
G37*
G04 #@! TD.AperFunction*
G04 #@! TA.AperFunction,Conductor*
G36*
X82693039Y-83519685D02*
G01*
X82738794Y-83572489D01*
X82750000Y-83624000D01*
X82750000Y-88250000D01*
X86000000Y-91500000D01*
X96500500Y-91500000D01*
X96567539Y-91519685D01*
X96613294Y-91572489D01*
X96624500Y-91624000D01*
X96624500Y-93650518D01*
X96621615Y-93677110D01*
X96526491Y-94110351D01*
X96519939Y-94131207D01*
X96514957Y-94143234D01*
X96514955Y-94143240D01*
X96494318Y-94299999D01*
X96494318Y-94300001D01*
X96514955Y-94456760D01*
X96514956Y-94456762D01*
X96569391Y-94588181D01*
X96575464Y-94602841D01*
X96671718Y-94728282D01*
X96797159Y-94824536D01*
X96943238Y-94885044D01*
X97021619Y-94895363D01*
X97099999Y-94905682D01*
X97100000Y-94905682D01*
X97100001Y-94905682D01*
X97152253Y-94898802D01*
X97256762Y-94885044D01*
X97402841Y-94824536D01*
X97528282Y-94728282D01*
X97624536Y-94602841D01*
X97685044Y-94456762D01*
X97698802Y-94352254D01*
X97705682Y-94300001D01*
X97705682Y-94299998D01*
X97691923Y-94195491D01*
X97685044Y-94143238D01*
X97624536Y-93997159D01*
X97592078Y-93954859D01*
X97589268Y-93950883D01*
X97566096Y-93915201D01*
X97439541Y-93720318D01*
X97395504Y-93652505D01*
X97375501Y-93585560D01*
X97375500Y-93584971D01*
X97375500Y-91624000D01*
X97395185Y-91556961D01*
X97447989Y-91511206D01*
X97499500Y-91500000D01*
X114000000Y-91500000D01*
X114088181Y-91411818D01*
X114149504Y-91378334D01*
X114175862Y-91375500D01*
X114493101Y-91375500D01*
X114560140Y-91395185D01*
X114580782Y-91411819D01*
X115831782Y-92662819D01*
X115865267Y-92724142D01*
X115860283Y-92793834D01*
X115818411Y-92849767D01*
X115752947Y-92874184D01*
X115744101Y-92874500D01*
X113745081Y-92874500D01*
X113720566Y-92872052D01*
X112666839Y-92659522D01*
X112660364Y-92658216D01*
X112654622Y-92656769D01*
X112515933Y-92614699D01*
X112515934Y-92614699D01*
X112310000Y-92594417D01*
X112104067Y-92614699D01*
X111906043Y-92674769D01*
X111795898Y-92733643D01*
X111723550Y-92772315D01*
X111723548Y-92772316D01*
X111723547Y-92772317D01*
X111563589Y-92903589D01*
X111432317Y-93063547D01*
X111334769Y-93246043D01*
X111274699Y-93444067D01*
X111254417Y-93650000D01*
X111274699Y-93855932D01*
X111302372Y-93947159D01*
X111334768Y-94053954D01*
X111432315Y-94236450D01*
X111554690Y-94385565D01*
X111563590Y-94396410D01*
X111573626Y-94404647D01*
X111612960Y-94462393D01*
X111614831Y-94532238D01*
X111578643Y-94592006D01*
X111515887Y-94622722D01*
X111494961Y-94624500D01*
X106246900Y-94624500D01*
X106179861Y-94604815D01*
X106159219Y-94588181D01*
X106096016Y-94524978D01*
X106065769Y-94475626D01*
X105676452Y-93277795D01*
X105674537Y-93272266D01*
X105673215Y-93268672D01*
X105669734Y-93260045D01*
X105667904Y-93254856D01*
X105665232Y-93246046D01*
X105567685Y-93063550D01*
X105495395Y-92975464D01*
X105436410Y-92903589D01*
X105276452Y-92772317D01*
X105276453Y-92772317D01*
X105276450Y-92772315D01*
X105093954Y-92674768D01*
X104895934Y-92614700D01*
X104895932Y-92614699D01*
X104895934Y-92614699D01*
X104708463Y-92596235D01*
X104690000Y-92594417D01*
X104689999Y-92594417D01*
X104484067Y-92614699D01*
X104286043Y-92674769D01*
X104175898Y-92733643D01*
X104103550Y-92772315D01*
X104103548Y-92772316D01*
X104103547Y-92772317D01*
X103943589Y-92903589D01*
X103812317Y-93063547D01*
X103714769Y-93246043D01*
X103654699Y-93444067D01*
X103634417Y-93649999D01*
X103654699Y-93855932D01*
X103682372Y-93947159D01*
X103714768Y-94053954D01*
X103812315Y-94236450D01*
X103816342Y-94241357D01*
X103943589Y-94396410D01*
X104023991Y-94462393D01*
X104103550Y-94527685D01*
X104286046Y-94625232D01*
X104301583Y-94629945D01*
X104315090Y-94635605D01*
X104315313Y-94635089D01*
X104320574Y-94637354D01*
X104320577Y-94637356D01*
X105515628Y-95025769D01*
X105564979Y-95056016D01*
X105737849Y-95228886D01*
X105753977Y-95248745D01*
X105759916Y-95257836D01*
X105787932Y-95279641D01*
X105793693Y-95284730D01*
X105796482Y-95287519D01*
X105814433Y-95300335D01*
X105816489Y-95301868D01*
X105858810Y-95334809D01*
X105865722Y-95338549D01*
X105872801Y-95342010D01*
X105924200Y-95357312D01*
X105926594Y-95358079D01*
X105951341Y-95366574D01*
X105977339Y-95375500D01*
X105985079Y-95376791D01*
X105992909Y-95377767D01*
X105992911Y-95377768D01*
X105992912Y-95377767D01*
X105992913Y-95377768D01*
X106017412Y-95376754D01*
X106046475Y-95375552D01*
X106049033Y-95375500D01*
X111357294Y-95375500D01*
X111424333Y-95395185D01*
X111470088Y-95447989D01*
X111480032Y-95517147D01*
X111453148Y-95578164D01*
X111432317Y-95603546D01*
X111334769Y-95786043D01*
X111274699Y-95984067D01*
X111254417Y-96189999D01*
X111274699Y-96395932D01*
X111302622Y-96487983D01*
X111334768Y-96593954D01*
X111432315Y-96776450D01*
X111432317Y-96776452D01*
X111563589Y-96936410D01*
X111660116Y-97015626D01*
X111723550Y-97067685D01*
X111906046Y-97165232D01*
X111921583Y-97169945D01*
X111935090Y-97175605D01*
X111935313Y-97175089D01*
X111940574Y-97177354D01*
X111940577Y-97177356D01*
X113135628Y-97565769D01*
X113184979Y-97596016D01*
X113377282Y-97788319D01*
X113410767Y-97849642D01*
X113405783Y-97919334D01*
X113363911Y-97975267D01*
X113298447Y-97999684D01*
X113289601Y-98000000D01*
X113120774Y-98000000D01*
X113053735Y-97980315D01*
X113042110Y-97971854D01*
X112912739Y-97865683D01*
X112896450Y-97852315D01*
X112713954Y-97754768D01*
X112515934Y-97694700D01*
X112515932Y-97694699D01*
X112515934Y-97694699D01*
X112328463Y-97676235D01*
X112310000Y-97674417D01*
X112309999Y-97674417D01*
X112104067Y-97694699D01*
X111906043Y-97754769D01*
X111843277Y-97788319D01*
X111723550Y-97852315D01*
X111723548Y-97852316D01*
X111723547Y-97852317D01*
X111577890Y-97971854D01*
X111513580Y-97999166D01*
X111499226Y-98000000D01*
X105500774Y-98000000D01*
X105433735Y-97980315D01*
X105422110Y-97971854D01*
X105292739Y-97865683D01*
X105276450Y-97852315D01*
X105093954Y-97754768D01*
X104895934Y-97694700D01*
X104895932Y-97694699D01*
X104895934Y-97694699D01*
X104690000Y-97674417D01*
X104484067Y-97694699D01*
X104286043Y-97754769D01*
X104223277Y-97788319D01*
X104103550Y-97852315D01*
X104103548Y-97852316D01*
X104103547Y-97852317D01*
X103957890Y-97971854D01*
X103893580Y-97999166D01*
X103879226Y-98000000D01*
X102250000Y-98000000D01*
X102250000Y-102500000D01*
X109208591Y-102500000D01*
X109275630Y-102519685D01*
X109321385Y-102572489D01*
X109323152Y-102576548D01*
X109375462Y-102702838D01*
X109375463Y-102702840D01*
X109375464Y-102702841D01*
X109471718Y-102828282D01*
X109597159Y-102924536D01*
X109646223Y-102944858D01*
X109666237Y-102955381D01*
X109679681Y-102964102D01*
X109796918Y-103012376D01*
X109851413Y-103056103D01*
X109873616Y-103122351D01*
X109856479Y-103190086D01*
X109848081Y-103202522D01*
X109775464Y-103297157D01*
X109714956Y-103443237D01*
X109714955Y-103443239D01*
X109694318Y-103599998D01*
X109694318Y-103600001D01*
X109714955Y-103756760D01*
X109714956Y-103756762D01*
X109737007Y-103809999D01*
X109775464Y-103902841D01*
X109871718Y-104028282D01*
X109997159Y-104124536D01*
X110143238Y-104185044D01*
X110221619Y-104195362D01*
X110299999Y-104205682D01*
X110300000Y-104205682D01*
X110300001Y-104205682D01*
X110314795Y-104203734D01*
X110456762Y-104185044D01*
X110468797Y-104180058D01*
X110489654Y-104173506D01*
X110489858Y-104173461D01*
X110489860Y-104173461D01*
X110922884Y-104078384D01*
X110949476Y-104075500D01*
X112782479Y-104075500D01*
X112849518Y-104095185D01*
X112895273Y-104147989D01*
X112905418Y-104215685D01*
X112894318Y-104299998D01*
X112894318Y-104300001D01*
X112914955Y-104456760D01*
X112914956Y-104456762D01*
X112975417Y-104602729D01*
X112975464Y-104602841D01*
X113071718Y-104728282D01*
X113197159Y-104824536D01*
X113246223Y-104844858D01*
X113266237Y-104855381D01*
X113279681Y-104864102D01*
X113687504Y-105032029D01*
X113727971Y-105059008D01*
X114315911Y-105646948D01*
X114336250Y-105673738D01*
X114551633Y-106055824D01*
X114554512Y-106060069D01*
X114553830Y-106060530D01*
X114567416Y-106083412D01*
X114575464Y-106102841D01*
X114671718Y-106228282D01*
X114736022Y-106277624D01*
X114777225Y-106334052D01*
X114781380Y-106403798D01*
X114747168Y-106464718D01*
X114685450Y-106497471D01*
X114660536Y-106500000D01*
X114499999Y-106500000D01*
X112786319Y-108213681D01*
X112724996Y-108247166D01*
X112698638Y-108250000D01*
X85999999Y-108250000D01*
X82750000Y-111499999D01*
X82750000Y-115876000D01*
X82730315Y-115943039D01*
X82677511Y-115988794D01*
X82626000Y-116000000D01*
X76078971Y-116000000D01*
X76011932Y-115980315D01*
X75966604Y-115928438D01*
X75820263Y-115614851D01*
X74157222Y-112051192D01*
X76236201Y-112051192D01*
X76239991Y-112074406D01*
X76240237Y-112075064D01*
X76799856Y-115419871D01*
X76799840Y-115420415D01*
X76803857Y-115444035D01*
X76803995Y-115444255D01*
X76804076Y-115444385D01*
X76804210Y-115444415D01*
X76804478Y-115444477D01*
X76804479Y-115444476D01*
X76804480Y-115444477D01*
X76804480Y-115444476D01*
X76823900Y-115441186D01*
X78070070Y-115232690D01*
X78139439Y-115241042D01*
X78186385Y-115276325D01*
X78238404Y-115339710D01*
X78390748Y-115464736D01*
X78390755Y-115464740D01*
X78564554Y-115557638D01*
X78564557Y-115557638D01*
X78564561Y-115557641D01*
X78753156Y-115614851D01*
X78949288Y-115634168D01*
X79145420Y-115614851D01*
X79334015Y-115557641D01*
X79507826Y-115464737D01*
X79660171Y-115339710D01*
X79785198Y-115187365D01*
X79855584Y-115055682D01*
X79878099Y-115013560D01*
X79878099Y-115013559D01*
X79878102Y-115013554D01*
X79935312Y-114824959D01*
X79954629Y-114628827D01*
X79935312Y-114432695D01*
X79878102Y-114244100D01*
X79878099Y-114244096D01*
X79878099Y-114244093D01*
X79785201Y-114070294D01*
X79785197Y-114070287D01*
X79660171Y-113917943D01*
X79507827Y-113792917D01*
X79507820Y-113792913D01*
X79334021Y-113700015D01*
X79334015Y-113700013D01*
X79145420Y-113642803D01*
X79145417Y-113642802D01*
X78949288Y-113623486D01*
X78753158Y-113642802D01*
X78564554Y-113700015D01*
X78390755Y-113792913D01*
X78390749Y-113792917D01*
X78256322Y-113903238D01*
X78192012Y-113930550D01*
X78123145Y-113918759D01*
X78071585Y-113871606D01*
X78055359Y-113827849D01*
X77945648Y-113172114D01*
X77954000Y-113102748D01*
X77998530Y-113048907D01*
X78065099Y-113027688D01*
X78126401Y-113042296D01*
X78145421Y-113052463D01*
X78334016Y-113109673D01*
X78530148Y-113128990D01*
X78726280Y-113109673D01*
X78914875Y-113052463D01*
X78933895Y-113042297D01*
X79088680Y-112959562D01*
X79088686Y-112959559D01*
X79241031Y-112834532D01*
X79366058Y-112682187D01*
X79458962Y-112508376D01*
X79516172Y-112319781D01*
X79535489Y-112123649D01*
X79516172Y-111927517D01*
X79458962Y-111738922D01*
X79458959Y-111738918D01*
X79458959Y-111738915D01*
X79366061Y-111565116D01*
X79366057Y-111565109D01*
X79241031Y-111412765D01*
X79088687Y-111287739D01*
X79088680Y-111287735D01*
X78914881Y-111194837D01*
X78914875Y-111194835D01*
X78726280Y-111137625D01*
X78726277Y-111137624D01*
X78530148Y-111118308D01*
X78334018Y-111137624D01*
X78145414Y-111194837D01*
X77971615Y-111287735D01*
X77971608Y-111287739D01*
X77819264Y-111412765D01*
X77694238Y-111565109D01*
X77694234Y-111565116D01*
X77601335Y-111738918D01*
X77597021Y-111753138D01*
X77558720Y-111811574D01*
X77498824Y-111839436D01*
X76260938Y-112046547D01*
X76260618Y-112046537D01*
X76236647Y-112050570D01*
X76236609Y-112050594D01*
X76236295Y-112050788D01*
X76236294Y-112050791D01*
X76236201Y-112051192D01*
X74157222Y-112051192D01*
X70784709Y-104824378D01*
X70774198Y-104755304D01*
X70802699Y-104691512D01*
X70804876Y-104689026D01*
X71920088Y-103449901D01*
X71979564Y-103413242D01*
X72049421Y-103414556D01*
X72107478Y-103453430D01*
X72135302Y-103517520D01*
X72135657Y-103545005D01*
X72133191Y-103570050D01*
X72133191Y-103570055D01*
X72152508Y-103766190D01*
X72165106Y-103807722D01*
X72165729Y-103877588D01*
X72133743Y-103931777D01*
X71240627Y-104817146D01*
X71240067Y-104817521D01*
X71223434Y-104834132D01*
X71223273Y-104834515D01*
X71223431Y-104834897D01*
X71238947Y-104850491D01*
X73627884Y-107260337D01*
X73628055Y-107260595D01*
X73645256Y-107277919D01*
X73645257Y-107277921D01*
X73645355Y-107277962D01*
X73645356Y-107277963D01*
X73645639Y-107278082D01*
X73645923Y-107277965D01*
X73645923Y-107277964D01*
X73646029Y-107277921D01*
X73648372Y-107276974D01*
X73654635Y-107269385D01*
X73663666Y-107260431D01*
X73663780Y-107260261D01*
X74556628Y-106375159D01*
X74618094Y-106341943D01*
X74679917Y-106344562D01*
X74730608Y-106359940D01*
X74926740Y-106379257D01*
X75122872Y-106359940D01*
X75155640Y-106350000D01*
X103634417Y-106350000D01*
X103654699Y-106555932D01*
X103654700Y-106555934D01*
X103714768Y-106753954D01*
X103812315Y-106936450D01*
X103812317Y-106936452D01*
X103943589Y-107096410D01*
X104040209Y-107175702D01*
X104103550Y-107227685D01*
X104286046Y-107325232D01*
X104484066Y-107385300D01*
X104484065Y-107385300D01*
X104504347Y-107387297D01*
X104690000Y-107405583D01*
X104895934Y-107385300D01*
X105093954Y-107325232D01*
X105276450Y-107227685D01*
X105436410Y-107096410D01*
X105567685Y-106936450D01*
X105665232Y-106753954D01*
X105725300Y-106555934D01*
X105745583Y-106350000D01*
X105725300Y-106144066D01*
X105665232Y-105946046D01*
X105567685Y-105763550D01*
X105468949Y-105643239D01*
X105436410Y-105603589D01*
X105276452Y-105472317D01*
X105276453Y-105472317D01*
X105276450Y-105472315D01*
X105093954Y-105374768D01*
X104895934Y-105314700D01*
X104895932Y-105314699D01*
X104895934Y-105314699D01*
X104708463Y-105296235D01*
X104690000Y-105294417D01*
X104689999Y-105294417D01*
X104484067Y-105314699D01*
X104286043Y-105374769D01*
X104182822Y-105429943D01*
X104103550Y-105472315D01*
X104103548Y-105472316D01*
X104103547Y-105472317D01*
X103943589Y-105603589D01*
X103816342Y-105758643D01*
X103812315Y-105763550D01*
X103773643Y-105835898D01*
X103714769Y-105946043D01*
X103654699Y-106144067D01*
X103634417Y-106350000D01*
X75155640Y-106350000D01*
X75311467Y-106302730D01*
X75485278Y-106209826D01*
X75637623Y-106084799D01*
X75762650Y-105932454D01*
X75855554Y-105758643D01*
X75912764Y-105570048D01*
X75932081Y-105373916D01*
X75912764Y-105177784D01*
X75855554Y-104989189D01*
X75855551Y-104989185D01*
X75855551Y-104989182D01*
X75762653Y-104815383D01*
X75762649Y-104815376D01*
X75637623Y-104663032D01*
X75485279Y-104538006D01*
X75485272Y-104538002D01*
X75311473Y-104445104D01*
X75311467Y-104445102D01*
X75171150Y-104402537D01*
X75122869Y-104387891D01*
X74926740Y-104368575D01*
X74730610Y-104387891D01*
X74542006Y-104445104D01*
X74368207Y-104538002D01*
X74368200Y-104538006D01*
X74215856Y-104663032D01*
X74090830Y-104815376D01*
X74090826Y-104815383D01*
X73997926Y-104989187D01*
X73939264Y-105182565D01*
X73900966Y-105241004D01*
X73837154Y-105269460D01*
X73768087Y-105258899D01*
X73732542Y-105233867D01*
X73722896Y-105224137D01*
X73268241Y-104765502D01*
X73235023Y-104704034D01*
X73240311Y-104634365D01*
X73282426Y-104578614D01*
X73328886Y-104558020D01*
X73328834Y-104557848D01*
X73330232Y-104557423D01*
X73332127Y-104556584D01*
X73334658Y-104556080D01*
X73334664Y-104556080D01*
X73523259Y-104498870D01*
X73697070Y-104405966D01*
X73849415Y-104280939D01*
X73974442Y-104128594D01*
X74067346Y-103954783D01*
X74124556Y-103766188D01*
X74143873Y-103570056D01*
X74124556Y-103373924D01*
X74067346Y-103185329D01*
X74067343Y-103185325D01*
X74067343Y-103185322D01*
X73974445Y-103011523D01*
X73974441Y-103011516D01*
X73849415Y-102859172D01*
X73697071Y-102734146D01*
X73697064Y-102734142D01*
X73523265Y-102641244D01*
X73523259Y-102641242D01*
X73334664Y-102584032D01*
X73334661Y-102584031D01*
X73138532Y-102564715D01*
X72993985Y-102578951D01*
X72925339Y-102565932D01*
X72874628Y-102517867D01*
X72857954Y-102450016D01*
X72880610Y-102383921D01*
X72889658Y-102372601D01*
X72963056Y-102291048D01*
X73022536Y-102254386D01*
X73055225Y-102250000D01*
X79000000Y-102250000D01*
X79000000Y-100000003D01*
X80994460Y-100000003D01*
X81014610Y-100448683D01*
X81014610Y-100448691D01*
X81014611Y-100448693D01*
X81025896Y-100532003D01*
X81074901Y-100893776D01*
X81174843Y-101331652D01*
X81174845Y-101331658D01*
X81313639Y-101758821D01*
X81490164Y-102171822D01*
X81703000Y-102567338D01*
X81703004Y-102567344D01*
X81703004Y-102567345D01*
X81950428Y-102942177D01*
X81950429Y-102942178D01*
X82227301Y-103289365D01*
X82230471Y-103293339D01*
X82540858Y-103617979D01*
X82540865Y-103617985D01*
X82540868Y-103617988D01*
X82879080Y-103913475D01*
X82879089Y-103913482D01*
X82879097Y-103913489D01*
X82879107Y-103913496D01*
X82879108Y-103913497D01*
X83242458Y-104177487D01*
X83242462Y-104177489D01*
X83242463Y-104177490D01*
X83619128Y-104402537D01*
X83628033Y-104407857D01*
X83628039Y-104407860D01*
X84032688Y-104602729D01*
X84032702Y-104602735D01*
X84453189Y-104760546D01*
X84453193Y-104760547D01*
X84453203Y-104760551D01*
X84886163Y-104880041D01*
X85328090Y-104960239D01*
X85775427Y-105000500D01*
X85775434Y-105000500D01*
X86224566Y-105000500D01*
X86224573Y-105000500D01*
X86671910Y-104960239D01*
X87113837Y-104880041D01*
X87546797Y-104760551D01*
X87967303Y-104602733D01*
X88371969Y-104407856D01*
X88757537Y-104177490D01*
X89120903Y-103913489D01*
X89239356Y-103810000D01*
X103634417Y-103810000D01*
X103654699Y-104015932D01*
X103673569Y-104078139D01*
X103714768Y-104213954D01*
X103812315Y-104396450D01*
X103821679Y-104407860D01*
X103943589Y-104556410D01*
X104038579Y-104634365D01*
X104103550Y-104687685D01*
X104286046Y-104785232D01*
X104484066Y-104845300D01*
X104484065Y-104845300D01*
X104504347Y-104847297D01*
X104690000Y-104865583D01*
X104895934Y-104845300D01*
X105093954Y-104785232D01*
X105276450Y-104687685D01*
X105436410Y-104556410D01*
X105567685Y-104396450D01*
X105665232Y-104213954D01*
X105725300Y-104015934D01*
X105745583Y-103810000D01*
X105725300Y-103604066D01*
X105665232Y-103406046D01*
X105567685Y-103223550D01*
X105456497Y-103088066D01*
X105436410Y-103063589D01*
X105276452Y-102932317D01*
X105276453Y-102932317D01*
X105276450Y-102932315D01*
X105093954Y-102834768D01*
X104895934Y-102774700D01*
X104895932Y-102774699D01*
X104895934Y-102774699D01*
X104708463Y-102756235D01*
X104690000Y-102754417D01*
X104689999Y-102754417D01*
X104484067Y-102774699D01*
X104286043Y-102834769D01*
X104175898Y-102893643D01*
X104103550Y-102932315D01*
X104103548Y-102932316D01*
X104103547Y-102932317D01*
X103943589Y-103063589D01*
X103812317Y-103223547D01*
X103714769Y-103406043D01*
X103654699Y-103604067D01*
X103634417Y-103810000D01*
X89239356Y-103810000D01*
X89459142Y-103617979D01*
X89769529Y-103293339D01*
X90049567Y-102942183D01*
X90056080Y-102932317D01*
X90159593Y-102775500D01*
X90297000Y-102567338D01*
X90509836Y-102171822D01*
X90686361Y-101758821D01*
X90825155Y-101331658D01*
X90925099Y-100893774D01*
X90985389Y-100448693D01*
X91005540Y-100000000D01*
X90985389Y-99551307D01*
X90925099Y-99106226D01*
X90825155Y-98668342D01*
X90686361Y-98241179D01*
X90509836Y-97828178D01*
X90297000Y-97432662D01*
X90296995Y-97432654D01*
X90049571Y-97057822D01*
X90049570Y-97057821D01*
X89769534Y-96706667D01*
X89769532Y-96706665D01*
X89769529Y-96706661D01*
X89459142Y-96382021D01*
X89401259Y-96331450D01*
X89120919Y-96086524D01*
X89120907Y-96086515D01*
X89120903Y-96086511D01*
X89064067Y-96045217D01*
X88757541Y-95822512D01*
X88371966Y-95592142D01*
X88371960Y-95592139D01*
X87967311Y-95397270D01*
X87967297Y-95397264D01*
X87546810Y-95239453D01*
X87546785Y-95239445D01*
X87113843Y-95119960D01*
X86671916Y-95039762D01*
X86671915Y-95039761D01*
X86671910Y-95039761D01*
X86224573Y-94999500D01*
X85775427Y-94999500D01*
X85328090Y-95039761D01*
X85328085Y-95039761D01*
X85328083Y-95039762D01*
X84886156Y-95119960D01*
X84453214Y-95239445D01*
X84453189Y-95239453D01*
X84032702Y-95397264D01*
X84032688Y-95397270D01*
X83628039Y-95592139D01*
X83628033Y-95592142D01*
X83242458Y-95822512D01*
X82879108Y-96086502D01*
X82879080Y-96086524D01*
X82540868Y-96382011D01*
X82540865Y-96382014D01*
X82230465Y-96706667D01*
X81950429Y-97057821D01*
X81950428Y-97057822D01*
X81703004Y-97432654D01*
X81703004Y-97432655D01*
X81490165Y-97828175D01*
X81423116Y-97985044D01*
X81339273Y-98181207D01*
X81313636Y-98241187D01*
X81174843Y-98668347D01*
X81074901Y-99106223D01*
X81014611Y-99551307D01*
X81014610Y-99551316D01*
X80994460Y-99999996D01*
X80994460Y-100000003D01*
X79000000Y-100000003D01*
X79000000Y-97250000D01*
X76392071Y-97250000D01*
X76325032Y-97230315D01*
X76316585Y-97224376D01*
X76252841Y-97175464D01*
X76252836Y-97175461D01*
X76106765Y-97114957D01*
X76106760Y-97114955D01*
X75950001Y-97094318D01*
X75949999Y-97094318D01*
X75793239Y-97114955D01*
X75793234Y-97114957D01*
X75647163Y-97175461D01*
X75647158Y-97175464D01*
X75583415Y-97224376D01*
X75518246Y-97249570D01*
X75507929Y-97250000D01*
X75442071Y-97250000D01*
X75375032Y-97230315D01*
X75366585Y-97224376D01*
X75302841Y-97175464D01*
X75302836Y-97175461D01*
X75156765Y-97114957D01*
X75156760Y-97114955D01*
X75000001Y-97094318D01*
X74999999Y-97094318D01*
X74843239Y-97114955D01*
X74843234Y-97114957D01*
X74697163Y-97175461D01*
X74697158Y-97175464D01*
X74633415Y-97224376D01*
X74568246Y-97249570D01*
X74557929Y-97250000D01*
X74021996Y-97250000D01*
X73954957Y-97230315D01*
X73909202Y-97177511D01*
X73899258Y-97108353D01*
X73926143Y-97047335D01*
X73974441Y-96988483D01*
X73974445Y-96988476D01*
X73983403Y-96971718D01*
X74038032Y-96869514D01*
X74067343Y-96814677D01*
X74067343Y-96814676D01*
X74067346Y-96814671D01*
X74124556Y-96626076D01*
X74143873Y-96429944D01*
X74124556Y-96233812D01*
X74067346Y-96045217D01*
X74067343Y-96045213D01*
X74067343Y-96045210D01*
X73974445Y-95871411D01*
X73974441Y-95871404D01*
X73849415Y-95719060D01*
X73697071Y-95594034D01*
X73697064Y-95594030D01*
X73523265Y-95501132D01*
X73523259Y-95501130D01*
X73334664Y-95443920D01*
X73334651Y-95443916D01*
X73332100Y-95443409D01*
X73330888Y-95442775D01*
X73328834Y-95442152D01*
X73328952Y-95441762D01*
X73270192Y-95411018D01*
X73235624Y-95350299D01*
X73239370Y-95280530D01*
X73268239Y-95234498D01*
X73732544Y-94766129D01*
X73793718Y-94732379D01*
X73863431Y-94737060D01*
X73919546Y-94778687D01*
X73939264Y-94817433D01*
X73997926Y-95010812D01*
X74090826Y-95184616D01*
X74090830Y-95184623D01*
X74215856Y-95336967D01*
X74368200Y-95461993D01*
X74368207Y-95461997D01*
X74542006Y-95554895D01*
X74542009Y-95554895D01*
X74542013Y-95554898D01*
X74730608Y-95612108D01*
X74926740Y-95631425D01*
X75122872Y-95612108D01*
X75311467Y-95554898D01*
X75485278Y-95461994D01*
X75637623Y-95336967D01*
X75762650Y-95184622D01*
X75826962Y-95064303D01*
X75855551Y-95010817D01*
X75855553Y-95010812D01*
X75855554Y-95010811D01*
X75912764Y-94822216D01*
X75932081Y-94626084D01*
X75912764Y-94429952D01*
X75855554Y-94241357D01*
X75855551Y-94241353D01*
X75855551Y-94241350D01*
X75762653Y-94067551D01*
X75762649Y-94067544D01*
X75637623Y-93915200D01*
X75485279Y-93790174D01*
X75485272Y-93790170D01*
X75311473Y-93697272D01*
X75311467Y-93697270D01*
X75173560Y-93655436D01*
X75122869Y-93640059D01*
X74926740Y-93620743D01*
X74730607Y-93640060D01*
X74679918Y-93655436D01*
X74610051Y-93656059D01*
X74556626Y-93624837D01*
X74517005Y-93585560D01*
X73799722Y-92874500D01*
X73661830Y-92737804D01*
X73646023Y-92722076D01*
X73645638Y-92721917D01*
X73645633Y-92721918D01*
X73645254Y-92722080D01*
X73628870Y-92738667D01*
X71240539Y-95147901D01*
X71240372Y-95148015D01*
X71223431Y-95165102D01*
X71223273Y-95165479D01*
X71223273Y-95165486D01*
X71223434Y-95165867D01*
X71240895Y-95183158D01*
X71241016Y-95183238D01*
X72110539Y-96045217D01*
X72133744Y-96068221D01*
X72167496Y-96129397D01*
X72165107Y-96192277D01*
X72152506Y-96233815D01*
X72152276Y-96234975D01*
X72151988Y-96235524D01*
X72150740Y-96239640D01*
X72149959Y-96239403D01*
X72119885Y-96296882D01*
X72059165Y-96331450D01*
X71989396Y-96327704D01*
X71947711Y-96302940D01*
X70664461Y-95148015D01*
X70571448Y-95064303D01*
X70534787Y-95004825D01*
X70536101Y-94934968D01*
X70544458Y-94914787D01*
X74178881Y-87948809D01*
X76236201Y-87948809D01*
X76236241Y-87948979D01*
X76236252Y-87949077D01*
X76236263Y-87949075D01*
X76236293Y-87949209D01*
X76236294Y-87949210D01*
X76236295Y-87949211D01*
X76236647Y-87949430D01*
X76236649Y-87949429D01*
X76245951Y-87950944D01*
X77498825Y-88160562D01*
X77561696Y-88191039D01*
X77597021Y-88246862D01*
X77601334Y-88261078D01*
X77601335Y-88261081D01*
X77601336Y-88261082D01*
X77694234Y-88434883D01*
X77694238Y-88434890D01*
X77819264Y-88587234D01*
X77971608Y-88712260D01*
X77971615Y-88712264D01*
X78145414Y-88805162D01*
X78145417Y-88805162D01*
X78145421Y-88805165D01*
X78334016Y-88862375D01*
X78530148Y-88881692D01*
X78726280Y-88862375D01*
X78914875Y-88805165D01*
X79088686Y-88712261D01*
X79241031Y-88587234D01*
X79366058Y-88434889D01*
X79458962Y-88261078D01*
X79516172Y-88072483D01*
X79535489Y-87876351D01*
X79516172Y-87680219D01*
X79458962Y-87491624D01*
X79458959Y-87491620D01*
X79458959Y-87491617D01*
X79366061Y-87317818D01*
X79366057Y-87317811D01*
X79241031Y-87165467D01*
X79088687Y-87040441D01*
X79088680Y-87040437D01*
X78914881Y-86947539D01*
X78914875Y-86947537D01*
X78726280Y-86890327D01*
X78726277Y-86890326D01*
X78530148Y-86871010D01*
X78334018Y-86890326D01*
X78204610Y-86929582D01*
X78145421Y-86947537D01*
X78145420Y-86947537D01*
X78145415Y-86947539D01*
X78126398Y-86957704D01*
X78057995Y-86971944D01*
X77992752Y-86946942D01*
X77951383Y-86890636D01*
X77945648Y-86827884D01*
X78055359Y-86172150D01*
X78085835Y-86109281D01*
X78145466Y-86072867D01*
X78215317Y-86074472D01*
X78256323Y-86096762D01*
X78390748Y-86207082D01*
X78390755Y-86207086D01*
X78564554Y-86299984D01*
X78564557Y-86299984D01*
X78564561Y-86299987D01*
X78753156Y-86357197D01*
X78949288Y-86376514D01*
X79145420Y-86357197D01*
X79334015Y-86299987D01*
X79507826Y-86207083D01*
X79660171Y-86082056D01*
X79785198Y-85929711D01*
X79878102Y-85755900D01*
X79935312Y-85567305D01*
X79954629Y-85371173D01*
X79935312Y-85175041D01*
X79878102Y-84986446D01*
X79878099Y-84986442D01*
X79878099Y-84986439D01*
X79785201Y-84812640D01*
X79785197Y-84812633D01*
X79660171Y-84660289D01*
X79507827Y-84535263D01*
X79507820Y-84535259D01*
X79334021Y-84442361D01*
X79334015Y-84442359D01*
X79145420Y-84385149D01*
X79145417Y-84385148D01*
X78949288Y-84365832D01*
X78753158Y-84385148D01*
X78564554Y-84442361D01*
X78390755Y-84535259D01*
X78390748Y-84535263D01*
X78238406Y-84660287D01*
X78186385Y-84723675D01*
X78128639Y-84763009D01*
X78070071Y-84767309D01*
X76828464Y-84559576D01*
X76828046Y-84559419D01*
X76804480Y-84555522D01*
X76804075Y-84555615D01*
X76803857Y-84555966D01*
X76799827Y-84580029D01*
X76799834Y-84580258D01*
X76240186Y-87925235D01*
X76239837Y-87926176D01*
X76236201Y-87948809D01*
X74178881Y-87948809D01*
X76465230Y-83566641D01*
X76513693Y-83516311D01*
X76575167Y-83500000D01*
X82626000Y-83500000D01*
X82693039Y-83519685D01*
G37*
G04 #@! TD.AperFunction*
G04 #@! TA.AperFunction,Conductor*
G36*
X119096435Y-93645185D02*
G01*
X119117077Y-93661819D01*
X120889947Y-95434690D01*
X120923432Y-95496013D01*
X120918448Y-95565705D01*
X120889947Y-95610052D01*
X120750000Y-95749999D01*
X120750000Y-95750000D01*
X123162819Y-98162819D01*
X123196304Y-98224142D01*
X123191320Y-98293834D01*
X123149448Y-98349767D01*
X123083984Y-98374184D01*
X123075138Y-98374500D01*
X120956899Y-98374500D01*
X120889860Y-98354815D01*
X120869218Y-98338181D01*
X118552149Y-96021111D01*
X118536022Y-96001252D01*
X118530086Y-95992167D01*
X118530083Y-95992163D01*
X118502074Y-95970363D01*
X118496310Y-95965272D01*
X118493515Y-95962477D01*
X118475550Y-95949652D01*
X118473512Y-95948133D01*
X118431189Y-95915191D01*
X118431188Y-95915190D01*
X118424274Y-95911448D01*
X118417197Y-95907988D01*
X118365816Y-95892691D01*
X118363377Y-95891910D01*
X118312661Y-95874500D01*
X118304923Y-95873208D01*
X118297085Y-95872231D01*
X118247826Y-95874269D01*
X118243523Y-95874447D01*
X118240966Y-95874500D01*
X114706899Y-95874500D01*
X114639860Y-95854815D01*
X114619218Y-95838181D01*
X113552149Y-94771111D01*
X113536022Y-94751252D01*
X113530086Y-94742167D01*
X113530083Y-94742163D01*
X113515123Y-94730519D01*
X113502072Y-94720361D01*
X113496310Y-94715272D01*
X113493515Y-94712477D01*
X113475550Y-94699652D01*
X113473512Y-94698133D01*
X113431189Y-94665191D01*
X113431188Y-94665190D01*
X113424274Y-94661448D01*
X113417197Y-94657988D01*
X113365816Y-94642691D01*
X113363377Y-94641910D01*
X113312661Y-94624500D01*
X113304923Y-94623208D01*
X113297085Y-94622231D01*
X113247826Y-94624269D01*
X113243523Y-94624447D01*
X113240966Y-94624500D01*
X113125038Y-94624500D01*
X113057999Y-94604815D01*
X113012244Y-94552011D01*
X113002300Y-94482853D01*
X113031325Y-94419297D01*
X113046374Y-94404646D01*
X113056410Y-94396410D01*
X113056414Y-94396404D01*
X113060721Y-94392099D01*
X113060879Y-94392257D01*
X113063176Y-94389923D01*
X113062915Y-94389668D01*
X113066929Y-94385566D01*
X113066931Y-94385565D01*
X113774308Y-93662768D01*
X113835266Y-93628625D01*
X113862929Y-93625500D01*
X119029396Y-93625500D01*
X119096435Y-93645185D01*
G37*
G04 #@! TD.AperFunction*
G04 #@! TA.AperFunction,Conductor*
G36*
X121443039Y-89269685D02*
G01*
X121488794Y-89322489D01*
X121500000Y-89374000D01*
X121500000Y-90750000D01*
X124876000Y-90750000D01*
X124943039Y-90769685D01*
X124988794Y-90822489D01*
X125000000Y-90874000D01*
X125000000Y-91448637D01*
X124980315Y-91515676D01*
X124963681Y-91536318D01*
X123050270Y-93449728D01*
X122988947Y-93483213D01*
X122919255Y-93478229D01*
X122863322Y-93436357D01*
X122839651Y-93378232D01*
X122835044Y-93343238D01*
X122774536Y-93197159D01*
X122678282Y-93071718D01*
X122678280Y-93071717D01*
X122678280Y-93071716D01*
X122619906Y-93026924D01*
X122552841Y-92975464D01*
X122552839Y-92975463D01*
X122503780Y-92955141D01*
X122483760Y-92944616D01*
X122470314Y-92935895D01*
X122062497Y-92767970D01*
X122022029Y-92740991D01*
X120752149Y-91471111D01*
X120736022Y-91451252D01*
X120730086Y-91442167D01*
X120730083Y-91442163D01*
X120702074Y-91420363D01*
X120696310Y-91415272D01*
X120693515Y-91412477D01*
X120675550Y-91399652D01*
X120673512Y-91398133D01*
X120631189Y-91365191D01*
X120631188Y-91365190D01*
X120624274Y-91361448D01*
X120617197Y-91357988D01*
X120565816Y-91342691D01*
X120563377Y-91341910D01*
X120512661Y-91324500D01*
X120504923Y-91323208D01*
X120497085Y-91322231D01*
X120447826Y-91324269D01*
X120443523Y-91324447D01*
X120440966Y-91324500D01*
X119499500Y-91324500D01*
X119432461Y-91304815D01*
X119386706Y-91252011D01*
X119375500Y-91200500D01*
X119375500Y-89374000D01*
X119395185Y-89306961D01*
X119447989Y-89261206D01*
X119499500Y-89250000D01*
X121376000Y-89250000D01*
X121443039Y-89269685D01*
G37*
G04 #@! TD.AperFunction*
G04 #@! TA.AperFunction,NonConductor*
G36*
X115858450Y-89744063D02*
G01*
X115914383Y-89785935D01*
X115938800Y-89851399D01*
X115929678Y-89907697D01*
X115914955Y-89943240D01*
X115894318Y-90099998D01*
X115894318Y-90100001D01*
X115914955Y-90256760D01*
X115914956Y-90256762D01*
X115975464Y-90402841D01*
X116049643Y-90499513D01*
X116074837Y-90564682D01*
X116060799Y-90633126D01*
X116049643Y-90650485D01*
X115975464Y-90747157D01*
X115930125Y-90856617D01*
X115886284Y-90911020D01*
X115819990Y-90933085D01*
X115752290Y-90915806D01*
X115727883Y-90896845D01*
X115253200Y-90422161D01*
X115219715Y-90360838D01*
X115224699Y-90291146D01*
X115253198Y-90246801D01*
X115727437Y-89772562D01*
X115788758Y-89739079D01*
X115858450Y-89744063D01*
G37*
G04 #@! TD.AperFunction*
G04 #@! TA.AperFunction,NonConductor*
G36*
X118567539Y-89695185D02*
G01*
X118613294Y-89747989D01*
X118624500Y-89799500D01*
X118624500Y-91681908D01*
X118624288Y-91687030D01*
X118620607Y-91731436D01*
X118621339Y-91740258D01*
X118607259Y-91808694D01*
X118558415Y-91858654D01*
X118497763Y-91874500D01*
X117652053Y-91874500D01*
X117585014Y-91854815D01*
X117539259Y-91802011D01*
X117529315Y-91732853D01*
X117558340Y-91669297D01*
X117604600Y-91635939D01*
X117606760Y-91635044D01*
X117606762Y-91635044D01*
X117752841Y-91574536D01*
X117878282Y-91478282D01*
X117974536Y-91352841D01*
X118035044Y-91206762D01*
X118055682Y-91050000D01*
X118049112Y-91000099D01*
X118035044Y-90893239D01*
X118035044Y-90893238D01*
X117974536Y-90747159D01*
X117900354Y-90650483D01*
X117875162Y-90585318D01*
X117889200Y-90516873D01*
X117900349Y-90499522D01*
X117974536Y-90402841D01*
X118035044Y-90256762D01*
X118055682Y-90100000D01*
X118035044Y-89943238D01*
X117995160Y-89846951D01*
X117987692Y-89777484D01*
X118018967Y-89715004D01*
X118079056Y-89679352D01*
X118109722Y-89675500D01*
X118500500Y-89675500D01*
X118567539Y-89695185D01*
G37*
G04 #@! TD.AperFunction*
G04 #@! TA.AperFunction,NonConductor*
G36*
X117033126Y-91489200D02*
G01*
X117050485Y-91500356D01*
X117147157Y-91574535D01*
X117147158Y-91574535D01*
X117147159Y-91574536D01*
X117293238Y-91635044D01*
X117293239Y-91635044D01*
X117295400Y-91635939D01*
X117349803Y-91679780D01*
X117371868Y-91746074D01*
X117354589Y-91813773D01*
X117303452Y-91861384D01*
X117247947Y-91874500D01*
X116756899Y-91874500D01*
X116689860Y-91854815D01*
X116669218Y-91838181D01*
X116653154Y-91822117D01*
X116619669Y-91760794D01*
X116624653Y-91691102D01*
X116666525Y-91635169D01*
X116693383Y-91619875D01*
X116802841Y-91574536D01*
X116825745Y-91556961D01*
X116899514Y-91500356D01*
X116964681Y-91475162D01*
X117033126Y-91489200D01*
G37*
G04 #@! TD.AperFunction*
G04 #@! TA.AperFunction,NonConductor*
G36*
X120624384Y-93645907D02*
G01*
X120674375Y-93694720D01*
X120680916Y-93708221D01*
X120685897Y-93720317D01*
X120688594Y-93726663D01*
X120688593Y-93726663D01*
X120694968Y-93736021D01*
X120707046Y-93758377D01*
X120725462Y-93802838D01*
X120811680Y-93915201D01*
X120821718Y-93928282D01*
X120947159Y-94024536D01*
X121093238Y-94085044D01*
X121155478Y-94093238D01*
X121249999Y-94105682D01*
X121250000Y-94105682D01*
X121250001Y-94105682D01*
X121302254Y-94098802D01*
X121406762Y-94085044D01*
X121552841Y-94024536D01*
X121674514Y-93931173D01*
X121739681Y-93905979D01*
X121808126Y-93920017D01*
X121825485Y-93931173D01*
X121947157Y-94024535D01*
X121947158Y-94024535D01*
X121947159Y-94024536D01*
X122093238Y-94085044D01*
X122128232Y-94089651D01*
X122192127Y-94117915D01*
X122230599Y-94176238D01*
X122231432Y-94246103D01*
X122199728Y-94300270D01*
X121596347Y-94903651D01*
X121535024Y-94937136D01*
X121465332Y-94932152D01*
X121420985Y-94903651D01*
X120411740Y-93894407D01*
X120378255Y-93833084D01*
X120383239Y-93763392D01*
X120423934Y-93708351D01*
X120464486Y-93677234D01*
X120490773Y-93657062D01*
X120555939Y-93631869D01*
X120624384Y-93645907D01*
G37*
G04 #@! TD.AperFunction*
G04 #@! TA.AperFunction,NonConductor*
G36*
X113506607Y-95800523D02*
G01*
X113546027Y-95827065D01*
X113908961Y-96189999D01*
X114197850Y-96478888D01*
X114213975Y-96498744D01*
X114219913Y-96507832D01*
X114219916Y-96507836D01*
X114247925Y-96529636D01*
X114253687Y-96534725D01*
X114256482Y-96537520D01*
X114256484Y-96537522D01*
X114274441Y-96550342D01*
X114276497Y-96551875D01*
X114296482Y-96567429D01*
X114318811Y-96584809D01*
X114318818Y-96584811D01*
X114325720Y-96588547D01*
X114332798Y-96592008D01*
X114332801Y-96592010D01*
X114384223Y-96607318D01*
X114386583Y-96608075D01*
X114437340Y-96625500D01*
X114437342Y-96625500D01*
X114445072Y-96626790D01*
X114452910Y-96627767D01*
X114452912Y-96627768D01*
X114452913Y-96627767D01*
X114452914Y-96627768D01*
X114477413Y-96626754D01*
X114506476Y-96625552D01*
X114509034Y-96625500D01*
X117727236Y-96625500D01*
X117794275Y-96645185D01*
X117840030Y-96697989D01*
X117849974Y-96767147D01*
X117820949Y-96830703D01*
X117774688Y-96864061D01*
X117747161Y-96875462D01*
X117621718Y-96971718D01*
X117525463Y-97097160D01*
X117464956Y-97243237D01*
X117464955Y-97243239D01*
X117444318Y-97399998D01*
X117444318Y-97400001D01*
X117464955Y-97556760D01*
X117464956Y-97556762D01*
X117524287Y-97700001D01*
X117525464Y-97702841D01*
X117600411Y-97800515D01*
X117625605Y-97865683D01*
X117611567Y-97934128D01*
X117562753Y-97984117D01*
X117502035Y-98000000D01*
X117207581Y-98000000D01*
X117140542Y-97980315D01*
X117094787Y-97927511D01*
X117084642Y-97859815D01*
X117105682Y-97700001D01*
X117105682Y-97699998D01*
X117085044Y-97543239D01*
X117085044Y-97543238D01*
X117024536Y-97397159D01*
X116928282Y-97271718D01*
X116802841Y-97175464D01*
X116798430Y-97173637D01*
X116656762Y-97114956D01*
X116656760Y-97114955D01*
X116500001Y-97094318D01*
X116499999Y-97094318D01*
X116343239Y-97114955D01*
X116343237Y-97114956D01*
X116197160Y-97175463D01*
X116197158Y-97175464D01*
X116197159Y-97175464D01*
X116071718Y-97271718D01*
X116071716Y-97271719D01*
X116071715Y-97271721D01*
X116048373Y-97302140D01*
X115991945Y-97343342D01*
X115922198Y-97347495D01*
X115861279Y-97313282D01*
X115851632Y-97302149D01*
X115828282Y-97271718D01*
X115702841Y-97175464D01*
X115698430Y-97173637D01*
X115556762Y-97114956D01*
X115556760Y-97114955D01*
X115400001Y-97094318D01*
X115399999Y-97094318D01*
X115243239Y-97114955D01*
X115243237Y-97114956D01*
X115097160Y-97175463D01*
X114971718Y-97271718D01*
X114875463Y-97397160D01*
X114814956Y-97543237D01*
X114814955Y-97543239D01*
X114794318Y-97699998D01*
X114794318Y-97700001D01*
X114813844Y-97848320D01*
X114803078Y-97917355D01*
X114756698Y-97969611D01*
X114689429Y-97988496D01*
X114622629Y-97968015D01*
X114603224Y-97952186D01*
X113716016Y-97064978D01*
X113685769Y-97015626D01*
X113671498Y-96971718D01*
X113340419Y-95953073D01*
X113338419Y-95883235D01*
X113374494Y-95823399D01*
X113437192Y-95792565D01*
X113506607Y-95800523D01*
G37*
G04 #@! TD.AperFunction*
G04 #@! TA.AperFunction,NonConductor*
G36*
X118858293Y-97389331D02*
G01*
X120447850Y-98978888D01*
X120463975Y-98998744D01*
X120469913Y-99007832D01*
X120469916Y-99007836D01*
X120497925Y-99029636D01*
X120503687Y-99034725D01*
X120506482Y-99037520D01*
X120506484Y-99037522D01*
X120524441Y-99050342D01*
X120526497Y-99051875D01*
X120546482Y-99067429D01*
X120568811Y-99084809D01*
X120568818Y-99084811D01*
X120575720Y-99088547D01*
X120582798Y-99092008D01*
X120582801Y-99092010D01*
X120634223Y-99107318D01*
X120636583Y-99108075D01*
X120687340Y-99125500D01*
X120687342Y-99125500D01*
X120695072Y-99126790D01*
X120702910Y-99127767D01*
X120702912Y-99127768D01*
X120702913Y-99127767D01*
X120702914Y-99127768D01*
X120727413Y-99126754D01*
X120756476Y-99125552D01*
X120759034Y-99125500D01*
X124074138Y-99125500D01*
X124141177Y-99145185D01*
X124161907Y-99161907D01*
X124162406Y-99162407D01*
X124195830Y-99223763D01*
X124190775Y-99293450D01*
X124162318Y-99337681D01*
X123661819Y-99838181D01*
X123600496Y-99871666D01*
X123574138Y-99874500D01*
X119925862Y-99874500D01*
X119858823Y-99854815D01*
X119838181Y-99838181D01*
X118181207Y-98181207D01*
X118147722Y-98119884D01*
X118152706Y-98050192D01*
X118194578Y-97994259D01*
X118221430Y-97978968D01*
X118352841Y-97924536D01*
X118478282Y-97828282D01*
X118574536Y-97702841D01*
X118635044Y-97556762D01*
X118647674Y-97460825D01*
X118675939Y-97396931D01*
X118734263Y-97358459D01*
X118804128Y-97357627D01*
X118858293Y-97389331D01*
G37*
G04 #@! TD.AperFunction*
G04 #@! TA.AperFunction,NonConductor*
G36*
X122642177Y-100645185D02*
G01*
X122687932Y-100697989D01*
X122697876Y-100767147D01*
X122668851Y-100830703D01*
X122662819Y-100837181D01*
X122361819Y-101138181D01*
X122300496Y-101171666D01*
X122274138Y-101174500D01*
X121225862Y-101174500D01*
X121158823Y-101154815D01*
X121138181Y-101138181D01*
X120837181Y-100837181D01*
X120803696Y-100775858D01*
X120808680Y-100706166D01*
X120850552Y-100650233D01*
X120916016Y-100625816D01*
X120924862Y-100625500D01*
X122575138Y-100625500D01*
X122642177Y-100645185D01*
G37*
G04 #@! TD.AperFunction*
G04 #@! TA.AperFunction,NonConductor*
G36*
X121008851Y-103524698D02*
G01*
X121053198Y-103553199D01*
X121502712Y-104002712D01*
X121536197Y-104064035D01*
X121531213Y-104133726D01*
X121529691Y-104137606D01*
X121467969Y-104287503D01*
X121440990Y-104327971D01*
X119305281Y-106463681D01*
X119243958Y-106497166D01*
X119217600Y-106500000D01*
X115539464Y-106500000D01*
X115472425Y-106480315D01*
X115426670Y-106427511D01*
X115416726Y-106358353D01*
X115445751Y-106294797D01*
X115463978Y-106277624D01*
X115528282Y-106228282D01*
X115624536Y-106102841D01*
X115685044Y-105956762D01*
X115705682Y-105800000D01*
X115685044Y-105643238D01*
X115624536Y-105497159D01*
X115528282Y-105371718D01*
X115402841Y-105275464D01*
X115402839Y-105275463D01*
X115291977Y-105229542D01*
X115289003Y-105228217D01*
X115280608Y-105224211D01*
X115280584Y-105224202D01*
X115280339Y-105224137D01*
X115272589Y-105221511D01*
X115256766Y-105214957D01*
X115256757Y-105214954D01*
X115239240Y-105212648D01*
X115231363Y-105211087D01*
X114869247Y-105114594D01*
X114813494Y-105082456D01*
X114259007Y-104527969D01*
X114232028Y-104487501D01*
X114214570Y-104445104D01*
X114132879Y-104246712D01*
X114125557Y-104177228D01*
X114156962Y-104114814D01*
X114217125Y-104079288D01*
X114247540Y-104075500D01*
X120148196Y-104075500D01*
X120173641Y-104078139D01*
X120177440Y-104078935D01*
X120184268Y-104080367D01*
X120205225Y-104077754D01*
X120219492Y-104075977D01*
X120227168Y-104075500D01*
X120231112Y-104075500D01*
X120231114Y-104075500D01*
X120252895Y-104071864D01*
X120255402Y-104071499D01*
X120308626Y-104064866D01*
X120308628Y-104064864D01*
X120316141Y-104062628D01*
X120323606Y-104060066D01*
X120323606Y-104060065D01*
X120323610Y-104060065D01*
X120370763Y-104034547D01*
X120373004Y-104033392D01*
X120421211Y-104009826D01*
X120421214Y-104009822D01*
X120427594Y-104005268D01*
X120433819Y-104000422D01*
X120433826Y-104000419D01*
X120470162Y-103960945D01*
X120471864Y-103959171D01*
X120877839Y-103553196D01*
X120939159Y-103519714D01*
X121008851Y-103524698D01*
G37*
G04 #@! TD.AperFunction*
G04 #@! TA.AperFunction,Conductor*
G36*
X108225429Y-110439611D02*
G01*
X108231685Y-110445828D01*
X108428211Y-110907968D01*
X108428295Y-110916923D01*
X108425717Y-110920820D01*
X108330671Y-111015866D01*
X108322398Y-111019293D01*
X108318090Y-111018471D01*
X107846206Y-110831526D01*
X107839778Y-110825294D01*
X107839639Y-110816341D01*
X107947436Y-110553814D01*
X107953746Y-110547464D01*
X108216475Y-110439584D01*
X108225429Y-110439611D01*
G37*
G04 #@! TD.AperFunction*
G04 #@! TA.AperFunction,Conductor*
G36*
X106527042Y-88981667D02*
G01*
X106530671Y-88984133D01*
X106625717Y-89079179D01*
X106629144Y-89087452D01*
X106628211Y-89092031D01*
X106431685Y-89554171D01*
X106425294Y-89560443D01*
X106416474Y-89560415D01*
X106153815Y-89452563D01*
X106147463Y-89446251D01*
X106147436Y-89446184D01*
X106039694Y-89183793D01*
X106039721Y-89174838D01*
X106046072Y-89168526D01*
X106518092Y-88981528D01*
X106527042Y-88981667D01*
G37*
G04 #@! TD.AperFunction*
G04 #@! TA.AperFunction,Conductor*
G36*
X115520327Y-101194758D02*
G01*
X115849476Y-101471493D01*
X115853603Y-101479440D01*
X115853647Y-101480448D01*
X115853646Y-101614778D01*
X115850219Y-101623051D01*
X115843517Y-101626372D01*
X115313226Y-101698208D01*
X115304567Y-101695923D01*
X115300061Y-101688185D01*
X115299955Y-101686660D01*
X115299016Y-101404884D01*
X115302414Y-101396601D01*
X115504544Y-101195419D01*
X115512826Y-101192013D01*
X115520327Y-101194758D01*
G37*
G04 #@! TD.AperFunction*
G04 #@! TA.AperFunction,Conductor*
G36*
X116622973Y-110775691D02*
G01*
X116626746Y-110778218D01*
X116721781Y-110873253D01*
X116725208Y-110881526D01*
X116724327Y-110885981D01*
X116531614Y-111353997D01*
X116525295Y-111360342D01*
X116516351Y-111360365D01*
X116253815Y-111252563D01*
X116247463Y-111246251D01*
X116247436Y-111246184D01*
X116218223Y-111175041D01*
X116139634Y-110983646D01*
X116139661Y-110974693D01*
X116146000Y-110968386D01*
X116614020Y-110775672D01*
X116622973Y-110775691D01*
G37*
G04 #@! TD.AperFunction*
G04 #@! TA.AperFunction,Conductor*
G36*
X123175041Y-104218223D02*
G01*
X123246184Y-104247436D01*
X123252536Y-104253748D01*
X123252563Y-104253815D01*
X123360365Y-104516351D01*
X123360338Y-104525306D01*
X123353997Y-104531614D01*
X122885981Y-104724327D01*
X122877026Y-104724308D01*
X122873253Y-104721781D01*
X122778218Y-104626746D01*
X122774791Y-104618473D01*
X122775671Y-104614022D01*
X122968386Y-104146000D01*
X122974704Y-104139657D01*
X122983646Y-104139634D01*
X123175041Y-104218223D01*
G37*
G04 #@! TD.AperFunction*
G04 #@! TA.AperFunction,Conductor*
G36*
X105380181Y-93367820D02*
G01*
X105386505Y-93374160D01*
X105386817Y-93375008D01*
X105801476Y-94650808D01*
X105800774Y-94659735D01*
X105798622Y-94662697D01*
X105702697Y-94758622D01*
X105694424Y-94762049D01*
X105690808Y-94761476D01*
X104415008Y-94346817D01*
X104408199Y-94341001D01*
X104407497Y-94332074D01*
X104407802Y-94331244D01*
X104687438Y-93653786D01*
X104693759Y-93647449D01*
X105371228Y-93367809D01*
X105380181Y-93367820D01*
G37*
G04 #@! TD.AperFunction*
G04 #@! TA.AperFunction,Conductor*
G36*
X120885977Y-93025671D02*
G01*
X121353998Y-93218386D01*
X121360342Y-93224704D01*
X121360365Y-93233648D01*
X121252563Y-93496184D01*
X121246251Y-93502536D01*
X121246184Y-93502563D01*
X120983648Y-93610365D01*
X120974693Y-93610338D01*
X120968386Y-93603998D01*
X120775672Y-93135979D01*
X120775691Y-93127026D01*
X120778215Y-93123256D01*
X120873254Y-93028217D01*
X120881526Y-93024791D01*
X120885977Y-93025671D01*
G37*
G04 #@! TD.AperFunction*
G04 #@! TA.AperFunction,Conductor*
G36*
X121885977Y-93025671D02*
G01*
X122353998Y-93218386D01*
X122360342Y-93224704D01*
X122360365Y-93233648D01*
X122252563Y-93496184D01*
X122246251Y-93502536D01*
X122246184Y-93502563D01*
X121983648Y-93610365D01*
X121974693Y-93610338D01*
X121968386Y-93603998D01*
X121775672Y-93135979D01*
X121775691Y-93127026D01*
X121778215Y-93123256D01*
X121873254Y-93028217D01*
X121881526Y-93024791D01*
X121885977Y-93025671D01*
G37*
G04 #@! TD.AperFunction*
G04 #@! TA.AperFunction,Conductor*
G36*
X97076920Y-93723318D02*
G01*
X97078460Y-93725219D01*
X97369526Y-94173433D01*
X97371157Y-94182238D01*
X97366085Y-94189618D01*
X97364224Y-94190601D01*
X97104511Y-94299115D01*
X97095556Y-94299142D01*
X97095489Y-94299115D01*
X96831847Y-94188960D01*
X96825535Y-94182608D01*
X96824930Y-94175657D01*
X96922981Y-93729082D01*
X96928104Y-93721736D01*
X96934410Y-93719891D01*
X97068647Y-93719891D01*
X97076920Y-93723318D01*
G37*
G04 #@! TD.AperFunction*
G04 #@! TA.AperFunction,Conductor*
G36*
X113775306Y-104189661D02*
G01*
X113781614Y-104196002D01*
X113974327Y-104664018D01*
X113974308Y-104672973D01*
X113971781Y-104676746D01*
X113876746Y-104771781D01*
X113868473Y-104775208D01*
X113864018Y-104774327D01*
X113596125Y-104664018D01*
X113396001Y-104581613D01*
X113389657Y-104575295D01*
X113389634Y-104566353D01*
X113497436Y-104303814D01*
X113503746Y-104297464D01*
X113766353Y-104189634D01*
X113775306Y-104189661D01*
G37*
G04 #@! TD.AperFunction*
G04 #@! TA.AperFunction,Conductor*
G36*
X111325692Y-102639509D02*
G01*
X111331845Y-102645456D01*
X111462318Y-102931401D01*
X111501041Y-103016267D01*
X111503970Y-103022685D01*
X111505026Y-103027542D01*
X111505026Y-103159877D01*
X111501599Y-103168150D01*
X111493326Y-103171577D01*
X111490388Y-103171202D01*
X110948172Y-103030530D01*
X110941024Y-103025135D01*
X110939785Y-103016267D01*
X110940283Y-103014770D01*
X111047148Y-102754507D01*
X111053456Y-102748160D01*
X111316738Y-102639498D01*
X111325692Y-102639509D01*
G37*
G04 #@! TD.AperFunction*
G04 #@! TA.AperFunction,Conductor*
G36*
X122125041Y-104068223D02*
G01*
X122196184Y-104097436D01*
X122202536Y-104103748D01*
X122202563Y-104103815D01*
X122310365Y-104366351D01*
X122310338Y-104375306D01*
X122303997Y-104381614D01*
X121835981Y-104574327D01*
X121827026Y-104574308D01*
X121823253Y-104571781D01*
X121728218Y-104476746D01*
X121724791Y-104468473D01*
X121725671Y-104464022D01*
X121918386Y-103996000D01*
X121924704Y-103989657D01*
X121933646Y-103989634D01*
X122125041Y-104068223D01*
G37*
G04 #@! TD.AperFunction*
G04 #@! TA.AperFunction,Conductor*
G36*
X105225161Y-89339721D02*
G01*
X105231473Y-89346073D01*
X105231491Y-89346117D01*
X105418471Y-89818089D01*
X105418332Y-89827042D01*
X105415866Y-89830671D01*
X105320820Y-89925717D01*
X105312547Y-89929144D01*
X105307968Y-89928211D01*
X104845828Y-89731685D01*
X104839556Y-89725294D01*
X104839584Y-89716474D01*
X104947436Y-89453815D01*
X104953746Y-89447464D01*
X105216207Y-89339694D01*
X105225161Y-89339721D01*
G37*
G04 #@! TD.AperFunction*
G04 #@! TA.AperFunction,Conductor*
G36*
X115422973Y-110775691D02*
G01*
X115426746Y-110778218D01*
X115521781Y-110873253D01*
X115525208Y-110881526D01*
X115524327Y-110885981D01*
X115331614Y-111353997D01*
X115325295Y-111360342D01*
X115316351Y-111360365D01*
X115053815Y-111252563D01*
X115047463Y-111246251D01*
X115047436Y-111246184D01*
X115018223Y-111175041D01*
X114939634Y-110983646D01*
X114939661Y-110974693D01*
X114946000Y-110968386D01*
X115414020Y-110775672D01*
X115422973Y-110775691D01*
G37*
G04 #@! TD.AperFunction*
G04 #@! TA.AperFunction,Conductor*
G36*
X114695228Y-105384384D02*
G01*
X115201936Y-105519406D01*
X115209046Y-105524848D01*
X115210228Y-105533725D01*
X115209745Y-105535156D01*
X115102563Y-105796184D01*
X115096251Y-105802536D01*
X115096184Y-105802563D01*
X114832396Y-105910879D01*
X114823441Y-105910852D01*
X114817760Y-105905801D01*
X114608827Y-105535156D01*
X114587009Y-105496451D01*
X114585932Y-105487563D01*
X114588927Y-105482436D01*
X114683946Y-105387417D01*
X114692218Y-105383991D01*
X114695228Y-105384384D01*
G37*
G04 #@! TD.AperFunction*
G04 #@! TA.AperFunction,Conductor*
G36*
X97168153Y-90511040D02*
G01*
X97174464Y-90517391D01*
X97175069Y-90524344D01*
X97077018Y-90970918D01*
X97071896Y-90978264D01*
X97065590Y-90980109D01*
X96931353Y-90980109D01*
X96923080Y-90976682D01*
X96921540Y-90974781D01*
X96630473Y-90526566D01*
X96628842Y-90517761D01*
X96633914Y-90510381D01*
X96635767Y-90509401D01*
X96895490Y-90400883D01*
X96904444Y-90400857D01*
X97168153Y-90511040D01*
G37*
G04 #@! TD.AperFunction*
G04 #@! TA.AperFunction,Conductor*
G36*
X129389700Y-98483619D02*
G01*
X129499115Y-98745488D01*
X129499142Y-98754443D01*
X129499115Y-98754510D01*
X129389701Y-99016379D01*
X129383349Y-99022691D01*
X129374405Y-99022668D01*
X128907200Y-98827999D01*
X128900881Y-98821654D01*
X128900000Y-98817199D01*
X128900000Y-98682800D01*
X128903427Y-98674527D01*
X128907200Y-98672000D01*
X129374406Y-98477330D01*
X129383360Y-98477312D01*
X129389700Y-98483619D01*
G37*
G04 #@! TD.AperFunction*
G04 #@! TA.AperFunction,Conductor*
G36*
X126189701Y-101483620D02*
G01*
X126299115Y-101745489D01*
X126299142Y-101754444D01*
X126299115Y-101754511D01*
X126189701Y-102016379D01*
X126183349Y-102022691D01*
X126174405Y-102022668D01*
X125707200Y-101827999D01*
X125700881Y-101821654D01*
X125700000Y-101817199D01*
X125700000Y-101682800D01*
X125703427Y-101674527D01*
X125707200Y-101672000D01*
X126174406Y-101477330D01*
X126183360Y-101477312D01*
X126189701Y-101483620D01*
G37*
G04 #@! TD.AperFunction*
G04 #@! TA.AperFunction,Conductor*
G36*
X124589700Y-102133619D02*
G01*
X124699115Y-102395488D01*
X124699142Y-102404443D01*
X124699115Y-102404510D01*
X124589701Y-102666379D01*
X124583349Y-102672691D01*
X124574405Y-102672668D01*
X124107200Y-102477999D01*
X124100881Y-102471654D01*
X124100000Y-102467199D01*
X124100000Y-102332800D01*
X124103427Y-102324527D01*
X124107200Y-102322000D01*
X124574406Y-102127330D01*
X124583360Y-102127312D01*
X124589700Y-102133619D01*
G37*
G04 #@! TD.AperFunction*
G04 #@! TA.AperFunction,Conductor*
G36*
X126389701Y-99983620D02*
G01*
X126499115Y-100245489D01*
X126499142Y-100254444D01*
X126499115Y-100254511D01*
X126389701Y-100516379D01*
X126383349Y-100522691D01*
X126374405Y-100522668D01*
X125907200Y-100327999D01*
X125900881Y-100321654D01*
X125900000Y-100317199D01*
X125900000Y-100182800D01*
X125903427Y-100174527D01*
X125907200Y-100172000D01*
X126374406Y-99977330D01*
X126383360Y-99977312D01*
X126389701Y-99983620D01*
G37*
G04 #@! TD.AperFunction*
G04 #@! TA.AperFunction,Conductor*
G36*
X119735977Y-92725671D02*
G01*
X120203998Y-92918386D01*
X120210342Y-92924704D01*
X120210365Y-92933648D01*
X120102563Y-93196184D01*
X120096251Y-93202536D01*
X120096184Y-93202563D01*
X119833648Y-93310365D01*
X119824693Y-93310338D01*
X119818386Y-93303998D01*
X119625672Y-92835979D01*
X119625691Y-92827026D01*
X119628215Y-92823256D01*
X119723254Y-92728217D01*
X119731526Y-92724791D01*
X119735977Y-92725671D01*
G37*
G04 #@! TD.AperFunction*
G04 #@! TA.AperFunction,Conductor*
G36*
X110424705Y-103329490D02*
G01*
X110426562Y-103330470D01*
X110757353Y-103545283D01*
X110757781Y-103545592D01*
X110764598Y-103551028D01*
X110765087Y-103551465D01*
X110772945Y-103559323D01*
X110782352Y-103565234D01*
X110782887Y-103565614D01*
X110809879Y-103587138D01*
X110819459Y-103589324D01*
X110823079Y-103590824D01*
X110831399Y-103596052D01*
X110833654Y-103596306D01*
X110838714Y-103598118D01*
X110874781Y-103621540D01*
X110879853Y-103628920D01*
X110880109Y-103631353D01*
X110880109Y-103765590D01*
X110876682Y-103773863D01*
X110870918Y-103777018D01*
X110424344Y-103875069D01*
X110415529Y-103873496D01*
X110411040Y-103868153D01*
X110300883Y-103604509D01*
X110300857Y-103595555D01*
X110409399Y-103335773D01*
X110415750Y-103329463D01*
X110424705Y-103329490D01*
G37*
G04 #@! TD.AperFunction*
G04 #@! TA.AperFunction,Conductor*
G36*
X113000181Y-95907820D02*
G01*
X113006505Y-95914160D01*
X113006817Y-95915008D01*
X113421476Y-97190808D01*
X113420774Y-97199735D01*
X113418622Y-97202697D01*
X113322697Y-97298622D01*
X113314424Y-97302049D01*
X113310808Y-97301476D01*
X112035008Y-96886817D01*
X112028199Y-96881001D01*
X112027497Y-96872074D01*
X112027802Y-96871244D01*
X112307438Y-96193786D01*
X112313759Y-96187449D01*
X112991228Y-95907809D01*
X113000181Y-95907820D01*
G37*
G04 #@! TD.AperFunction*
G04 #@! TA.AperFunction,Conductor*
G36*
X111876696Y-90089095D02*
G01*
X111882307Y-90093996D01*
X112074137Y-90422265D01*
X112075735Y-90428168D01*
X112075736Y-90561311D01*
X112072309Y-90569584D01*
X112064036Y-90573011D01*
X112062214Y-90572868D01*
X111728305Y-90520227D01*
X111609843Y-90501551D01*
X111602205Y-90496879D01*
X111599966Y-90490036D01*
X111599026Y-90207855D01*
X111602425Y-90199571D01*
X111606258Y-90197004D01*
X111867741Y-90089084D01*
X111876696Y-90089095D01*
G37*
G04 #@! TD.AperFunction*
G04 #@! TA.AperFunction,Conductor*
G36*
X113668028Y-93173107D02*
G01*
X113675460Y-93178101D01*
X113677414Y-93184575D01*
X113677414Y-93320227D01*
X113674076Y-93328410D01*
X112848594Y-94171885D01*
X112840358Y-94175401D01*
X112832049Y-94172064D01*
X112831967Y-94171983D01*
X112314546Y-93655536D01*
X112311111Y-93647266D01*
X112312006Y-93642767D01*
X112593322Y-92965968D01*
X112599662Y-92959645D01*
X112606438Y-92958991D01*
X113668028Y-93173107D01*
G37*
G04 #@! TD.AperFunction*
G04 #@! TA.AperFunction,Conductor*
G36*
X110565650Y-110009994D02*
G01*
X110571962Y-110016346D01*
X110571935Y-110025301D01*
X110571622Y-110025985D01*
X110324912Y-110523789D01*
X110318168Y-110529680D01*
X110309234Y-110529077D01*
X110306156Y-110526867D01*
X110213121Y-110433832D01*
X110210733Y-110430379D01*
X110027806Y-110025797D01*
X110027520Y-110016847D01*
X110033647Y-110010316D01*
X110033920Y-110010197D01*
X110296206Y-109901163D01*
X110305159Y-109901153D01*
X110565650Y-110009994D01*
G37*
G04 #@! TD.AperFunction*
G04 #@! TA.AperFunction,Conductor*
G36*
X128639701Y-97733620D02*
G01*
X128749115Y-97995489D01*
X128749142Y-98004444D01*
X128749115Y-98004511D01*
X128639701Y-98266379D01*
X128633349Y-98272691D01*
X128624405Y-98272668D01*
X128157200Y-98077999D01*
X128150881Y-98071654D01*
X128150000Y-98067199D01*
X128150000Y-97932800D01*
X128153427Y-97924527D01*
X128157200Y-97922000D01*
X128624406Y-97727330D01*
X128633360Y-97727312D01*
X128639701Y-97733620D01*
G37*
G04 #@! TD.AperFunction*
G04 #@! TA.AperFunction,Conductor*
G36*
X125382048Y-104127124D02*
G01*
X125388044Y-104133299D01*
X125497335Y-104396204D01*
X125497346Y-104405159D01*
X125497327Y-104405206D01*
X125388840Y-104664850D01*
X125382488Y-104671162D01*
X125373533Y-104671135D01*
X125372159Y-104670451D01*
X124888327Y-104388903D01*
X124882900Y-104381781D01*
X124884100Y-104372906D01*
X124885935Y-104370522D01*
X124979485Y-104276972D01*
X124983609Y-104274307D01*
X125373097Y-104126848D01*
X125382048Y-104127124D01*
G37*
G04 #@! TD.AperFunction*
G04 #@! TA.AperFunction,Conductor*
G36*
X125489701Y-100833620D02*
G01*
X125599115Y-101095489D01*
X125599142Y-101104444D01*
X125599115Y-101104511D01*
X125489701Y-101366379D01*
X125483349Y-101372691D01*
X125474405Y-101372668D01*
X125007200Y-101177999D01*
X125000881Y-101171654D01*
X125000000Y-101167199D01*
X125000000Y-101032800D01*
X125003427Y-101024527D01*
X125007200Y-101022000D01*
X125474406Y-100827330D01*
X125483360Y-100827312D01*
X125489701Y-100833620D01*
G37*
G04 #@! TD.AperFunction*
G04 #@! TA.AperFunction,Conductor*
G36*
X111625593Y-89027330D02*
G01*
X112092800Y-89222000D01*
X112099119Y-89228345D01*
X112100000Y-89232800D01*
X112100000Y-89367199D01*
X112096573Y-89375472D01*
X112092800Y-89377999D01*
X111625594Y-89572668D01*
X111616639Y-89572687D01*
X111610299Y-89566380D01*
X111500883Y-89304509D01*
X111500857Y-89295556D01*
X111500862Y-89295542D01*
X111610300Y-89033617D01*
X111616650Y-89027308D01*
X111625593Y-89027330D01*
G37*
G04 #@! TD.AperFunction*
G04 #@! TA.AperFunction,Conductor*
G36*
X109637776Y-89927130D02*
G01*
X110090157Y-89998448D01*
X110097794Y-90003120D01*
X110100033Y-90009965D01*
X110100973Y-90292143D01*
X110097574Y-90300428D01*
X110093737Y-90302997D01*
X109832258Y-90410915D01*
X109823303Y-90410904D01*
X109817692Y-90406003D01*
X109625862Y-90077734D01*
X109624264Y-90071831D01*
X109624264Y-89938688D01*
X109627691Y-89930415D01*
X109635964Y-89926988D01*
X109637776Y-89927130D01*
G37*
G04 #@! TD.AperFunction*
G04 #@! TA.AperFunction,Conductor*
G36*
X110175306Y-102289661D02*
G01*
X110181614Y-102296002D01*
X110374327Y-102764018D01*
X110374308Y-102772973D01*
X110371781Y-102776746D01*
X110276746Y-102871781D01*
X110268473Y-102875208D01*
X110264018Y-102874327D01*
X109996125Y-102764018D01*
X109796001Y-102681613D01*
X109789657Y-102675295D01*
X109789634Y-102666353D01*
X109897436Y-102403814D01*
X109903746Y-102397464D01*
X110166353Y-102289634D01*
X110175306Y-102289661D01*
G37*
G04 #@! TD.AperFunction*
M02*
