G04 #@! TF.GenerationSoftware,KiCad,Pcbnew,7.0.5*
G04 #@! TF.CreationDate,2024-01-12T08:26:28+09:00*
G04 #@! TF.ProjectId,uglyMotorGaurd,75676c79-4d6f-4746-9f72-47617572642e,rev?*
G04 #@! TF.SameCoordinates,Original*
G04 #@! TF.FileFunction,Profile,NP*
%FSLAX46Y46*%
G04 Gerber Fmt 4.6, Leading zero omitted, Abs format (unit mm)*
G04 Created by KiCad (PCBNEW 7.0.5) date 2024-01-12 08:26:28*
%MOMM*%
%LPD*%
G01*
G04 APERTURE LIST*
G04 #@! TA.AperFunction,Profile*
%ADD10C,0.001000*%
G04 #@! TD*
G04 APERTURE END LIST*
D10*
X88350000Y-99500000D02*
X92950000Y-99500000D01*
X102000000Y-97936068D02*
G75*
G03*
X98000000Y-97936068I-2000000J2236068D01*
G01*
X86550000Y-98700000D02*
X86550000Y-87700000D01*
X110050000Y-93750000D02*
G75*
G03*
X110050000Y-93750000I-3000000J0D01*
G01*
X107050000Y-98700000D02*
X102000000Y-98700000D01*
X111650000Y-98700000D02*
X111650000Y-99500000D01*
X88550000Y-89700000D02*
X113450000Y-89700000D01*
X107050000Y-99500000D02*
X107050000Y-98700000D01*
X88550000Y-87700000D02*
X88550000Y-89700000D01*
X111650000Y-99500000D02*
X107050000Y-99500000D01*
X98000000Y-98700000D02*
X98000000Y-97936068D01*
X95950000Y-93750000D02*
G75*
G03*
X95950000Y-93750000I-3000000J0D01*
G01*
X86550000Y-87700000D02*
X88550000Y-87700000D01*
X102000000Y-98700000D02*
X102000000Y-97936068D01*
X92950000Y-98700000D02*
X98000000Y-98700000D01*
X113450000Y-98700000D02*
X111650000Y-98700000D01*
X86550000Y-98700000D02*
X88350000Y-98700000D01*
X92950000Y-99500000D02*
X92950000Y-98700000D01*
X88350000Y-98700000D02*
X88350000Y-99500000D01*
X113450000Y-89700000D02*
X113450000Y-98700000D01*
M02*
