G04 #@! TF.GenerationSoftware,KiCad,Pcbnew,7.0.5*
G04 #@! TF.CreationDate,2024-01-12T08:26:28+09:00*
G04 #@! TF.ProjectId,uglyMotorGaurd,75676c79-4d6f-4746-9f72-47617572642e,rev?*
G04 #@! TF.SameCoordinates,Original*
G04 #@! TF.FileFunction,Soldermask,Bot*
G04 #@! TF.FilePolarity,Negative*
%FSLAX46Y46*%
G04 Gerber Fmt 4.6, Leading zero omitted, Abs format (unit mm)*
G04 Created by KiCad (PCBNEW 7.0.5) date 2024-01-12 08:26:28*
%MOMM*%
%LPD*%
G01*
G04 APERTURE LIST*
G04 Aperture macros list*
%AMRoundRect*
0 Rectangle with rounded corners*
0 $1 Rounding radius*
0 $2 $3 $4 $5 $6 $7 $8 $9 X,Y pos of 4 corners*
0 Add a 4 corners polygon primitive as box body*
4,1,4,$2,$3,$4,$5,$6,$7,$8,$9,$2,$3,0*
0 Add four circle primitives for the rounded corners*
1,1,$1+$1,$2,$3*
1,1,$1+$1,$4,$5*
1,1,$1+$1,$6,$7*
1,1,$1+$1,$8,$9*
0 Add four rect primitives between the rounded corners*
20,1,$1+$1,$2,$3,$4,$5,0*
20,1,$1+$1,$4,$5,$6,$7,0*
20,1,$1+$1,$6,$7,$8,$9,0*
20,1,$1+$1,$8,$9,$2,$3,0*%
G04 Aperture macros list end*
%ADD10RoundRect,0.075000X-0.300000X0.925000X-0.300000X-0.925000X0.300000X-0.925000X0.300000X0.925000X0*%
%ADD11RoundRect,0.075000X0.300000X-0.925000X0.300000X0.925000X-0.300000X0.925000X-0.300000X-0.925000X0*%
G04 APERTURE END LIST*
D10*
X112050000Y-97675000D03*
X113050000Y-97675000D03*
D11*
X88050000Y-88825000D03*
X87050000Y-88825000D03*
G36*
X110943039Y-97019685D02*
G01*
X110988794Y-97072489D01*
X111000000Y-97124000D01*
X111000000Y-99376000D01*
X110980315Y-99443039D01*
X110927511Y-99488794D01*
X110876000Y-99500000D01*
X107174000Y-99500000D01*
X107106961Y-99480315D01*
X107061206Y-99427511D01*
X107050000Y-99376000D01*
X107050000Y-98700000D01*
X102124000Y-98700000D01*
X102056961Y-98680315D01*
X102011206Y-98627511D01*
X102000000Y-98576000D01*
X102000000Y-97987303D01*
X102019685Y-97920264D01*
X102036165Y-97899775D01*
X102243074Y-97692138D01*
X102456585Y-97421970D01*
X102456588Y-97421966D01*
X102637744Y-97129091D01*
X102664894Y-97071286D01*
X102711210Y-97018974D01*
X102777131Y-97000000D01*
X110876000Y-97000000D01*
X110943039Y-97019685D01*
G37*
G36*
X97289908Y-97019685D02*
G01*
X97335106Y-97071286D01*
X97362255Y-97129091D01*
X97543411Y-97421966D01*
X97543414Y-97421970D01*
X97756925Y-97692138D01*
X97963835Y-97899775D01*
X97997212Y-97961157D01*
X98000000Y-97987303D01*
X98000000Y-98576000D01*
X97980315Y-98643039D01*
X97927511Y-98688794D01*
X97876000Y-98700000D01*
X92950000Y-98700000D01*
X92950000Y-99376000D01*
X92930315Y-99443039D01*
X92877511Y-99488794D01*
X92826000Y-99500000D01*
X88474000Y-99500000D01*
X88406961Y-99480315D01*
X88361206Y-99427511D01*
X88350000Y-99376000D01*
X88350000Y-98700000D01*
X86674000Y-98700000D01*
X86606961Y-98680315D01*
X86561206Y-98627511D01*
X86550000Y-98576000D01*
X86550000Y-97124000D01*
X86569685Y-97056961D01*
X86622489Y-97011206D01*
X86674000Y-97000000D01*
X97222869Y-97000000D01*
X97289908Y-97019685D01*
G37*
M02*
